<svg stroke-width=".501" stroke-linejoin="bevel" fill-rule="evenodd" xmlns="http://www.w3.org/2000/svg"
    overflow="visible" width="64" height="64" viewBox="0 0 48 48">
    <g stroke-linejoin="miter" stroke-linecap="round" stroke="none" stroke-width=".046" stroke-miterlimit="79.84"
        fill="none" font-family="Times New Roman" font-size="16">
        <path
            d="M36.253 9.169l-1.777 10.076a.842.842 0 00.683.976l10.076 1.777a.845.845 0 00.977-.684l1.776-10.076a.842.842 0 00-.683-.976L37.229 8.485a.843.843 0 00-.976.684z"
            fill="#e56414" />
        <path
            d="M28.805 5.653l-1.776 10.076a.842.842 0 00.683.976l10.076 1.777a.842.842 0 00.976-.683l1.777-10.076a.842.842 0 00-.683-.976L29.782 4.97a.843.843 0 00-.977.683z"
            fill="#fe7d2d" />
        <path
            d="M28.212 5.175l-6.691 37.943c-.14.797.009 1.49.332 1.547h.001c.323.058.7-.543.841-1.34l6.69-37.943c.141-.797-.008-1.49-.332-1.547-.324-.057-.701.543-.841 1.34z"
            fill="#8b8891" />
        <path d="M28.077 5.938l.286-1.62 1.173.207-.283 1.607a1.186 1.186 0 01-1.176-.194z" fill="#59575e" />
        <path d="M29.139 3.348a1.191 1.191 0 11-.414 2.346 1.191 1.191 0 01.414-2.346z" fill="#8b8891" />
        <g>
            <path
                d="M11.747 16.504l1.777 10.076a.842.842 0 01-.683.976L2.765 29.332a.842.842 0 01-.976-.683L.012 18.573a.842.842 0 01.683-.976l10.076-1.777a.843.843 0 01.976.684z"
                fill="#6414e5" />
            <path
                d="M19.195 12.988l1.776 10.076a.842.842 0 01-.683.976l-10.076 1.777a.843.843 0 01-.976-.684L7.459 15.057a.843.843 0 01.683-.976l10.077-1.776a.842.842 0 01.976.683z"
                fill="#7d2dfe" />
            <path
                d="M19.743 12.25l5.488 31.128c.116.653-.054 1.23-.378 1.287-.324.058-.68-.427-.795-1.08l-5.489-31.128c-.115-.653.054-1.23.378-1.287.324-.057.68.427.796 1.08z"
                fill="#8b8891" />
            <path d="M19.923 13.273l-.286-1.62-1.173.207.283 1.607a1.193 1.193 0 001.176-.194z" fill="#59575e" />
            <path d="M18.861 10.683a1.192 1.192 0 10.415 2.347 1.192 1.192 0 00-.415-2.347z" fill="#8b8891" />
        </g>
    </g>
</svg>