<svg stroke-width=".501" stroke-linejoin="bevel" fill-rule="evenodd" xmlns="http://www.w3.org/2000/svg"
    overflow="visible" viewBox="0 0 384 384">
    <g fill="none" stroke="#000" font-family="Times New Roman" font-size="16">
        <g stroke-linejoin="miter" stroke="none" stroke-width=".071" fill="#000">
            <path
                d="M170.925.841c-.644 1-.502 11.271.142 13.692.43 1.358.357 1.429-.571.213-2.283-2.779-2.565-.5-.712 5.277 1.212 3.708 3.067 6.349 4.492 6.349.428 0 .714-.573.714-1.212 0-.643.213-.93.499-.714.216.286.071 1.282-.499 2.21-1.001 1.855-.501 4.351.715 3.637.353-.213.71-.071.71.286 0 1.212-2.139.926-2.57-.286-.28-.573-.923-1.068-1.496-1.068-.71 0-.428.782 1.072 2.637 1.141 1.496 2.637 3.708 3.28 4.993 1.496 2.994 2.568 3.566 3.708 1.997 1.21-1.571.571-4.565-1.14-6.134-1.285-1.142-1.285-1.213.353-2.068 1.788-1.001 4.138-.286 2.427.715-.712.497-.712.854.071 1.782.928 1.14 1.072 1.14 1.853 0 .786-1.072.93-1.072 1.569.144.428.71 1.001.996 1.287.71.357-.286.142-1.212-.359-1.997-1.638-2.707-.358-2.068 2.922 1.425 2.998 3.213 3.498 4.351 1.856 4.351-.282 0-.498-.213-.427-.572.216-.71-1.782-3.706-2.425-3.706-1.001 0-.573 2.21.501 2.567.711.287 1.068 1.425 1.068 3.422 0 1.926.213 2.57.643 1.926.5-.783.924-.783 2.282.214 2.494 1.711 2.922 1.426 1.64-1.068-.644-1.358-.857-2.425-.429-2.712.358-.213.786-1.28.997-2.354.286-1.567 0-2.068-1.64-2.779-2.21-.856-2.779-2.068-.997-2.068.573 0 1.068.286 1.068.715 0 .854.714.925 2.068.066.715-.495.788-.923.144-2.134-.996-1.716-2.212-1.998-2.212-.429 0 .997-.213.997-2.139 0-1.212-.643-2.422-.93-2.779-.714-.357.142-.859-.144-1.072-.782-.353-.929-1.069-1.073-3.566-.716-2.425.357-3.207.286-3.493-.642-.428-.996.358-1.353 2.925-1.282.426.071.854-.144.854-.357 0-.711-2.496-2.213-3.708-2.284-1.424 0-1.782-.996-1.424-3.708.215-1.283.71-1.997 1.568-1.997 1.782 0 2.568-5.99.995-8.34-.566-.93-1.139-2.998-1.139-4.567 0-2.783-.071-2.783-2.354-2.354-1.354.215-2.492.073-2.779-.358-.714-1.067-3.779-.996-4.493.074z" />
            <path
                d="M195.67 38.566c0 .712.928 1.997 2.068 2.851 1.21.857 1.924 1.925 1.711 2.568-.286.788-.572.715-1.282-.284-1.354-1.784-1.926-.783-1.425 2.21.282 1.496.923 2.57 1.496 2.57.639 0 .996.781.996 2.068 0 1.567.499 2.206 1.997 2.85 1.143.499 2.069 1.211 2.069 1.711 0 .499.215 1.568.499 2.354.357 1.283.215 1.496-1.354 1.496-1.001 0-1.782-.213-1.782-.571 0-.353-.286-.639-.714-.639-.358 0-.5.923-.216 2.282.358 1.639.216 2.07-.428 1.71-.566-.357-.996 0-1.282.926-.5 1.855-.786 1.855-2.353-.071-1.069-1.425-1.498-1.496-3.138-.71-1 .424-1.853 1.282-1.853 1.926 0 .637-.643 1.067-1.782 1.067-1 0-1.926.429-2.068.857-.144.497-.501 1.926-.93 3.065-.357 1.211-.568 2.569-.357 3.064.428 1.287 2.281 1.001 2.281-.424 0-.643.502-1.853 1.074-2.569 1.068-1.354 1.068-1.354 1.068.144 0 1.64 1.001 2.139 1.782.856.215-.357.859-.499 1.425-.213.714.213 1.071-.144 1.071-1.145 0-1.28.216-1.424 1.354-.781 1.145.568 1.427 1.425 1.354 4.418-.067 3.212.144 3.851 1.926 5.282 1.143.923 2.712 1.711 3.568 1.853.855.142 1.498.854 1.64 1.853.286 1.711 1.855 1.784 1.997.073 0-.572.287-1.573.569-2.283.357-.786.213-2.069-.353-3.207-1.287-2.57-1.216-3.213.281-3.428.715-.072 1.214.286 1.214 1.073 0 .64.502 1.853 1.068 2.635.93 1.287 1.001 1.216 1.072-1.281 0-1.427.357-2.856.712-3.065.428-.215.714-1.073.714-1.926 0-2.64-3.064-12.695-3.708-12.267-.43.286-.43-.715-.144-2.283.431-2.355.357-2.568-.785-2.211-.855.358-1.283.071-1.569-.925-.429-1.64-1.638-1.926-1.638-.357 0 .572-.502 1.067-1.141 1.067-.856 0-1.001-.282-.428-.925.357-.5.428-1.496.071-2.282-.93-2.354-.715-2.64 1.498-2.354l2.068.286-1.354-2.212c-.787-1.283-1.431-3.065-1.431-3.995 0-2.707-1.138-3.779-4.203-3.921-2.426-.144-2.925.071-2.925 1.214z" />
            <path
                d="M182.835 41.988c0 .43.357.93.71 1.14.499.287.643 2.14.499 4.352-.284 3.992 0 4.494 1.569 2.925.715-.644 1.072-.644 1.287 0 .142.497.781.639 1.354.424 1.496-.566 1.209 1.431-.431 2.856-1.209.996-1.28 1.425-.566 2.64.495.782 1.283 1.425 1.711 1.425.495 0 .997.5 1.283 1.068.641 1.782 1.711 1.214 2.568-1.425.424-1.354 1.138-2.499 1.497-2.499.429 0 .5.287.285.715-.5.788 1.711.925 3.495.286 1.711-.643 1.353-2.783-.644-3.85-1.425-.786-1.782-1.496-1.782-3.708 0-2.211-.215-2.712-1.427-2.712-.785 0-1.424.286-1.424.714 0 .358-.573.711-1.358.711-.997 0-1.21-.424-.926-1.782.286-1.496 0-1.782-1.354-1.782-.927-.071-2.496-.502-3.497-1.068-2.139-1.216-2.849-1.287-2.849-.43zm11.195 6.635c-.215.568-.43.353-.43-.428-.071-.788.144-1.216.357-.93.215.215.286.856.073 1.358zm-.501 5.204c0 .357-.357.215-.71-.357-.358-.571-.715-1.425-.715-1.782 0-.429.357-.216.715.357.353.568.71 1.354.71 1.782zm1.216-.213c-.215.57-.429.357-.429-.431-.073-.781.143-1.209.358-.923.213.213.284.852.071 1.354zm-2.856 1.424c-.213.571-.428.358-.428-.428-.071-.783.144-1.211.357-.925.215.213.286.852.071 1.353zM169.571 47.05c-.286 1.358-1.072 3.355-1.855 4.422-.786 1.141-1.143 2.355-.928 2.712.286.426.213.639-.144.568-.852-.282-6.416 5.424-6.986 7.206-.286.925-.144 1.997.286 2.421.566.572.782.572.782 0 0-.353 1.64-2.35 3.564-4.347 1.997-1.996 3.57-3.922 3.57-4.35 0-1.145 3.065-4.136 4.56-4.423 1.927-.357 2.213-1.784.431-2.283-.997-.215-1.427-.926-1.427-2.279 0-1.072.286-1.716.71-1.429.431.215.717.144.717-.287 0-.353-.644-.639-1.427-.566-1.001.071-1.567.782-1.853 2.635zM158.799 69.731c-.357.282-1.138 1.711-1.711 3.136-.499 1.498-1.209 2.712-1.566 2.712-.287 0-.93.925-1.283 2.068-.428 1.141-1.573 2.636-2.497 3.28-1.426.925-1.64 1.354-.929 2.21.643.855.499.997-1.068.997-1.069 0-2.425.501-2.993 1.071-.644.569-1.716 1.07-2.497 1.07-.93 0-1.354.499-1.354 1.496 0 .856-1.287 3.069-2.856 4.922-2.354 2.851-3.35 3.495-6.062 3.852-1.711.284-3.349.781-3.564 1.21-.286.357-.786.501-1.139.286-.572-.357-1 2.283-.716 4.136.073.287-.213 1.212-.642 1.997-.639 1.139-.996 1.283-2.35.498-.859-.498-2.141-.784-2.856-.64-.643.071-1.424-.357-1.64-.929-.641-1.569-2.638-.287-3.992 2.496-1.212 2.355-1.141 4.991 0 11.125.996 5.066 1.924 6.562 3.708 6.133 1.21-.357 1.425-.071 1.354 1.998 0 1.353.213 3.921.428 5.776.573 3.564.5 3.493 5.919 3.422 2.498 0 2.993.213 2.993 1.358 0 1.64 1.143 2.563 1.787 1.496.282-.429.996-.571 1.711-.358.71.216 1.926-.286 2.778-1.071.859-.853 1.569-1.139 1.569-.711 0 .358.501.711 1.072.711.572 0 1.067.357 1.067.785 0 .502.644.644 1.498.431 2.355-.644 3.497.213 3.497 2.425 0 2.492.424 2.563 4.348.282l3.14-1.711.854 1.571c.786 1.569.857 1.569 1.642-.499.426-1.145.568-2.641.353-3.351-.284-.715.144-2.499.788-3.994.852-1.716.996-2.712.499-2.854-1.358-.502-.142-3.351 2.421-5.777 1.358-1.211 2.712-2.283 3.14-2.283.36 0 .502-1.569.216-3.779-.5-4.776.639-6.558 4.203-6.345 3.852.282 4.065-1.143.572-4.207-2.425-2.069-2.993-2.927-2.563-4.137.28-1.001-.073-2.212-1.001-3.566-1.282-1.782-1.427-2.354-.643-3.992.57-1.358.57-2.068 0-2.641-.997-.996.357-2.425 2.998-3.136 2.563-.643 2.991-1.568.781-2.141-2.135-.499-2.35-1.711-.282-1.711 1.782 0 4.203-1.214 4.203-2.21 0-.357-.71-1.001-1.567-1.354-2.068-.93-4.351-2.354-4.919-3.069-.214-.286-.857-.501-1.429-.357-.64.142-.926-.282-.782-1.212.071-.856-.572-2.139-1.64-3.064-.929-.857-1.569-1.998-1.358-2.568.429-1.212-.495-1.997-1.64-1.283z" />
            <path
                d="M41.276 80.57c-1.424 2.281.786 5.419 9.132 13.263 2.421 2.282 4.061 4.494 4.061 5.491 0 .499 1.429 1.926 3.211 3.211 1.784 1.211 3.138 2.494 3.065 2.778-.357 1.498 2.425 8.703 3.566 9.127 1.997.644 7.276 10.128 7.7 13.692.145 1.711 2.284 4.853 5.493 8.06 1.071 1.072 1.924 2.213 1.924 2.57 0 .284 2.856 3.349 6.349 6.773 6.275 6.204 6.419 6.275 8.63 5.49 1.782-.568 2.492-.568 3.28.286.856.857.927 1.429.213 2.925-.928 1.997-2.069 2.565-2.069 1.067 0-1.067-.927-.071-1.138 1.216-.142.782.568 1.068 2.565 1.068 2.426 0 4.993 1.569 4.423 2.783-.073.21.994.639 2.497.996 1.495.286 3.35.786 4.132 1.138 2.496 1.145 3.783 1.432 4.207.93.859-.856 6.42 0 9.061 1.283 2.707 1.429 13.406 3.069 15.261 2.425.566-.286 1.067-.071 1.067.429 0 .428.428.71.93.501.424-.144 1.853.142 3.136.71 3.135 1.287 3.921 1.214 3.422-.428-.358-1.141-.145-1.283 1.071-.996.855.213 1.425.996 1.425 1.924.071 1.498.071 1.498 1.068.144.572-.788 1.071-1.072 1.071-.573 0 .429 1.212 1.001 2.708 1.216 1.431.28 3.355.711 4.138 1.068 1.001.357 2.854.286 4.993-.357 1.927-.502 3.065-.997 2.495-.997-.568-.071-.784-.286-.568-.501.286-.287.852-.213 1.353.215 1.425 1.067 3.921.925 4.918-.215.643-.786 1.072-.786 1.788-.213 1.638 1.353 11.62 1.424 15.969.142 2.142-.644 4.352-1.068 4.854-.997.566.067 1.353-.142 1.853-.572.428-.358 1.282-.429 1.782-.142.925.572 5.492-.071 6.277-.93 1.139-1.139-.714-1.354-7.278-.923-1.924.142-3.779-.145-4.137-.502-.353-.499-1.067-.071-1.993 1.212-.785 1.072-1.786 1.715-2.21 1.5-.93-.573-5.066-1.143-9.34-1.287-2.355 0-3.642.286-4.066 1.001-.501.783-.714.854-.714.144 0-.644-.502-.788-1.354-.502-.788.216-1.569.071-1.855-.357-.215-.357-.071-.71.353-.71.428 0 .572-.357.286-.786-.353-.572-.568-.572-.925 0-.571.857-3.211.715-4.066-.144-.927-.923-3.921-.499-4.349.644-.215.568-.784.925-1.354.71-.501-.213-1.001 0-1.212.501-.142.571-.643.429-1.5-.428-1.569-1.569-2.707-1.283-3.637.786-.357.852-1.067 1.566-1.569 1.566-1.138 0-1.209-1.138-.142-1.782 1.072-.714-1.997-2.711-3.28-2.21-1.495.57-3.211-.215-3.211-1.425 0-1.074-.144-1.14-4.991-1.282-2.354-.071-3.206-.358-3.421-1.287-.143-.926.144-1.139 1.211-.926 1.997.358 5.919-1 5.561-1.997-.142-.428-2.21-.641-5.275-.57-3.424.142-5.776-.215-7.203-.926-1.143-.572-2.281-.858-2.567-.643-.216.286-.855-.142-1.425-.857-.93-1.282-1.001-1.211-2.142.571-.927 1.353-1.71 1.784-3.135 1.569-1.072-.071-3.211-.216-4.78-.287-2.21-.071-3.065-.424-3.564-1.64-.431-.852-1.427-1.64-2.355-1.782-.925-.142-2.64-.71-3.923-1.353-1.354-.786-2.281-.93-2.497-.429-.139.5-.996.5-2.421.071-1.216-.286-2.498-.428-2.856-.215-.357.286-.499-.57-.213-1.997.213-1.281.5-4.776.715-7.7.357-7.273.852-8.699 2.567-7.774 1.569.785 4.206-.286 4.206-1.711 0-.572-.211-.572-.639.142-.429.644-.786.717-1.072.144-.287-.428-.358-1.072-.144-1.425.215-.357-.214-.787-.997-1-1.425-.358-1.711-.784-2.425-4.281-.571-2.35-1.924-2.421-4.279-.282-1.926 1.784-1.784 2.637.428 2.637.715 0 1.283.357 1.283.785 0 .502-.639.639-1.569.357-.925-.213-1.853-.428-2.139-.428-.353 0-.568-.357-.568-.785 0-.429-.5-1.212-1.072-1.782-.568-.644-1.068-2.069-1.068-3.209 0-1.711-.286-2.069-1.639-2.069-.93 0-2.284-.428-2.998-1-1.21-.853-1.283-1.139-.358-2.206 1.429-1.716 1.645-4.281.429-5.282-.571-.495-.853-1.424-.637-1.997.353-.852.137-1.067-.717-.71-.786.286-1.21.071-1.21-.57 0-.573-.785-1.212-1.786-1.498-.996-.213-1.784-.857-1.784-1.425 0-.93-.353-1.143-2.85-1.287-.572-.071-1.071-.71-1.071-1.496 0-.859-.568-1.498-1.425-1.64-.783-.142-1.782-.572-2.212-.929-.358-.287-1.354-.424-2.211-.214-1.067.287-1.64 0-1.997-1.067-.211-.859-.781-1.498-1.138-1.498-.358 0-.644-.357-.644-.785 0-.926-1.067-1.998-4.276-4.21-1.358-.923-2.925-2.139-3.426-2.634-.495-.502-1.283-.93-1.64-.93-.358 0-.64-.499-.64-1.068 0-.643-.357-1.497-.714-1.997-.428-.499-1.354-1.64-2.139-2.569-1.139-1.354-2.069-1.638-4.92-1.638-2.497 0-4.064-.431-5.137-1.354-1.711-1.502-3.207-1.711-3.851-.643zm123.014 87.429c0 .144-.495.282-1.068.282-.57 0-1.067-.282-1.067-.71 0-.358.497-.5 1.067-.287.573.287 1.068.573 1.068.715zM218.49 103.103c-.569 1-.997 3.069-1.07 4.638 0 1.495-.284 2.778-.715 2.778-.357 0-.213.357.358.786.714.499.787.858.286 1.067-.499.215-.644 1.072-.428 1.86.357 1.495.428 1.495.929.137.424-1.138.566-.996.566.715.074 1.711-.142 1.926-1.353 1.64-1.711-.429-2.426.428-1.782 2.283.501 1.782 4.638 2.497 4.638.857.071-.93.142-.93.781.144 1.425 2.421 1.853.495.572-2.212-1.855-3.709-1.282-5.28 1.567-4.279 2.856.994 3.209.428 1.072-1.64-1.715-1.64-1.715-1.711-.357-2.641 1.282-.925 1.926-4.422.783-4.422-.286 0-1.283.499-2.141 1.142-1.567 1.068-1.567.997-1.567-1.782 0-3.355-.784-3.708-2.139-1.071z" />
            <path
                d="M201.087 106.953c-1.638 1.711-3.207 2.783-3.921 2.57-.639-.216-3.637-.573-6.631-.859-3.069-.209-5.561-.71-5.561-.997 0-.714-2.568-1.353-3.355-.785-.353.215-.853 1.001-1.139 1.711-.286.714-.858 1.072-1.211.859-1.001-.644-3.564 2.281-3.564 4.065 0 .715-.287 1.281-.573 1.281-.357 0-.499.929-.286 2.068.144 1.216-.213 2.785-.857 3.779-.639.859-1.138 2.641-1.138 3.852 0 2.426-1.855 6.704-2.923 6.704-.357 0-.572.855-.357 1.926.142 1.139.357 2.493.357 3.136.067.788.568 1.072 1.711.859 1.425-.286 1.64 0 1.782 2.35.144 1.5-.142 4.279-.643 6.205-.997 4.136-.429 4.922 2.993 4.351 2.284-.43 2.497-.643 2.57-2.993.142-11.2.57-14.407 1.853-14.837 1.926-.639 2.354.215 1.354 2.711-.782 2.069-.639 2.426 1.216 4.066 1.495 1.425 1.853 2.212 1.495 3.28-.572 1.496.358 3.207 1.711 3.207.429 0 1.354-.64 2.069-1.425.643-.786 1.569-1.425 1.997-1.425.572 0 .499.428-.215 1.212-1.782 2.068-1.998 4.278-.5 5.632 1.287 1.143 1.429 1.143 2.783-.071.859-.781 1.283-1.782 1.068-2.565-.209-.644-.138-1.429.144-1.572.284-.21.57-1.568.57-3.137-.071-2.211-.286-2.639-1.354-2.497-1.566.286-3.211-1.782-2.782-3.493.215-.71-.64-2.922-1.853-4.991-1.785-2.853-2.069-3.85-1.427-4.635.43-.573 1.282-.997 1.784-.997.499 0 1.711-1.001 2.567-2.212 1.212-1.64 1.998-2.069 3.209-1.711 1.281.286 1.64.071 1.64-1.072 0-1.926-1.784-2.565-3.994-1.425-.926.499-2.852.997-4.281.997-1.782.071-2.994.643-3.921 1.786-1.283 1.569-3.495 1.64-3.495.071 0-.357-.637-1.358-1.496-2.21-1.138-1.145-1.425-1.998-1.067-3.708.71-3.642 1.353-3.851 10.407-3.214 12.126.788 14.265.717 14.265-.923 0-.43.783-1.784 1.784-3.069 1.068-1.425 1.638-2.852 1.354-3.566-.639-1.64-.997-1.496-4.139 1.711zM223.125 132.484c-1.138.144-2.354.643-2.64 1.067-.424.644-.566.644-.566 0 0-.639-.502-.495-1.429.287-1.711 1.429-1.856 2.711-.356 2.068.784-.286 1.07.071 1.07 1.287 0 1.64.142 1.711 2.497.925 1.353-.428 2.492-1.211 2.492-1.711 0-.787.286-.787 1.429-.215.854.428 2.07.573 2.78.357.786-.213 2.426.216 3.78 1.068 2.998 1.855 3.422 1.784 3.422-.213 0-3.637-5.349-5.706-12.479-4.92zM212.001 166.428c-.142.142-2.21.499-4.565.785-2.994.287-4.638.859-5.348 1.782-.57.788-2.568 1.998-4.423 2.856-2.068.926-3.493 2.069-3.85 3.065-.215.857-.925 2.068-1.496 2.783-.787.854-.787 1.282-.215 1.64 1.496.925 6.205-1.216 8.77-3.853 1.429-1.495 3.85-3.067 5.637-3.635 3.99-1.287 8.554-4.136 8.055-4.995-.424-.71-1.997-.925-2.565-.428zM241.309 118.364c-1.354.785-2.852 1.711-3.351 2.068-.568.499-.996.499-1.283.071-.501-.781-3.209-.997-3.209-.286 0 1.216 3.138 4.567 4.277 4.567 1.997 0 3.566.785 3.566 1.782 0 2.068 2.425 3.069 6.633 2.782 2.994-.215 4.065-.142 3.708.424-.286.502-1.212.644-2.139.431-.997-.287-1.997 0-2.495.641-.499.644-1.5.925-2.139.715-1.429-.429-3.568.21-3.568 1.14 0 .357.785.997 1.786 1.354.997.357 1.782 1.143 1.782 1.782 0 .572.353 1.072.781 1.072.358 0 .502.357.287.71-.644 1.072.357 3.641 1.14 3.142.429-.215 1.214 0 1.787.499.566.424 1.282.64 1.495.353.287-.286.145-.71-.286-.996-.499-.357-.643-.93-.213-1.496.499-.859 1.001-.788 3.207.209 1.429.714 3.213 1.788 3.923 2.354.715.644 2.281 1.287 3.426 1.358 2.779.353 13.335 5.419 13.264 6.345-.073.357.353 1.358.852 2.139.573.786 1.001 1.926 1.001 2.641 0 .71.215 1.283.568 1.283.287 0 .5 1.142.571 2.496 0 1.926-.213 2.497-1.21 2.497-1.358 0-4.924 4.562-4.924 6.273 0 1.001 6.42 1.001 7.208-.071.208-.286 1.495-.712 2.849-.854 2.284-.287 2.712-.071 5.133 3.135 2.641 3.422 2.712 3.495 6.562 3.495 2.212-.073 4.136.143 4.423.358.215.284.996.142 1.711-.215 1.067-.569 1.211-.498.996.714-.142.781-.495 1.782-.71 2.139-.215.431-.142.711.215.711.852 0 1.567-1.711 1.567-3.635 0-.711.357-1.354.71-1.354.43 0 .717-.502.717-1.141 0-.57.284-.927.641-.714.357.215.639-.358.639-1.283 0-2.854 5.211-6.562 6.848-4.851.287.286 1.711.859 3.138 1.216 1.567.424 2.925 1.354 3.351 2.35.357.857.928 1.567 1.214 1.567.357 0 .572.572.572 1.358 0 .71.495 1.711 1.068 2.212.572.495.856 1.139.643 1.496-.215.357.142.644.711.644.643 0 1.287.781 1.566 1.711.287 1.282 1.216 1.926 3.713 2.636 1.855.499 4.347.856 5.49.785 1.212 0 2.852.429 3.708.997 1.855 1.143 7.059 1.358 7.703.286.286-.428.215-.71-.142-.639-.286.067-1.074.067-1.64 0-.859-.071-.859-.215-.144-.644.639-.428 0-.929-1.998-1.566-2.567-.859-3.921-2.142-2.139-2.142 1.64 0 .573-1.358-1.209-1.566-1.645-.145-1.927-.502-1.789-1.927.215-1.573.073-1.644-1.853-1.287-1.926.431-2.135.216-3.064-2.563-.573-1.644-2.213-4.136-3.638-5.568-1.495-1.424-2.711-3.277-2.711-4.061 0-1.284.43-1.571 2.498-1.571 1.924 0 2.497-.282 2.497-1.282 0-1.496-2.355-3.922-3.995-4.137-.643-.071-1.64-.639-2.281-1.212-.717-.57-2.07-1.213-3.067-1.495-1.571-.358-1.786-.715-1.5-2.213.144-.998.573-1.782.93-1.782.357 0 .643-.499.643-1.142 0-.997-.215-.997-1.071-.287-.926.786-1.354.644-2.499-.568-.781-.856-1.425-1.853-1.425-2.281 0-.431-.286-.644-.643-.357-.353.213-1.139-.145-1.711-.715-.639-.568-1.711-1.07-2.492-1.07-.786 0-1.782-.499-2.284-1.067-.428-.57-2.641-1.5-4.851-2.139-2.279-.644-5.348-1.926-6.915-2.783-1.569-.925-3.28-1.498-3.708-1.354-.501.213-.93 0-.93-.357s-1.353-.859-2.922-1.141c-1.638-.284-5.137-1.642-7.772-3.069-4.496-2.352-4.995-2.496-6.992-1.566-1.212.499-2.35 1.495-2.492 2.21-.215.783-1.072 1.283-2.213 1.283-1 0-1.853.286-1.853.572 0 .357-.572 1.283-1.211 2.139-.715.782-1.787 2.14-2.355 2.923-.57.856-1.711 1.496-2.567 1.496-1.212 0-1.711-.64-2.426-3.422-.497-1.853-1.069-2.923-1.212-2.421-.499 1.282-1.639.281-1.639-1.503 0-1.28.144-1.424.783-.495.641.855.714.782.284-.357-.284-.785-.566-2.641-.71-4.136-.357-3.28-.928-4.281-2.139-3.78-.5.142-2.069-.286-3.493-1.071-3.14-1.64-4.352-1.64-7.563.071zM294.224 181.975c-.357.499-.925 1.711-1.212 2.712-.284.994-1.142 2.849-1.997 4.136-.785 1.354-1.5 3.708-1.638 5.275-.144 1.569-.572 3.28-1 3.779-.358.502-.855 2.927-1.068 5.42-.43 5.419-2.856 13.263-4.709 15.332-.785.787-1.353 1.782-1.353 2.212 0 1.425-2.213 3.069-3.995 3.069-1.143 0-2.783-1.072-4.565-2.856-1.569-1.567-3.422-2.849-4.136-2.849-.712 0-1.784-.786-2.279-1.782-.502-1.001-1.358-1.789-1.86-1.789-.566 0-1.138-.781-1.424-1.782-.5-1.924-1.711-2.421-1.711-.71 0 .71-1.283-.142-3.493-2.21l-3.493-3.351 1.424-1.502c.786-.853 1.711-2.206 2.069-3.136.357-.93.996-1.425 1.424-1.21.429.28.573.924.358 1.425-.358.925 2.212 1.997 3.28 1.354.57-.358.286-3.708-.424-4.423-.216-.211-.859.071-1.503.573-.925.785-1.067.641-1.067-.997 0-1.001.357-1.784.781-1.711.431.142 1.573-1.216 2.57-2.998 1.425-2.636 1.496-3.28.714-3.923-.572-.357-.858-1.139-.714-1.64.213-.428 0-.857-.428-.857-.427 0-.784.287-.784.644 0 .357-.643.785-1.496 1.001-1.071.281-1.358.142-1.071-.644.499-1.354 0-1.283-2.426.57-1.64 1.212-2.35 1.354-2.993.713-.502-.497-1.569-.855-2.426-.855-.925 0-2.068-.428-2.57-.929-.495-.566-1.353-.853-1.853-.64-.426.14-.854-.357-.854-1.071 0-1.068-.142-1.139-.715-.213-.639.927-.852.927-1.495-.216-.431-.639-.997-1.067-1.425-.852-.359.284-.644-.215-.644-1.001 0-1.282-.215-1.353-1.784-.783-.996.357-1.782.426-1.782.215 0-.286-.357-.142-.856.353-.997 1.001.499 3.069 1.853 2.57 1.358-.502 2.068 1.782 1.001 3.064-.644.857-1.854.999-4.638.715-2.14-.215-3.78-.073-3.78.284 0 .359-.357.644-.852.644-1.287 0-4.78 4.276-4.423 5.348.214.572-.286 1.282-1.067 1.782-.859.43-1.502 1.14-1.502 1.569 0 .499-.71 1.569-1.567 2.496-1.283 1.354-1.427 1.855-.639 2.284 1.64 1.067.138 2.139-2.499 1.782-1.425-.143-3.069.071-3.564.497-.859.714-.93.643-.572-.353.286-.715 0-1.287-.715-1.574-.639-.21-1.138-.854-1.138-1.353 0-.573-1.001-1.711-2.213-2.57-2.068-1.425-2.354-1.496-3.135-.424-.5.639-1.001 1.068-1.143.855-.784-.711-4.92-1.068-4.92-.358 0 .358.357.715.71.715.431 0 .717.714.717 1.567-.073 1.568-.073 1.64-1.07.286-1.001-1.283-1.072-1.283-1.072-.142 0 .929-.357 1.143-1.424.785-1.21-.357-1.425-.142-1.425 1.498 0 1.068-.215 1.782-.428 1.567-.788-.781-4.139 3.14-4.281 4.995-.071 1.068-.215 2.206-.215 2.563-.071.287-1.21.358-2.634.074-1.645-.287-2.426-.216-2.142.284.286.357.144.858-.284 1.145-.501.281-.501.852 0 1.853.499.781.499 1.353.071 1.353-.357 0-.788.573-1.001 1.212-.144.714-.568-.073-.854-1.784-.286-1.638-.786-2.992-1.001-2.992-.284 0-1.711 1.21-3.136 2.708-2.068 2.068-2.64 3.282-2.64 5.208 0 1.926-.637 3.207-2.281 5.062-1.283 1.425-2.923 3.351-3.638 4.423-1.782 2.563-5.204 4.203-9.198 4.347-1.997.071-3.921.57-4.705 1.285-.714.639-2.139 1.211-3.14 1.211-.996 0-2.21.5-2.707 1.072-.644.781-1.782.997-3.637.781-1.571-.142-2.925 0-3.211.358-.215.357-.855.643-1.425.643-.572 0-2.068.926-3.351 2.068-1.216 1.212-3.426 2.637-4.851 3.28-1.427.71-2.993 2.069-3.566 3.136l-.857 1.855-.426-2.141c-.357-1.711-.57-1.924-1.142-1.068-1.782 2.712-2.493 4.638-2.493 6.562 0 1.141-.787 3.28-1.786 4.705-2.137 3.138-2.137 3.779-.497 9.198 1.64 5.353 1.283 8.06-.573 4.066l-1.28-2.779-.715 1.782-.716 1.784-.782-1.784c-.714-1.567-.785-1.358-.428 1.354.213 1.711.93 4.065 1.496 5.206.643 1.214 1.216 3.779 1.358 5.847.144 1.998.497 4.565.71 5.777.286 1.143.502 3.069.431 4.278 0 1.141-.145 5.992-.216 10.628-.142 6.058-.499 8.628-1.067 8.77-.502.215-.93 1.067-.93 1.926 0 2.139-1.926 4.709-3.637 4.709-.857 0-1.638.71-2.068 1.853-.997 2.565-.923 3.135.643 3.135.784 0 1.569.573 1.782 1.283.573 1.711 2.852 2.783 6.988 3.284 3.211.353 6.991-.572 6.991-1.715 0-.568 2.279-1.498 4.347-1.782.643-.073 1.784-.783 2.57-1.569 1.782-1.782 6.915-2.492 15.332-2.068l6.133.357 3.136-3.209c1.64-1.711 3.637-3.14 4.281-3.14.643 0 1.353-.282 1.566-.639.216-.357 1.287-.856 2.355-1.143 1.141-.215 2.57-.925 3.209-1.569.856-.781 1.924-.923 3.564-.641 2.354.428 12.196-1.784 13.763-3.138.43-.357 3.708-.852 7.349-1.138 6.201-.502 6.702-.429 8.342 1.138.928.859 2.139 1.425 2.639 1.283.501-.211 2.141.428 3.566 1.358 1.496.854 3.065 1.64 3.564 1.64.643 0 .643.213 0 .852-1.21 1.216-1.068 3.426.144 3.426 1.638 0 2.426 6.487.928 7.417-1.001.639-.857.996 1.14 2.778 2.282 1.997 2.282 1.997 2.497.431.286-1.785 4.846-6.349 6.344-6.349.571 0 2.497-1.425 4.279-3.207 1.784-1.784 3.422-3.065 3.708-2.781.215.282 0 .64-.428.784-.497.213-.926.927-.926 1.64 0 .714-.856 1.782-1.853 2.496-1 .644-2.283 2.284-2.856 3.637-.566 1.354-1.782 2.783-2.634 3.069-.93.353-2.068 1.21-2.641 1.924-.996 1.141-.925 1.212.715.782.996-.284 2.354-.5 3.065-.5.714 0 1.926-1.138 2.711-2.492.853-1.358 1.782-2.499 2.14-2.499 1.424 0 .497 3.567-1.5 5.564-2.351 2.354-2.138 3.136.714 2.567 1.64-.357 2.068-.071 2.854 1.927.854 2.068.854 2.563-.428 4.846-1.216 2.213-1.354 2.927-.644 4.995.501 1.354 1.569 2.708 2.426 2.994.783.357 1.497.857 1.497 1.21 0 .357 1.281.643 2.925.643 1.64 0 3.136.357 3.422.715.215.428 1.141 1.067 1.997 1.568 1.354.715 2.14.571 4.991-.929 1.853-.997 3.564-1.569 3.779-1.283.216.286 1.569 1.145 3.069 1.855 1.425.786 2.637 1.853 2.637 2.426 0 .852.284.852 1.496-.287 4.136-3.708 11.694-7.416 15.403-7.416 4.566 0 8.703-2.283 8.774-4.78 0-.495.785-1.711 1.782-2.778 1.001-1.072 1.784-2.284 1.784-2.783 0-.428 1.425-2.139 3.207-3.779 1.786-1.64 4.78-4.849 6.562-7.13 4.351-5.419 7.844-8.775 11.124-10.486 1.429-.781 2.641-1.782 2.641-2.21 0-.426.852-1.713 1.995-2.923 3.209-3.492 4.423-5.203 4.423-6.062 0-.499.712-1.997 1.64-3.351 4.065-6.205 6.344-10.412 6.63-12.48.213-1.212.857-3.422 1.429-4.991 1.139-2.927.782-4.638-.357-1.782-.357.923-.714 1.353-.714.996-.071-.783 1.209-5.847 1.853-7.487.215-.568.357-1.354.286-1.64-.071-.357.572-1.64 1.354-2.994.785-1.287 1.429-2.927 1.358-3.637 0-1.001-.142-1.072-.429-.284-1.071 2.92-3.779 3.422-3.779.637 0-.71-.286-1.354-.643-1.354-.358 0-.786-.996-.997-2.139-.286-1.21-.93-2.139-1.5-2.139-.568 0-1.14-.71-1.283-1.64-.144-.852-.643-1.496-1.14-1.354-.786.142-.857-.714-.428-3.85.428-3.852.428-4.066-1.001-3.708-.926.286-1.64 0-1.853-.644-.353-.925-.639-.925-1.569-.142-.926.786-1.068.499-.926-1.997.145-1.784-.284-3.637-1-4.776-1.496-2.212-1.496-2.569-.142-2.569.714 0 1-.573.785-1.64-.142-.857-.643-1.496-1.143-1.354-1.211.282-5.634-2.783-6.129-4.279-.215-.714-.786-1.071-1.429-.787-.497.215-.996 0-.996-.499 0-.424-.287-.64-.644-.424-1.067.71-2.425-1.64-2.068-3.498.215-.996.071-1.993-.286-2.208-.282-.215-.353-.714-.142-1.143.856-1.353.286-7.201-.784-8.412-1.072-1.143-1.209-8.775-.142-10.415.286-.499-.286-1.353-1.425-2.068-1.711-1.138-1.784-1.354-.714-2.139.856-.644 1.001-.997.357-1.64-.501-.499-1.354-.857-1.926-.786-.786 0-.715.216.286.644 1.425.643 1.425.643 0 .714-.785.142-1.64.142-1.926.071-.357 0-.57.216-.57.64 0 .357-.502.714-1.141.714-.857 0-1.001-.714-.857-3.564.143-2.641.5-3.495 1.139-3.213.714.286.93-.353.859-2.35-.074-1.429-.074-2.783 0-2.998.499-1.496.499-2.85-.074-2.85-.714 0-.923 1.425-.714 4.92.144 1.425-.071 2.21-.495 1.924-.428-.213-.644-.996-.501-1.711.073-.643-.143-1.567-.5-1.997-.71-.996-.501-2.497.5-3.351.43-.357.215-.499-.5-.213-1.211.357-3.064-1.782-2.283-2.641.215-.215.215-1.353-.071-2.563-.497-2.283-1.782-2.856-3.065-1.358zm-168.443 95.776c0 .568-.142 1.067-.282 1.067-.142 0-.428-.499-.715-1.067-.213-.573-.071-1.072.287-1.072.428 0 .71.499.71 1.072zm135.496 72.736c-.5.644-1.068.926-1.21.788-.501-.502.495-1.855 1.354-1.855.428 0 .428.426-.144 1.067zM251.007 366.392c-.997 1.497-1.998 4.065-2.135 5.705-.216 1.567-.715 3.564-1.145 4.347-.429.857-.711 2.783-.571 4.279.142 2.498.358 2.856 2.211 3.213 2.212.424 6.921-1.358 6.921-2.57 0-.499.357-.499.923 0 .715.573 1.425.287 2.856-1.282 1.068-1.072 1.924-2.497 1.924-3.14 0-.64.568-1.139 1.354-1.139.859 0 1.64-.643 1.926-1.64.286-.859 1.21-2.712 2.139-4.136 2.213-3.493 1.283-4.281-3.493-2.927-6.275 1.711-6.491 1.711-7.988.357-.786-.781-1.711-1.496-2.14-1.711-.357-.142-.643-.714-.499-1.209.357-1.503-.286-.93-2.283 1.853z" />
        </g>
    </g>
</svg>