<svg stroke-width=".501" stroke-linejoin="bevel" fill-rule="evenodd" xmlns="http://www.w3.org/2000/svg"
    overflow="visible" viewBox="0 0 384 384">
    <g fill="none" stroke="#000" font-family="Times New Roman" font-size="16">
        <g fill="#000" stroke-linejoin="miter" stroke="none" stroke-width=".041" stroke-miterlimit="79.84">
            <path
                d="M116.918 56.034c-2.815.703-3.022.785-2.069 1.159.785.332.785.373-.083.373-1.366.041-1.573.827-.498 1.945 1.035 1.075 1.862 1.283 2.152.456.166-.415.25-.415.25 0 .041.288.331.537.661.537.332 0 .622-.249.622-.537 0-.331.124-.331.371.081.207.331.663.456 1.036.331.371-.165 1.489 0 2.441.332 1.904.62 7.739 1.449 10.513 1.449 1.861 0 2.812-.746 1.407-1.117-.498-.124-.872-.539-.872-.954 0-.951-.992-1.281-4.22-1.489-3.269-.207-4.22-.497-3.682-1.159.33-.372-.207-.622-2.153-1.034-4.056-.829-4.138-.829-5.876-.373zM143.778 65.015c-1.118.497-1.573 1.615-.951 2.36.371.494.122.578-1.408.578-1.034 0-1.945.166-2.027.373-.043.208-.831.498-1.699.622-1.159.164-1.491.122-1.284-.207.416-.706-7.614-.125-8.317.62-.29.289-1.822.663-3.352.785-1.532.166-3.228.581-3.767.955-.62.369-1.408.535-2.027.412-.581-.166-.993-.084-.993.166 0 .207-.29.414-.622.414-.33 0-.62.329-.661.702 0 .456-.125.54-.25.208-.29-.745-1.654-.622-1.945.166-.165.371-.123.827 0 .952.166.123.374 0 .455-.249.124-.373.415-.373 1.159.124.538.332 1.283.58 1.697.498.374-.084.786.121.87.371.248.663-3.022.746-3.395.124-.124-.249-.577-.413-.951-.413-.578 0-.578.082-.124.371.868.54-.413.827-4.471.952l-3.476.083 1.201.951c.663.54 1.615 1.367 2.068 1.823.54.537 1.657.951 2.817 1.076 1.034.124 1.902.371 1.902.579 0 .166.332.414.744.497.374.125.083.207-.661.248-.785 0-1.903-.207-2.484-.538-.993-.537-3.56-1.118-7.78-1.779-.827-.125-1.448.042-1.778.454-.499.581-.415.663.412.705 1.075.042.829.165-1.035.579-1.159.248-1.159.29-.37.827.412.289 1.446.745 2.234.995 1.364.453 1.364.453-.581.287-2.027-.166-3.145-.993-3.186-2.359 0-.743-1.696-2.439-2.401-2.439-.291 0-.869-.249-1.325-.499-.578-.372-.91-.414-1.28-.041-.332.332-.084.581.868.911.744.248 1.53.331 1.779.166.207-.125.289-.043.125.207-.125.249-.084.536.164.702.745.457.416.952-.826 1.243-.664.165-1.242.538-1.242.827 0 .289-.207.622-.498.704-.249.084.58.703 1.906 1.366 2.234 1.118 2.315 1.241 2.069 2.523-.207 1.076-.083 1.449.62 1.906.497.288.868.786.868 1.117 0 .455.622.496 3.022.33 2.565-.208 2.772-.166 1.407.207-2.111.581-2.36 1.408-.869 2.608.951.786 1.117 1.077.705 1.489-.291.29-.539.954-.539 1.449 0 .705-.333.993-1.242 1.2-.744.166-1.243.54-1.243.911 0 .497-.289.58-1.324.373-.744-.125-1.53-.457-1.778-.703-.291-.29-.208-.332.248-.166.454.166.868-.208 1.408-1.449.412-.911.868-1.656 1.034-1.656.205 0 .289-.621.247-1.364-.042-1.159-.288-1.45-1.778-2.111-.993-.415-1.779-.996-1.779-1.242 0-.249-.416-1.117-.913-1.906-.496-.785-.951-1.778-1.034-2.193-.166-1.034-1.077-1.862-2.4-2.193-.786-.205-.952-.412-.662-.703.619-.62.539-1.986-.124-2.896-.414-.539-1.45-.871-3.436-1.076-1.695-.208-2.235-.374-1.367-.415 1.367-.082 1.408-.082.665-.663-1.035-.786-4.138-.869-3.892-.122.125.288-.041.785-.371 1.075-.29.288-.54 1.281-.54 2.152 0 1.406-.164 1.737-1.241 2.277-1.53.786-1.612 1.737-.207 2.276.788.288 1.034.703 1.034 1.613 0 1.324.913 2.317 1.781 1.986.332-.122 1.118.166 1.779.581.664.453 1.614.993 2.152 1.2.913.371 1.2 1.035.622 1.367-.208.121-1.615-.332-3.228-.996-4.182-1.696-4.885-1.613-2.981.372.829.87 1.532 1.74 1.532 1.945-.083 1.45-4.595 4.637-8.774 6.21-1.075.412-2.152.951-2.401 1.242-.289.33.291 2.027 1.904 5.628 2.359 5.214 3.435 9.849 3.476 14.527 0 2.483.581 3.972 2.111 5.38 2.152 1.985 1.159 5.297-1.613 5.297-.664 0-1.532.373-1.947.826-.703.747-.703.83.249 2.03.539.662 1.45 1.904 2.028 2.689 1.408 1.986 2.774 1.986 4.51.041 1.615-1.861 2.899-1.902 3.933-.166.662 1.077.662 1.533.249 3.188-.415 1.781-.415 1.988.371 2.566 2.733 2.028 2.733 2.028 2.193 2.401-.702.497.166 1.242 2.277 1.945 2.774.95 2.111 3.351-.827 2.981-1.118-.166-1.655-.042-1.82.37-.291.747-1.284.747-2.028-.041-.374-.329-.996-.62-1.449-.62-.415 0-.786-.207-.786-.456 0-.33-.622-.412-1.988-.207-1.489.207-2.564.041-4.428-.662-2.689-.951-7.781-1.2-8.608-.372-.248.248-1.408.456-2.525.456-1.159 0-2.813.207-3.681.455-1.533.413-1.533.413-1.284 2.153.33 2.193.744 2.978 2.523 4.964 1.118 1.242 1.366 1.865 1.283 3.023-.083 1.199.124 1.655 1.035 2.316.622.455 1.117 1.079 1.117 1.366 0 .747 1.407 1.159 2.899.829.951-.207 1.325-.082 1.861.786.662.952 1.2 4.924.622 4.594-.124-.083-1.201-.249-2.36-.372-1.905-.167-2.151-.084-2.565.868-.25.539-.374 1.2-.25 1.407.166.208-.331.374-1.034.374-1.159 0-1.242.082-.827.827.248.455.702.826 1.034.826.332 0 .911.54 1.325 1.243.371.661.868 1.242 1.034 1.242.167 0 .33.373.33.868 0 .539.166.747.497.539.249-.166.662 0 .911.33.29.374.952.747 1.49.829 1.408.167 1.614.579 1.366 2.44-.123.913-.082 1.615.166 1.615.661 0 1.863 2.525 1.613 3.436-.29 1.2.662 3.02 1.45 2.854.495-.083.578.207.453 1.242-.163 1.035-.082 1.242.456 1.035 1.034-.371 1.82.995 2.277 3.849.249 1.491.536 2.979.661 3.311.207.54-.33.786-2.564 1.367-3.394.785-4.968.494-7.327-1.367-.868-.703-1.986-1.241-2.484-1.241-1.239 0-2.276-1.243-2.564-3.104-.165-1.075-.083-1.656.329-1.861.333-.25.54-1.159.581-2.359 0-1.906.041-1.989 1.159-1.989.62.041 1.118-.164 1.118-.412 0-.291-.581-.374-1.366-.291-1.986.207-10.39-4.097-13.947-7.161l-2.69-2.357-2.236.247c-1.986.248-2.442.124-4.138-.952-1.034-.661-2.567-1.324-3.352-1.488-.788-.166-2.071-.622-2.815-1.079-1.035-.578-1.572-.661-2.442-.328l-1.077.412.952.995c.498.537 1.988 1.488 3.272 2.11 1.779.869 2.564 1.53 3.103 2.648 1.407 2.899-.415 4.14-6.168 4.345-2.193.082-3.93-.041-3.93-.246 0-.207-.539-.374-1.201-.374-.704 0-1.366-.207-1.49-.414-.166-.248-.621-.33-1.035-.208-.536.165-.91-.04-1.242-.62-.33-.62-.702-.786-1.325-.577-.619.162-1.075 0-1.529-.54-.622-.744-.952-.786-4.058-.537-3.311.33-5.791 1.282-6.992 2.73-.332.415-1.159.456-3.436.208-3.064-.29-4.303.082-3.268 1.118.993.993-.581 1.571-4.429 1.653-2.03.041-3.767.249-3.85.456-.082.25-.415.291-.744.166-.332-.123-.581 0-.581.249 0 .247.291.454.622.454.371 0 .621.374.621 1.035 0 .951.331 1.2 1.531 1.075.249-.041.412.25.33.664-.041.413 0 .91.166 1.16.124.207.248.785.331 1.241.042.453-.041.578-.124.287-.373-.826-1.284-.535-1.2.415.041.621.497 1.077 1.49 1.409.786.287 1.159.536.869.536-.414.041-.414.207 0 .951.29.54.702 1.077.91 1.201.166.166 0 .498-.413.747-.829.453-.663.537 1.282.578.663 0 .704.041.124.166-.413.124-.744.374-.744.62 0 .207.29.332.62.166.331-.125.622-.043.622.166 0 .248.29.414.619.414.333 0 .622-.207.622-.457 0-.66 1.945-.082 2.897.87.622.622 1.283.829 2.483.745 1.615-.123 1.862-.414 1.699-1.904-.167-1.198 3.186-.123 5.089 1.656 1.242 1.118 4.677.703 5.753-.745.868-1.116 1.571-1.241 2.772-.497.622.415.951.374 1.656-.291 1.034-.909 1.612-.536.662.457-.496.456-.578.827-.289 1.117.246.25.246.744.039 1.325-.205.496-.205 1.077-.039 1.284.496.536.868 3.31.496 3.722-.537.623-2.028 5.176-2.525 7.657-.496 2.566-1.405 3.725-2.938 3.725-.54.042-1.615.125-2.318.208-1.2.166-1.367.373-1.367 1.449 0 1.986.83 4.758 1.699 5.709.412.457.786 1.118.786 1.407 0 .624 2.979 4.017 3.518 4.017.124 0 .536-.291.868-.622.374-.329.993-.62 1.449-.62.414 0 .786.291.786.62 0 .331.207.622.414.622.25 0 .414.205.414.412 0 .249.331.789.745 1.242.371.415 1.077 1.491 1.531 2.359.455.87 1.159 1.945 1.573 2.401.993 1.077 2.07 3.104 1.779 3.393-.371.374 1.118 2.61 1.699 2.61.33 0 .66.287.785.619.165.331.456.497.702.331.207-.123.291-.041.166.166-.166.248.083.911.54 1.489.453.581.827 1.324.827 1.656 0 .371.207.786.456.952.288.166.37.868.207 1.82-.166 1.159-.083 1.698.412 2.111.332.289.54.87.457 1.282-.166.499.124.993.743 1.408.581.373 1.118.952 1.243 1.325.083.412.744 1.077 1.408 1.53.66.415 1.159.913 1.075 1.076-.124.125.291.457.827.705.786.371 1.035.786 1.035 1.779 0 .788.29 1.532.744 1.863.373.289.705.704.705.911 0 .207.703 1.075 1.571 1.903.83.869 1.533 1.82 1.533 2.152 0 .331.166.58.373.58.208 0 .579.578.827 1.323.456 1.284.456 1.284-.373.539-.454-.414-.703-.91-.578-1.076.124-.208-.083-.249-.456-.124-.413.166-.62.082-.537-.291.082-.287-.208-.62-.581-.702-.537-.084-.661.041-.495.62.205.704.205.704-.373 0-.332-.413-.745-.579-.828-.371-.29.412 1.944 3.889 2.277 3.559.371-.332 2.11 1.53 2.193 2.275 0 .372.166.87.288 1.078.331.578 1.739 5.255 1.781 5.999.124 1.986.702 2.816 2.151 3.103.828.125 1.655.084 1.904-.163.207-.208.622-.29.91-.208.29.125 1.159-.373 1.905-1.034.911-.87 1.821-1.284 2.689-1.284 1.408 0 4.099-.993 4.512-1.656.123-.207.87-.412 1.656-.412.993 0 1.612-.29 2.234-1.075.537-.706 2.029-1.492 4.263-2.277 4.013-1.449 5.96-2.526 5.794-3.27-.248-1.117.412-1.989 2.111-2.691 3.227-1.325 3.642-1.449 5.006-1.449 1.533 0 2.155-.537 2.402-2.069.082-.786.415-1.076 1.365-1.159 1.533-.208 2.277-.786 2.277-1.779 0-.909 1.49-2.027 2.733-2.027.785 0 .868-.207.827-2.525-.042-2.691.414-3.394 1.49-2.276.537.536.703.494 1.24-.125.622-.744.538-1.861-.122-1.449-.705.415-.374-.619.619-1.778 1.2-1.451 2.318-3.603 2.318-4.471 0-.373-.373-.622-.868-.622-.498 0-.952-.329-1.076-.827-.124-.454-.374-.826-.581-.826-.208 0-.371-.209-.371-.458 0-.868-1.324-1.737-3.23-2.068-3.723-.703-5.546-3.021-5.546-7.037 0-2.564-.496-3.061-1.364-1.322-.87 1.654-5.753 6.622-6.333 6.414-.289-.082-.496 0-.496.208 0 .205-.663.287-1.449.205-.786-.08-1.449-.33-1.449-.537 0-.208-.166-.374-.412-.374-.207 0-.415.25-.415.581 0 .952-.828 1.2-1.616.496-.412-.371-.95-.661-1.239-.661-.332 0-.415-.291-.166-.952.455-1.325.166-4.967-.415-5.338-.993-.622-1.49-.291-1.986 1.321l-.497 1.658-.785-1.118c-.829-1.325-.952-1.781-.333-1.781.249 0 .415.291.415.663 0 .332.207.496.415.374.703-.456.454-1.532-.415-1.739-.456-.125-.868-.373-.868-.578-.043-.208-.084-.54-.125-.788 0-.205-.415-.662-.868-.993-.457-.33-.829-.828-.829-1.159-.043-.289-.248-.496-.537-.455-.291.084-.499-.041-.499-.249 0-.207-.371-.539-.827-.663-.456-.122-.826-.537-.826-.869 0-.329-.167-.578-.333-.578-.578 0-2.193-3.975-1.902-4.802.165-.497.124-.619-.125-.289-.248.331-.581.373-.952.123-.539-.331-.539-.412 0-.412.371 0 .952-.331 1.326-.746 1.364-1.409 1.819-1.655 2.564-1.242.373.207.993.291 1.407.166.498-.166.993.207 1.654 1.118.499.745.913 1.573.913 1.822 0 .246.166.537.371.619.207.042.912 1.035 1.533 2.152.868 1.449 1.615 2.111 2.649 2.485.785.289 1.986.993 2.646 1.612.665.622 1.492 1.117 1.865 1.117.537 0 .537.083.121.373-.412.249-.121.415.913.622.827.164 1.406.455 1.283.703-.165.208-.041.374.164.374.25 0 .457-.207.457-.415 0-.291.29-.291.827 0 .456.249 1.034.331 1.282.208.208-.167 1.077-.374 1.904-.458 1.656-.207 2.733-.868 2.359-1.448-.329-.579 1.408-.413 1.781.124.167.29.537 1.283.745 2.194.538 2.029 2.109 2.899 5.96 3.311 3.104.331 4.387.538 5.833.87 1.781.454 5.383.537 5.383.167 0-.167.743-.249 1.654-.125.993.163 1.656.083 1.656-.208 0-.248.537-.289 1.489-.082.829.207 2.649.166 4.182-.084 3.062-.456 3.848-.29 3.848.911 0 .539.29.827.785.827.497 0 .871.414 1.078 1.117.33 1.408 1.364 2.608 2.194 2.608.329 0 1.159.54 1.778 1.242 1.696 1.737 3.394 2.525 5.006 2.236 1.284-.208 1.325-.208.581.414-.827.661-1.49.827-2.815.702-.413-.041-.745.125-.745.415 0 .785 5.712 6.166 6.498 6.166 2.152-.083 5.258-2.896 4.304-3.848-.412-.415-.123-1.947.373-1.947.166 0 .207.457.083 1.034-.083.623 0 1.035.291 1.035.289 0 .371.208.248.415-.166.249.041.993.371 1.737.456.871.581 1.782.415 2.732-.166.786-.083 2.07.166 2.897 1.075 3.767 1.861 6.663 2.359 8.859.288 1.28 1.242 3.682 2.069 5.379.869 1.654 1.903 3.682 2.277 4.47.412.786 1.034 2.522 1.366 3.889.371 1.325 1.28 3.352 2.068 4.552 1.53 2.277 3.599 7.162 3.599 8.404 0 1.075 2.235 4.511 3.313 5.089 1.198.622 2.689-.332 3.02-1.986.291-1.325 1.738-1.986 3.27-1.491.62.166.786.084.661-.29-.124-.33-.453-.578-.786-.578-.66 0-.66-.332-.207-1.986.249-.828.622-1.118 1.367-1.118.91 0 .992-.125.744-1.2-.412-2.027-.371-5.338.125-5.919.663-.786.704-4.179.082-7.366-.785-4.429-.578-5.629 1.076-5.217.785.208 1.035.084 1.242-.785.124-.579.498-1.035.827-1.035 1.408 0 2.649-.992 2.649-2.152 0-.622.167-1.159.374-1.159.662 0 4.799-4.179 6.124-6.206.703-1.078 1.986-2.277 2.899-2.692.868-.455 1.986-1.241 2.523-1.738.95-.87 1.034-1.364.829-3.392-.084-.539.164-1.117.495-1.283.332-.166 1.035-.499 1.573-.788.745-.371.993-.371 1.159.125.247.622 1.82.538 4.056-.167.661-.247 1.695-.412 2.276-.412 1.449-.042 3.145-1.366 2.812-2.194-.121-.372-.079-.787.084-.91.207-.083.456.205.581.661.124.499.415.745.619.62.456-.288.912.664.912 1.864 0 .993.911 2.523 2.773 4.636.743.826 1.365 1.737 1.365 1.985 0 .25.332.371.745.291.826-.249 1.903.702 1.615 1.447-.083.291 0 .829.207 1.2.247.54.205.747-.165.747-.373 0-.373.122 0 .495.412.416.62.416.827.042.494-.744 1.2-.084 2.109 1.986.704 1.531.786 2.401.621 5.009l-.247 3.103 1.159.331c2.318.621 3.063.579 3.641-.289.331-.456 1.241-1.284 2.071-1.82.951-.665 1.489-1.367 1.489-1.947.041-1.284 2.774 4.47 3.145 6.541.123.91.538 2.152.829 2.771.328.62.578 1.574.578 2.193 0 .622.249 1.035.581 1.035.328 0 .786.58 1.034 1.284.62 1.737.578 2.027-.166 1.778-.456-.205-.54-.084-.373.415.124.373.414.661.622.661.163 0 .124.58-.124 1.284-.332.951-.54 1.116-.788.704-.205-.29-.371-.373-.371-.124 0 .786.661 1.408 1.446 1.324.913-.082 1.367 1.201.663 1.904-.289.291-.622.248-1.075-.125-.373-.331-.622-.331-.622-.083 0 .249.332.622.704.868.786.416.993 3.229.414 5.63-.414 1.74.124 5.338.663 4.801.827-.827 1.945-.54 1.945.456 0 .785.082.828.414.33.288-.495.413-.495.413-.042 0 .29.58 1.242 1.241 2.111 1.118 1.408 1.2 1.656.622 1.989-.622.328-.622.412-.041.868.578.453.661.453.661-.208 0-.703.042-.703.623.083.328.498.536 1.657.495 2.609-.042.95.124 1.861.373 2.027.249.166.578 1.075.744 2.027.124.993.702 2.235 1.283 2.855.578.622 1.036 1.532 1.036 2.03 0 .661.785 1.446 3.02 2.938 3.268 2.193 4.015 2.895 3.849 3.601-.082.289-.041.371.041.166.374-.622 1.45-.291 1.202.371-.166.497-.084.622.37.414.415-.166.623.042.623.579 0 .456.207.829.456.829.287 0 .371-.373.246-.871-.166-.661-.124-.744.332-.37.373.331.62.331.827 0 .415-.665-.166-1.243-1.367-1.284-.702-.042-.868-.124-.371-.249.371-.084.704-.453.704-.786 0-.332-.125-.539-.291-.456-.205.124-.371-.247-.371-.785-.042-.54-.581-1.658-1.201-2.484-.993-1.283-1.116-1.82-1.116-4.428.041-1.655-.166-3.56-.457-4.222-.454-1.2-3.722-4.76-4.346-4.76-.165 0-.66-.578-1.075-1.283-.537-.869-.993-1.2-1.491-1.076-1.281.332-2.357-.827-2.937-3.103-.25-1.201-.744-2.402-.993-2.609-.623-.494-1.159-3.102-.662-3.102.412 0 .371-1.077-.082-1.489-.166-.166-.291.122-.291.619 0 1.077-1.159 1.655-1.698.827-.537-.785-.204-4.261.622-6.994.413-1.239.745-3.391.786-4.758.082-2.4.124-2.484 1.242-2.608 1.034-.125 1.117-.041 1.117 1.49 0 1.53.042 1.614 1.449 1.655 1.779.083 3.104.746 3.104 1.574 0 .373.29.578.744.495.456-.083.91.332 1.408 1.325.415.788.702 1.697.743 1.945 0 .663 1.492 2.195 2.111 2.195.207 0 .291-.248.125-.539-.164-.29-.125-.374.082-.166.374.373.415.539.54 1.739.082.993.868.745.868-.289 0-.786.084-.828.744-.25.374.332 1.077.744 1.533.91.578.208.661.374.29.622-.746.454-.581 5.006.207 5.006.289 0 .745-.369 1.036-.826.287-.497 1.321-1.324 2.275-1.903 1.613-.913 2.277-1.947 2.398-3.684.042-.249.249-.374.54-.291.703.125 2.854-1.034 4.179-2.235.581-.537 1.284-.993 1.574-.993.578 0 1.034-2.152.785-3.805-.082-.622.042-1.037.208-.913.207.125.373-.167.373-.62 0-.456-.166-.909-.373-1.034-.166-.125-.456-1.118-.581-2.193-.121-1.077-.537-2.567-.868-3.229-.371-.704-.662-1.531-.662-1.905 0-.33-.538-1.159-1.242-1.82-.66-.662-1.241-1.407-1.241-1.696 0-.289-.332-.622-.786-.788-.951-.29-5.836-4.965-5.836-5.545 0-.249-.62-1.076-1.408-1.904-1.2-1.2-1.408-1.739-1.408-3.352 0-1.201.208-1.944.54-2.069.29-.125.868-.87 1.242-1.656.373-.785.826-1.325 1.034-1.201.166.125.457-.083.578-.413.125-.331.457-.58.747-.538.29.083.496-.166.496-.537-.084-.87 2.731-1.863 3.849-1.408.415.167 1.2.29 1.738.249.788-.082.911.041.704.578-.373 1.034 1.035 3.892 1.945 3.933.951 0 1.284-.954.703-2.072-.33-.619-.33-.827-.041-.66.289.166.456-.042.456-.537 0-.498.248-.912.537-.912.248-.041.704-.084.911-.166.246-.039.662-.123.952-.123.29-.041.412-.29.249-.581-.166-.248-.124-.331.163-.164.249.123.54.082.706-.125.165-.289.62-.289 1.283-.042 1.489.581 1.944.498 1.655-.247-.125-.331-.084-.497.165-.372.249.124.414.041.414-.209 0-.248.206-.331.455-.165.663.374 1.2-.662.993-1.903-.164-.993-.164-.993.29.082.457 1.077 1.986 1.655 1.986.786 0-.207.746-.786 1.698-1.241.911-.495 1.571-.702 1.408-.454-.125.207-.041.412.163.412.249 0 .456-.205.456-.412 0-.248.125-.373.333-.373 1.446.248 2.275-.166 2.687-1.242.25-.703.831-1.325 1.284-1.45.498-.121 1.242-.786 1.699-1.487.453-.665 1.034-1.242 1.321-1.242.665 0 1.492-1.533 1.118-2.152-.163-.25-.122-.374.083-.25.457.291 1.45-.702 1.118-1.075-.164-.125.125-.249.622-.249.537 0 .91-.25.91-.662 0-.331-.166-.538-.373-.414-.537.332-.911-1.488-.454-2.028.249-.289.29-.619.124-.744-.124-.166-.041-.29.205-.29.291 0 .498-.373.498-.785 0-.458.208-.952.415-1.077.246-.124.412-.704.412-1.242 0-1.407.415-2.276 1.075-2.276.333 0 .622-.249.622-.539.209-1.489.167-2.236-.164-2.896-.208-.456-.167-.663.164-.622.291.082.496-.745.579-2.482.042-1.408-.083-2.567-.288-2.567-.166 0-.373.166-.373.415-.041.206-.082.578-.125.786-.082.828-.661.951-1.324.249a1.853 1.853 0 00-1.655-.457c-1.407.374-.87-.785.703-1.49 1.242-.578 1.49-.952.786-1.364-.246-.166-.33-.414-.207-.581.082-.207-.33-.455-.993-.578-1.323-.29-1.986-1.325-1.034-1.697.289-.125.538 0 .455.248-.041.249.167.537.454.62.248.125.498-.083.498-.371 0-.497-1.407-1.74-3.518-3.148-.208-.163-.703-.785-1.034-1.364-1.655-2.897-3.478-4.801-5.381-5.711-1.861-.868-2.027-1.076-1.781-2.027.125-.581.788-1.574 1.45-2.235 1.2-1.2 1.532-1.822.663-1.325-.29.166.084-.29.827-1.034.91-.83 1.778-1.284 2.608-1.284.994 0 1.199-.166 1.199-.993 0-1.283-.247-1.408-2.564-1.656-1.036-.083-2.277-.371-2.733-.62-.869-.457-3.145-.207-2.813.331.083.122-.084.621-.416 1.035-.494.661-.743.744-1.612.329-.581-.246-1.037-.827-1.037-1.2-.041-1.242-.952-2.069-2.398-2.11-1.906-.042-3.394-1.077-3.394-2.402 0-.827.164-1.034.661-.827 1.242.458 2.692-.207 2.897-1.366.123-.619.788-1.488 1.448-1.902.664-.457 1.201-1.077 1.201-1.367 0-.951 1.034-1.655 2.193-1.447 1.657.329 2.193 1.159 1.532 2.523-.788 1.532-.746 1.865.125 2.525.702.499.702.622.124 1.242-.622.703-.497 1.284.205 1.284.207 0 1.077-.786 1.988-1.699 1.323-1.364 1.986-1.737 3.516-1.902 1.037-.125 2.193-.084 2.608.082.415.208.911.29 1.077.249.166 0 .704.125 1.116.371.706.373.829.872.829 3.23 0 1.944.123 2.606.414 2.152.208-.331.415-.456.415-.208 0 .579 2.027 1.448 2.318.993.121-.207.536-.207 1.034.043.412.248.786.331.786.207 0-.125.456.083 1.034.454 1.034.663 1.408 1.822.62 1.822-.702 0-.454.703.746 1.986 1.738 1.903 2.111 2.443 1.861 2.73-.453.456-.412 2.526.043 2.815.248.167.456.704.456 1.243 0 .868.166.951 1.861.827 1.034-.041 1.945-.291 1.986-.498.083-.246.498-.413.951-.413.415 0 .789-.166.789-.414 0-.208.246-.29.578-.166.827.332 2.318-1.281 2.318-2.44 0-1.657-2.443-5.96-4.429-7.822-1.034-.996-2.276-2.193-2.771-2.733-.456-.538-1.574-1.365-2.442-1.861-.83-.456-1.823-1.283-2.152-1.822-.622-.911-.581-.993.496-1.655.622-.331 1.656-1.324 2.234-2.194.993-1.407 1.034-1.614.497-2.649-.704-1.325-.581-3.393.207-3.27.248.084.496-.248.496-.743 0-.457.166-.747.374-.623.207.166.578-.249.785-.868.249-.661.456-.911.456-.578.041.453.208.412.661-.208.498-.622.581-.663.623-.125 0 .911 2.895 1.738 4.221 1.243 1.325-.498 3.642-3.186 3.642-4.181 0-1.118 1.156-5.381 1.613-5.959.208-.249.373-2.151.373-4.18 0-2.071.166-4.181.413-4.76.29-.826.165-1.532-.621-3.311-.538-1.241-1.2-2.4-1.49-2.566-.248-.165-.329-.415-.166-.578.166-.166-.122-.58-.578-.913-1.533-1.034-3.145-5.463-2.027-5.463.827 0 4.054 2.692 4.304 3.519.123.456.868 1.491 1.612 2.277.747.785 1.781 2.317 2.276 3.352.498 1.034 1.45 2.401 2.113 2.979.661.581 1.405 1.697 1.696 2.524.249.828.62 1.491.827 1.491.208 0 .539.62.788 1.367.288.786 1.035 1.945 1.738 2.605l1.283 1.201-.29-1.488c-.291-1.491-.25-1.491.868-1.284.663.125 1.491.62 1.906 1.077.578.702.702.743.743.207 0-.788-1.366-2.443-1.986-2.443-.249 0-.909-.415-1.449-.952-.578-.497-1.491-1.241-2.068-1.615-.581-.414-1.325-1.531-1.658-2.483a55.806 55.806 0 00-.909-2.525c-.455-1.077 1.531-.911 3.517.332 1.74 1.117 2.07 1.2 2.07.704 0-.166-.62-.663-1.325-1.117-.745-.415-2.111-1.532-3.062-2.442-.91-.952-3.311-3.186-5.297-5.009-1.986-1.82-3.892-3.805-4.221-4.429-.746-1.407-2.401-3.227-2.939-3.227-.25 0-.87-.497-1.407-1.159-1.49-1.695-2.275-2.194-3.022-1.902-.578.207-.454.412.622 1.075 1.284.786 1.284.786.537 1.612-.703.788-.703.913-.125 1.326.872.663 2.195 2.732 1.947 3.02-.331.332-2.4-2.027-2.4-2.731 0-.207-1.159-.993-2.567-1.697a81.263 81.263 0 01-3.767-1.862c-1.364-.743-5.006-1.076-4.47-.415.416.54-.163 2.318-.786 2.318-.207 0-.415-.371-.415-.827 0-.454-.287-.827-.619-.827-.331 0-.62-.373-.62-.828 0-.456-.207-.829-.456-.829-.248 0-.373-.246-.248-.578.331-.868-1.159-2.069-2.07-1.698-.414.208-.951.29-1.241.249-.249-.041-.578.125-.745.373-.248.374.911.579 2.897.495.456 0 .581.084.29.207-.415.166-.374.374.166.993.371.416.496.788.248.788-.207 0-.331.414-.207.911.125.619-.082.453-.622-.497-.703-1.284-1.034-1.489-2.938-1.696-3.559-.456-3.601-.54-2.027-2.526 1.779-2.276 2.442-3.56 1.904-3.726-.458-.163 1.282-4.054 1.819-4.054.167 0 .124-.457-.081-1.034-.331-.828-.248-1.118.205-1.284.332-.166.623-.703.623-1.242 0-.662.329-1.117.868-1.325 1.367-.537 7.283-.619 7.614-.125.125.25.624.457 1.077.457.456 0 .747-.124.622-.332-.082-.163 1.323-.246 3.145-.205 3.145.123 3.311.08 3.104-.747-.166-.619-.043-.785.456-.619 1.653.453 3.639.827 3.972.703.248-.042.868 0 1.407.165.786.209.869.373.496.828-.537.663-.084 1.034 1.324 1.034 3.27 0 4.058-.082 4.058-.453 0-.25.453-.332 1.159-.166.661.123 1.737.041 2.357-.208 1.449-.537.995-.993-1.696-1.696-1.82-.456-2.069-1.034-1.325-2.94.207-.578.416-1.695.457-2.442.082-1.281.207-1.364 1.737-1.53a33.987 33.987 0 012.483-.123c.456.041 1.325.041 1.986.082.706 0 1.118.207 1.118.578 0 .83 1.574 2.36 2.111 2.069.207-.164.745.166 1.2.705.538.62.788.745.829.371 0-.329.122-.454.288-.288.166.125.498-.331.705-1.076.371-1.034.702-1.407 1.613-1.491.993-.124 1.656-.909.704-.909-.207 0-.87-.499-1.49-1.118-1.075-1.075-1.075-1.118-.207-1.408.993-.373 2.234-.041 1.861.497-.246.455 1.947 3.27 2.567 3.27.785 0 .457 1.367-.536 2.277-.665.577-.872 1.158-.747 1.82.082.581 0 1.242-.249 1.574-.288.287-.371 1.116-.205 1.778.288 1.532-.332 3.31-1.201 3.31-.331 0-.622.166-.622.416 0 .208-.412.412-.909.412-.952 0-.952 0 .123.993.786.746 1.036 1.324.911 2.03-.332 1.737 1.822 4.553 6.621 8.691 1.118.951 2.816 2.441 3.726 3.352.951.868 2.566 2.276 3.602 3.104.993.827 2.275 1.986 2.813 2.608.538.619 1.532 1.53 2.152 1.986l1.2.868.663-1.283c.744-1.448.537-3.352-.456-4.179-.744-.621-.744-1.863 0-2.152.331-.125 1.034-.125 1.574 0 .786.166.619-.125-.872-1.408-1.446-1.325-1.736-1.821-1.487-2.564.246-.788.453-.872 1.737-.623 1.241.249 1.449.166 1.283-.495-.083-.415-.868-1.242-1.738-1.822-2.524-1.738-3.518-4.263-1.282-3.229.578.25 1.159.332 1.324.207.37-.414-1.532-2.358-2.317-2.358-.913-.042-2.941-1.862-2.941-2.65 0-.868-1.53-1.613-2.73-1.323-1.49.371-3.147-1.366-2.815-2.981.207-.951 0-1.447-.827-2.317-1.035-.993-1.035-1.284-.125-1.118.166.041.703-.166 1.2-.412.456-.249.745-.291.579-.041-.123.207.041.494.373.66.663.249 1.2-.373.868-.951-.536-.869.993-.702 1.824.166 1.034 1.075 1.653 1.034 1.653-.166 0-1.574 3.85-1.695 6.995-.249 2.4 1.118 2.855 1.118 2.193-.041-.29-.537-.165-.952.578-1.696.54-.54 1.118-1.449 1.243-1.986.124-.581.705-1.159 1.449-1.408.661-.207 1.2-.622 1.2-.827 0-.25.249-.457.579-.457.289 0 .829-.29 1.12-.661.536-.663 2.151-.622 5.462.082.952.207 1.118.123 1.118-.579 0-.539-.374-.951-.913-1.159-.536-.125-1.239-.498-1.572-.785-.331-.291-1.075-.665-1.656-.872-1.612-.579-6.206-3.228-6.206-3.599 0-.166.372-.704.786-1.2 1.075-1.118.455-2.152-1.697-2.774-.87-.287-1.491-.661-1.366-.868.125-.25 1.325.124 2.608.786 1.986.993 2.855 1.2 5.256 1.157 2.4 0 3.268.167 4.965 1.077 1.117.622 2.484 1.118 2.981 1.118.453 0 2.027.372 3.394.788 2.359.743 2.564.743 2.978.082.374-.58.415-.58.208.042-.249.827.785.993 1.821.329.538-.329.456-.453-.289-.66-.539-.166-.829-.416-.704-.624.124-.204 0-.371-.209-.371-.246 0-.827-.372-1.241-.786-.827-.828-.827-.828.248-.952.624-.084 1.202-.371 1.284-.703.125-.415 0-.497-.456-.333-.412.167-.578.084-.454-.248.083-.287-.331-.827-.993-1.2-1.945-1.157-9.022-2.813-12.001-2.813-2.072 0-3.272-.249-4.843-.993-2.235-1.118-20.819-5.753-26.901-6.746-2.028-.332-5.298-.662-7.245-.744-5.297-.249-10.057-.622-10.966-.913-.662-.164-.62-.042.331.871.621.579 1.325 1.076 1.53 1.076.207 0 1.079.412 1.947.91l1.571.952-1.159.124c-.66.083-1.405-.042-1.695-.29-.291-.249-1.408-.578-2.484-.703-1.075-.166-2.027-.415-2.111-.581-.123-.207.167-.246.62-.124.457.124.83 0 .83-.247 0-.249-.124-.415-.291-.415-.207.043-.992 0-1.778-.041l-1.449-.125 1.449-.29 1.447-.287-1.325-.125c-2.564-.248-2.812-.207-2.812.412 0 .456-.458.622-1.863.581-3.352-.125-10.969-.166-11.588-.082-1.45.207-4.969-.581-4.969-1.159 0-.786-1.943-1.696-5.254-2.485-2.277-.537-4.097-.619-9.272-.412-5.172.205-6.704.164-7.905-.332-.785-.331-2.315-.702-3.433-.868-2.857-.332-3.974-.663-3.683-1.077.66-1.075-7.573-2.151-8.816-1.158-.373.329-.581.371-.415.083.456-.706-.453-.871-8.194-1.574-8.401-.744-8.11-.744-6.827 0l1.034.578-1.531.042c-1.201 0-1.492.125-1.326.622.166.332.745.62 1.326.62.578 0 .909.124.743.29-.124.166.249.54.871.827l1.157.54-1.24-.249c-.663-.166-1.615-.25-2.071-.25-.453.043-1.986.084-3.434.084-1.407 0-3.022.207-3.517.373-.581.208-1.74.208-2.816-.042-.993-.207-2.235-.415-2.729-.456-.458-.041-.789-.205-.665-.412.084-.166-.041-.29-.328-.29-.25 0-.374.331-.25.702.869 2.774.91 2.608-.581 2.359-2.151-.412-5.379-1.986-6.912-3.434-.743-.704-1.654-1.284-1.986-1.284-.328 0-.578-.246-.578-.537 0-1.158-7.492-3.269-8.112-2.276-.124.166-.456.207-.702.041-.291-.166-.955-.373-1.533-.415a38.543 38.543 0 01-2.896-.578c-1.324-.29-1.905-.29-1.989 0-.082.249-.328.371-.536.207-.207-.123-.373 0-.373.205 0 .25.373.665.827.955.456.288.829.619.829.744 0 .207-3.518.166-7.45-.166-1.243-.083-2.648-.166-3.104-.208-.62-.041-.703-.124-.249-.412.331-.207.373-.456.124-.622-.578-.332-10.593-.454-11.132-.125-.62.374-3.436-1.282-3.436-2.027 0-.414-.536-.578-1.903-.578-1.532 0-1.944.164-2.11.786-.125.537-.456.702-.993.578-.415-.123-1.076-.084-1.449.041-.537.207-.579.374-.166.829.373.496.207.704-1.118 1.035-1.986.578-3.972.578-3.642.042.123-.25.704-.415 1.241-.415.54 0 1.159-.249 1.325-.537.415-.622 1.49-1.284 3.934-2.484 1.075-.497 2.068-1.159 2.193-1.49.371-.952-1.45-2.567-2.692-2.401-.578.083-.785.083-.494 0 .412-.166.371-.332-.208-.785-.872-.665-1.532-.745-1.159-.166.412.66-.291.497-1.118-.291-.622-.536-1.697-.702-5.835-.702-2.774-.042-5.504.123-6.044.331-.744.247-.911.205-.786-.208.291-.826-.414-2.027-1.159-2.027-.331 0-.494.164-.373.412.414.622-1.364.499-2.44-.207-1.117-.744-6.704-1.198-7.946-.661zm32.115 9.974c.457.291.291.414-.702.414-.747 0-1.367-.207-1.367-.414 0-.536 1.242-.536 2.069 0zm-65.142 15.768c.993 1.118.497 1.367-.662.374-.539-.456-1.201-.829-1.49-.829-.291 0-.62-.164-.745-.33-.414-.705 2.194.041 2.897.785zm258.208 5.753c.125.249-.041.291-.37.166-.746-.289-.869-.58-.29-.58a.78.78 0 01.66.414zm-7.863 7.037c.332.536-.62.536-1.447 0-.497-.332-.456-.414.289-.414.497 0 1.037.166 1.158.414zm-143.941 30.088c1.656 3.848 1.861 4.635 1.366 5.379-.414.662-.455.662-.248 0 .124-.373.041-.702-.166-.702-.249 0-.412.371-.412.827 0 .495.287.827.744.827.415 0 .536.125.249.332-.249.166-.581.661-.747 1.117-.123.537-.952 1.118-2.027 1.488-1.489.581-1.738.789-1.613 1.74.124.91-.084 1.117-1.532 1.572-1.242.373-1.945.373-2.608.041-.911-.412-.911-.454.248-.454 1.159-.042 2.733-1.035 2.733-1.781 0-.163.371-.703.868-1.2.456-.455.744-1.118.62-1.448-.124-.289 0-.704.291-.868 1.366-.871 1.739-4.14.868-7.285-.371-1.159.829-.827 1.366.415zm-79.587 29.88c.125.207-.041.456-.371.619-.331.125-.622.498-.622.872 0 .328-.29.619-.619.619-.415 0-.622.415-.622 1.283 0 1.118-.083 1.243-.62.786-.747-.62-.827-2.483-.125-2.483.249 0 .374-.123.249-.246-.372-.374 1.035-1.74 1.821-1.781.373-.043.786.123.909.331zm2.443-.083c-.291.083-.785.083-1.035 0-.29-.125-.083-.207.498-.207.579 0 .786.082.537.207zm5.67.539c.457.329.291.37-.62.163-1.533-.328-1.863-.578-.788-.578.415 0 1.077.207 1.408.415zm2.484-.042c0 .248-.374.371-.827.33-.457-.041-.829-.205-.829-.371s.372-.332.829-.332c.453 0 .827.166.827.373zm-49.789.703c-.125.124-.496.167-.786.042-.332-.125-.207-.249.249-.249.454-.041.703.083.537.207zm-3.187 1.82c0 .208-.207.415-.453.415-.207 0-.291.207-.166.415.166.247.619.329 1.075.204.579-.204.827 0 1.034.789.125.578.496 1.242.829 1.53.455.373.455.663-.084 1.698-.412.827-.827 1.158-1.242.993-.371-.125-.91-.25-1.241-.25-.412 0-.578-.578-.578-2.234 0-1.242-.167-2.401-.415-2.526-.25-.163-.207-.453.124-.826.58-.702 1.117-.786 1.117-.208zm-1.448 2.072c.414 1.363-.248 1.82-.87.62-.702-1.408-.702-1.45 0-1.45.332 0 .706.373.87.83zm-1.241 3.228c-.248.246-1.036-1.865-.995-2.733 0-.373.291.041.622.911.332.909.496 1.697.373 1.822zm-11.339 9.269c.246.539 1.034 1.49 1.778 2.109.702.665 1.034 1.077.745.913-.33-.166-.829.042-1.16.454-.454.58-.703.623-.826.25-.125-.25-.621-.499-1.077-.499-1.075 0-1.945-1.118-1.986-2.564 0-1.697 1.737-2.152 2.526-.663zM29.8 228.326c0 .332-.166.619-.415.619-.207 0-.291-.287-.166-.619.166-.331.332-.62.415-.62.084 0 .166.289.166.62zm159.336 31.246c0 .207-.082.415-.166.415-.124 0-.329-.208-.453-.415-.125-.248-.042-.415.166-.415.246 0 .453.167.453.415zM54.795 271.078c.125.209-.041.373-.37.373-.332 0-.498-.164-.373-.373.124-.165.29-.331.373-.331.083 0 .247.166.37.331zm194.146 19.907c.124.207.041.498-.207.662-.208.123-.415-.043-.415-.371 0-.747.249-.87.622-.291zm8.691 3.767c.414.454.537.827.289.827-.248 0-.663-.373-.911-.827-.248-.456-.371-.83-.289-.83.084 0 .496.374.911.83z" />
            <path
                d="M234.661 74.121c0 .702 1.2 1.366 1.989 1.117.535-.166.909-.042 1.075.373.166.413-.041.62-.622.62-.496 0-.703.165-.537.456.125.246.662.33 1.2.205.496-.122 2.482-.041 4.345.207 3.394.415 4.471.249 3.312-.453-1.035-.664-4.802-1.657-6.293-1.657-.744 0-1.737-.29-2.152-.62-.909-.663-2.317-.829-2.317-.248zM326.539 167.944c0 .331-.166.497-.413.372-.207-.124-.415-.041-.415.208 0 .288.25.413.581.288 1.034-.413 3.765 3.601 3.311 4.885-.125.289-.041.66.205.826.913.54.415.952-.744.622-1.532-.414-1.903-.082-1.035.868.579.662.62.786.083.993-.372.167-.622.786-.622 1.574 0 .745.084 1.077.166.828.291-.788 2.07.536 2.359 1.779.291 1.116 1.367 1.324 1.74.373.166-.332.495-.623.827-.623 1.118 0 .578-.786-1.075-1.488-.911-.414-1.658-.869-1.658-1.076 0-.456.581-.415 1.118.125.332.329.663.288 1.283-.083.664-.414 1.201-.373 3.104.412 1.284.539 2.525.83 2.815.622.332-.166.373-.124.207.167-.165.287-.082.494.166.494.33 0 .413-.373.248-.993-.371-1.574.123-2.318 1.572-2.318 1.367-.041 2.733-.827 2.733-1.571 0-.249-.29-.372-.663-.208-.496.208-.62-.082-.537-1.656.083-1.325.247-1.82.662-1.653.289.123.538.041.538-.208 0-.207-.373-.498-.829-.622-.702-.163-.868.041-1.076 1.408-.291 1.697-.993 1.822-.993.124 0-1.201-.662-1.324-1.035-.167-.249.786-.331.786-3.228-.289-2.691-.952-4.677-1.945-5.255-2.606-.415-.498-3.228-2.069-3.684-2.069-.248 0-.456.288-.456.662z" />
            <path
                d="M332.748 181.972c0 .374-.207.539-.456.374-.332-.209-.412.041-.207.784.124.624.041 1.202-.205 1.325-.291.208-.208.54.246 1.035.331.373.54.993.374 1.409-.166.455-.043.66.414.66.329 0 .827.374 1.076.83.662 1.284.785 5.089.166 5.794-.54.621-.581.785-.581 1.862 0 .373-.497.868-1.118 1.159-.661.249-1.283.661-1.449.909-.453.581-1.2-.66-.909-1.531.29-.91-.291-1.199-1.159-.578-.578.414-.578.619-.084 1.49.291.578.54.786.581.453 0-.328.084-.494.207-.369.248.246-.746 2.398-1.116 2.398-.499 0-.416 1.573.08 1.74.248.082.248.372 0 .701-.288.499-.454.499-.993.083-.496-.412-1.076-.453-2.689-.041-1.117.249-2.483.457-3.023.414-1.737-.165-2.398 0-2.398.496 0 .705-2.072 3.023-2.981 3.353-.413.123-.745.622-.745 1.075 0 .457-.248 1.035-.497 1.284a42.12 42.12 0 01-1.489 1.2l-.951.827 1.117 1.242c.62.705 1.281 1.159 1.53.993.249-.122.29-.08.165.166-.165.207.25 1.159.87 2.027.622.872 1.117 1.906 1.117 2.236 0 .331.415.663.951.746.498.083.913.37.913.62 0 .29.412.041.952-.537.785-.868.909-1.449.827-3.726-.042-1.532-.083-2.896-.167-3.104-.166-1.034.125-.993 1.326.166 1.366 1.364 2.69 1.738 2.275.62-.331-.827.457-2.235 1.201-2.235.332 0 .62.167.62.415 0 .786.622.412 1.117-.663.249-.578.415-1.282.291-1.613-.125-.291-.042-.664.207-.828.249-.123.454 0 .454.33 0 .747 1.656 2.235 2.649 2.442.623.084.869-.207 1.159-1.242.207-.744.622-1.324.952-1.324.91 0 .747-1.159-.208-1.447-.453-.124-.826-.415-.826-.622 0-.166.373-.249.826-.125.456.125.83.332.83.498 0 .125.827.249 1.862.249 1.695 0 1.861-.083 1.861-1.034l.041-1.035.622 1.157c.703 1.324 1.572 1.078 1.284-.371-.207-1.159.579-1.325 1.53-.332.622.581.705.581 1.324 0 .332-.374.499-.868.374-1.076-.166-.249-.083-.703.166-.993.33-.415.246-.785-.374-1.491-.456-.537-.868-1.325-.868-1.82-.041-.498-.125-1.159-.166-1.491-.041-.328-.125-.909-.166-1.283 0-.371-.415-1.076-.868-1.612-.457-.54-.829-1.2-.829-1.533 0-.412.248-.496.829-.329.453.163.827.081.827-.167s-.166-.455-.415-.455c-.205 0-.412-.911-.412-2.028 0-1.944-.125-2.193-2.692-4.843-1.49-1.53-2.689-3.062-2.689-3.353 0-.289-.248-.535-.579-.535-.333 0-.87-.125-1.243-.25-.453-.166-.661-.041-.661.454zm2.069 1.201c0 .082-.29.248-.622.414-.329.124-.62.042-.62-.166 0-.248.291-.412.62-.412.332 0 .622.08.622.164zm-7.573 23.219c.33.91 0 1.118-1.283.785-.869-.207-.993-.373-.623-.826.623-.789 1.574-.747 1.906.041zm-3.023 1.241c-.288.704-1.241.828-1.612.248-.166-.33.371-.62 1.529-.827.166 0 .207.248.083.579zm-3.598.704c-.125.332-.25.207-.25-.249-.041-.455.084-.703.207-.537.125.125.164.496.043.786zm1.2.207c-.291 1.118-1.284 2.193-1.988 2.193-.166 0-.289-.248-.208-.539.042-.288-.454-.536-1.24-.62-.746-.082-1.366-.331-1.366-.581 0-.287.703-.328 2.028-.165 1.82.249 2.068.165 2.317-.578.415-1.243.744-.993.457.29zM174.403 295.248c-.166.248-.084.58.166.663.29.083.497.496.497.951 0 .495-.207.661-.622.538-.33-.167-.62-.043-.62.207 0 .248.208.456.413.456.539 0 .539 1.778.041 2.277-.33.369.414 6.04.995 7.572.371.952 1.986 1.283 3.311.62 2.152-1.075 2.688-1.779 2.688-3.557 0-1.699-1.653-5.628-2.729-6.541-.332-.246-.581-.703-.581-.952 0-.62-2.152-2.73-2.771-2.73-.291 0-.622.204-.788.496zM152.303 316.23c0 .705.166 1.325.414 1.491.208.124.288.497.167.786-.125.331-.042.704.204.87.249.124.456.495.456.745 0 .289-.166.248-.456-.125-.371-.496-.412-.496-.204.125.121.414.246 1.116.246 1.573 0 .951.951 1.034 1.656.121.454-.535.413-.66-.331-.868-.496-.125-.786-.412-.662-.619.413-.665-.249-3.27-.746-2.982-.288.208-.371-.163-.247-1.035.084-.702.042-1.28-.165-1.28-.166 0-.332.537-.332 1.198zm2.068 5.423a.414.414 0 01-.412.413c-.207 0-.415-.208-.415-.413 0-.249.208-.415.415-.415.247 0 .412.166.412.415z" />
        </g>
    </g>
</svg>