<svg stroke-width=".501" stroke-linejoin="bevel" fill-rule="evenodd" xmlns="http://www.w3.org/2000/svg"
    overflow="visible" viewBox="0 0 384 384">
    <g fill="none" stroke="#000" font-family="Times New Roman" font-size="16">
        <g stroke-linejoin="miter" stroke="none" stroke-width=".071" fill="#000">
            <path
                d="M264.95 316.1c-.712.57-2.56 1.064-3.98 1.064-1.49 0-2.702.285-2.702.714 0 .356-.637.712-1.49.712-2.131 0-1.419 2.272 1.064 3.409 1.779.92 2.204.849 4.05-.5 1.068-.849 2.346-1.49 2.702-1.49.426 0 .57-.427.356-.997-.215-.637.214-1.42 1.063-1.986 1.493-.926 1.99-1.989.927-1.989-.356 0-1.212.495-1.99 1.063zM298.483 62.024c-.285.356-1.775.856-3.48 1.141-2.982.493-9.023 3.053-9.805 4.192-.286.352-.852.352-1.278.139-.427-.281-.783-.139-.783.213 0 .426.427.855.924.855.429.071 1.634.212 2.49.285.992.071 2.341-.499 3.124-1.353.849-.78 1.278-1.136 1.063-.709-.285.499.215.992 1.139 1.278 2.204.57 2.77.499 2.275-.286-.214-.422.071-.493.637-.283.641.213.926.783.641 1.21-.285.499 1.419.57 5.541.285 3.553-.215 5.399-.142 4.55.214-1.141.493-.785.635 1.49.635 2.06.073 3.124-.283 3.409-.991.215-.57.997-1.07 1.776-1.07 1.848 0 3.623-.707 3.623-1.49 0-.356-.637-.641-1.348-.641-.783 0-1.491-.281-1.634-.708-.213-.57-4.833-1.282-9.379-1.419-1.068 0-1.139-.214-.427-1.068.785-.922.5-1.063-1.634-1.063-1.419 0-2.701.278-2.914.634zm8.457 3.624c-.712.783-2.133 1.424-3.124 1.353l-1.848-.071 1.775-.57c.993-.285 1.278-.641.708-.712-.564-.071-.283-.422.714-.708 2.839-.926 3.124-.782 1.775.708zm-18.121.997c0 .215-.283.57-.707.778-.356.215-.712.073-.712-.278 0-.429.356-.785.712-.785.424 0 .707.144.707.285zM274.043 65.226c-1.278.422-2.131 1.063-1.848 1.348.285.286.144.498-.283.498-.5 0-.851-.356-.851-.712 0-.853-5.119-.853-10.303 0-3.553.5-2.56.926 2.273.926 1.278 0 2.133.281 1.919.637-.215.285-.285.568-.142.641 3.765.641 8.453.641 8.099 0-.356-.499.144-.785 1.136-.785 1.135 0 1.349.215.712.642-1.138.641 2.132 1.492 5.826 1.492 1.705 0 1.99-.215 1.134-.708-.568-.429-1.987-.499-3.194-.285-1.92.423-1.99.356-1.139-.712.497-.641 1.561-1.136 2.346-1.136.712 0 1.134-.356.924-.712-.212-.427-1.068-.712-1.846-.712-.712 0-1.353-.352-1.353-.708 0-.853-.427-.853-3.41.286zM168.035 68.35c-.637.712-1.775.855-3.695.57-2.131-.356-2.838-.214-3.194.708-.215.641 0 1.423.57 1.775.564.356.637.641.208.641-.422 0-1.205-.497-1.775-1.134-.494-.641-1.564-.997-2.554-.785-.927.144-1.778.073-1.99-.212-.144-.285-2.134-.356-4.406-.285-2.276.141-4.973.212-6.041.285-1.563 0-1.848.285-1.49 1.209.283.708 1.276 2.057 2.273 2.983l1.848 1.705-1.919-1.135c-1.138-.712-2.06-.926-2.346-.499-.214.356.927 1.278 2.631 2.133 3.551 1.705 3.836 1.776 2.698.356-1.705-2.063 3.621 1.276 5.54 3.336.927 1.137 2.205 1.99 2.846 1.99.707.071 2.487.641 4.048 1.42 4.194 2.063 5.828 1.848 6.392-.708.285-1.209.926-2.131 1.424-2.131 1.065 0 5.187-3.555 4.19-3.555-.352 0-.067-.352.641-.781 1.419-.853 3.694-.285 6.04 1.563 1.49 1.135 1.561 1.278.356 1.99-1.422.854-.926.997 2.344.783 1.278-.071 2.485.214 2.77.637.497.853 3.765.356 4.975-.708.351-.356 1.207-.641 1.989-.641.708 0 1.064-.356.852-.712-.215-.422-1.349-.708-2.49-.708-1.134 0-2.127-.499-2.412-1.14-.285-.779-.997-1.064-2.202-.849-.997.214-1.778.07-1.778-.215 0-.997-6.467-3.621-7.672-3.124-.926.352-.997.21-.356-.427.569-.57 2.202-.641 5.329-.356 7.601.85 14.139.427 14.638-.997.138-.422.849-.707 1.561-.707 1.849 0 2.413-1.212.922-1.99-2.06-1.068-10.727-1.49-11.225-.57-.214.57-.499.499-.782-.142-.637-1.278-3.838-1.063-3.838.285 0 .924-.208.997-1.064.283-1.49-1.276-12.645-1.346-13.856-.141zm6.255 3.553c.212.639-.144.924-.997.712-.637-.073-1.349-.641-1.564-1.141-.212-.637.144-.92.998-.708.636.071 1.348.637 1.563 1.137zm-14.071 4.762c0 .212-.564.352-1.276.352-.714 0-1.348-.496-1.348-.993 0-.785.351-.926 1.348-.356.712.356 1.276.853 1.276.997zm-4.97 1.775a.71.71 0 01-.712.708c-.356 0-.71-.352-.71-.708 0-.426.354-.711.71-.711.427 0 .712.285.712.711zM343.602 82.491c-.997.212-2.489.849-3.409 1.419-1.141.779-4.621 1.278-10.588 1.705-8.526.57-11.584 1.064-12.362 1.99-.783.993-6.111 3.124-7.32 2.983-.922-.14-1.278.212-1.137 1.138.356 2.275-.782 4.192-3.124 5.329l-2.275 1.134 1.778.712c1.063.499 1.348.782.639.782-.639.073-2.061.852-3.2 1.849-1.633 1.348-1.775 1.775-.778 1.775 1.776 0 1.49 1.349-.57 2.131-.997.356-1.776 1.137-1.776 1.705 0 1.492 1.917 2.77 3.551 2.346.785-.212 1.278-.071.993.281-.208.356.5.997 1.567 1.353 1.491.566 2.061.566 2.554-.142.429-.712.571-.641.571.213 0 1.563 1.49 2.06 7.103 2.555 8.528.642 9.45.642 9.806-.422.212-.712 0-.855-.851-.57-.642.285-1.068.214-.854-.142.212-.285-.922-.997-2.416-1.492-1.563-.498-2.841-1.139-2.841-1.353 0-.281-.854-.993-1.99-1.634-1.917-1.134-3.129-4.829-1.561-4.829a.713.713 0 00.707-.712c0-.993 7.46-8.523 8.457-8.523.427 0 1.349-.57 2.061-1.282 1.634-1.634 4.687-2.554 13.997-4.402 12.362-2.488 14.849-4.051 9.023-5.685-2.702-.712-2.916-.712-5.755-.212zm-36.52 15.561c-.213.208-.854.278-1.349.07-.568-.214-.356-.426.422-.426.785-.073 1.212.141.927.356z" />
            <path
                d="M201.075 111.194c-.285.424-.992.566-1.634.285-.57-.213-1.848.281-2.843 1.207-.993.922-1.563 1.205-1.278.712.356-.571-.143-.856-1.848-.856-3.053 0-5.612.712-5.185 1.422.423.712-3.057 1.705-5.26 1.49-1.207-.139-1.492.071-1.136.783.427.712.356.785-.427 0-1.704-1.561-6.321-.849-6.321.997 0 1.063-.071 1.063-2.629 1.349-2.916.285-3.909.992-3.553 2.487.215.78 0 1.634-.356 1.919-.497.281-.57.071-.214-.498.429-.711.144-.784-1.42-.428-1.775.428-1.916.356-1.138-.569 1.353-1.563 0-1.492-3.765.356-2.342 1.068-3.054 1.776-2.769 2.558.283.781.142.993-.356.637-.997-.564-5.828 1.353-5.828 2.346 0 .997.286.997 3.198-.214 1.353-.564 2.487-.92 2.487-.779 0 .144.997 0 2.131-.356 1.278-.356 2.134-.356 2.134.071 0 .356-.5.641-1.068.641-.566 0-1.066.637-1.066 1.349 0 .78-1.419 2.416-3.551 3.909-1.919 1.419-3.553 2.839-3.553 3.195 0 .356-.639.782-1.423.997-.993.214-1.42.993-1.42 2.204 0 2.412-2.346 4.685-4.758 4.685-1.638 0-1.775.144-.926.785.855.637.926.778.073 1.134-.5.215-2.205 1.634-3.695 3.124-2.489 2.49-2.916 2.702-4.265 1.92-1.205-.779-1.563-.708-2.275.214-.493.639-1.276.995-1.846.783-.708-.215-.851 0-.566.782.281.779-.142 1.207-1.705 1.563-1.138.286-2.06.779-2.06 1.135s-.783.782-1.776 1.067c-.997.211-1.779.708-1.779 1.137 0 .356-.281.497-.566.283-.356-.212-1.564.214-2.773.993-2.131 1.282-2.204 1.496-2.275 6.681-.071 4.477.144 5.258.997 4.973 1.134-.429 1.49.782.5 1.423-.856.494-.927 4.688-.073 4.688.351 0 .637.641.637 1.419 0 .854 1.067 2.061 2.845 3.199 3.692 2.342 7.531 2.342 10.725 0 1.353-.924 3.766-2.416 5.47-3.27 1.639-.851 2.987-2.06 3.058-2.697 0-.926.144-.997.429-.071.208.568.849 1.349 1.349 1.632.568.285.992 1.422.992 2.489 0 1.064.639 2.698 1.424 3.695.778.993 1.42 2.06 1.42 2.344 0 .353 1.134 1.777 2.487 3.197 1.349 1.419 2.129 2.697 1.775 2.839-.426.143-.712.711-.712 1.282 0 .566-.212.922-.497.922-1.134-.215-5.185.997-5.185 1.49 0 .712-4.194 1.709-4.762 1.211-.139-.214 0-.997.427-1.704.712-1.212.712-1.212.782 0 0 .707.356 1.063.708.849.427-.285.57-.708.356-1.064-.212-.356-.071-.782.356-1.067 1.278-.779.785-2.483-.712-2.483-1.42 0-1.99-1.705-.778-2.49.849-.497.778-4.619-.071-4.619-.285 0-.571.286-.571.712 0 .356-.426.712-.992.712-.498 0-1.353.493-1.847 1.064-.499.57-1.777 1.068-2.916 1.068-3.836 0-6.462 7.603-3.623 10.513.997 1.136 1.07 2.06.143 2.631-.356.212-.499.849-.214 1.49.285.78.641.851 1.349.214.782-.641.997-.57.997.356 0 .637-.356 1.135-.783 1.135-.566 0-.566.356.071 1.063 1.563 1.848-.356 3.272-3.624 2.775-1.846-.356-3.266-.144-4.334.568-.992.637-2.555.922-3.838.78-3.338-.495-6.392 1.353-6.96 4.263-.712 3.765-5.399 8.03-10.727 9.806-3.129.993-3.628 1.419-4.122 3.694-.57 2.275-.997 2.702-3.409 3.339-1.567.427-3.201 1.424-3.699 2.131-.993 1.634-3.48 1.848-4.899.5-.5-.571-1.849-1.207-2.983-1.493-1.848-.426-1.99-.356-1.497 1.135 1.497 4.835 1.353 5.187-1.561 5.187-1.492 0-3.053-.281-3.553-.567-.924-.57-6.323.071-8.028.993-1.348.641-1.492 4.192-.214 4.192.498 0 .926.285.926.712 0 .354.427.495.92.285 1.634-.641 4.763.993 4.336 2.2-.212.568-.071 1.068.427 1.068.428 0 .57-.356.358-.712-.785-1.278 1.775-.707 3.336.712.922.778 1.136 1.42.641 1.42-.641 0-.568.356.21 1.136.641.568 1.139 1.424 1.139 1.78 0 .351.499.637 1.136.637.569 0 .854.283.639.711-.212.356-.141.708.215.708s.641.427.641.853c0 .5.137 1.208.281 1.634.285.997-.708 8.101-1.563 10.874-.85 2.556-2.839 3.975-4.9 3.338-1.211-.356-10.732-1.068-19.682-1.353-2.06-.066-3.909-.351-4.194-.637-.993-.997-3.622-.497-4.899.922-.712.783-1.849 1.424-2.488 1.424-1.99 0-2.982 1.705-2.204 3.765.356.922.783 3.909.856 6.607.212 5.185-1.426 11.154-3.553 12.859-.571.497-.854.924-.642.924.286 0 .215.926-.141 2.133-.356 1.276-.356 2.132.071 2.132.356 0 .641.497.641 1.063 0 .571.422.997.922.854.924-.142 1.068 3.482.212 6.606-.497 1.705-.356 1.775 2.56 1.705 1.705 0 3.766-.281 4.688-.566 2.558-.854 4.406.214 5.611 3.197 1.211 3.124 3.909 4.406 5.403 2.558 1.564-1.917 5.756-3.27 10.087-3.339 2.346 0 4.833 0 5.541-.071.641 0 1.704-.997 2.275-2.131.782-1.424 1.846-2.275 3.267-2.56 1.636-.283 2.417-1.064 3.27-3.124.566-1.566 1.493-2.773 1.99-2.773.495 0 1.278-.497 1.776-1.063.78-.927.707-1.283-.142-1.99-1.705-1.353-1.919-2.987-.712-4.904 2.558-3.767 6.894-8.382 7.887-8.382.57 0 2.701-.855 4.762-1.919 3.836-1.917 5.97-4.762 4.544-6.182-.352-.356-.708-1.419-.708-2.275 0-3.48 7.533-4.762 11.866-1.989 2.342 1.492 3.976 1.207 6.536-1.064 1.348-1.209 3.265-2.346 4.406-2.558 1.134-.285 2.417-1.068 2.768-1.778.356-.712 1.139-1.419 1.705-1.631 1.495-.571 7.535 2.202 7.535 3.48 0 .57.422 1.634.922 2.487.712 1.207.641 1.563-.429 2.412-.92.641-1.064 1.07-.422 1.426.422.279 1.063.137 1.348-.429.5-.712.779-.712 1.705 0 .641.566 1.136 1.422 1.136 1.919 0 .566.639.993 1.424.993.778 0 1.42.215 1.42.571 0 1.063 7.103 6.111 8.737 6.181.925 0 2.488.849 3.48 1.917.997 1.137 2.346 1.99 2.987 1.99s1.135.495 1.135 1.137c0 .641.926 1.49 2.131 1.916 1.563.571 2.346 1.564 3.201 4.051.708 1.99.849 3.268.352 3.409-.352.144-.708.856-.708 1.493 0 1.638-6.54 3.128-11.653 2.628-4.192-.356-5.4 0-5.4 1.705 0 1.212 6.392 4.977 8.382 4.977.427 0 1.068.422 1.353.922.281.57 1.278 1.138 2.2 1.419 1.776.427 3.27-1.49 2.558-3.338-.212-.641-.212-1.99 0-2.983.356-1.424.783-1.704 1.919-1.353 1.776.571 4.904-2.06 4.904-4.117 0-.712.637-1.494 1.42-1.709 1.989-.493 1.848-3.195-.356-4.473-1.561-.997-1.632-1.282-.854-2.843.712-1.419 1.353-1.704 2.987-1.563 1.205.144 2.273.57 2.346.926.141.352.778 1.205 1.419 1.776 1.064 1.063 1.205 1.063 1.847-.356.922-2.132-1.205-4.265-7.389-7.246-4.192-1.989-4.763-2.56-4.192-3.628.356-.707.426-1.277.143-1.348-.285 0-1.919-.071-3.553-.215-2.416-.141-3.551-.707-5.54-2.768-1.353-1.424-2.49-3.128-2.49-3.836-.071-1.775-1.276-3.201-4.406-5.047-2.91-1.776-3.978-3.907-2.698-5.47.496-.637.566-1.064 0-1.42-1.423-.855-.712-2.204 1.634-3.053 2.841-.997 4.902-1.141 3.482-.285-.641.422-.714 1.134-.214 2.412.853 2.346 2.202 3.199 2.987 1.919.422-.781.637-.566.637.568 0 .856.356 1.778.712 1.99.426.214.707-.212.707-.993 0-.782.356-1.638.854-1.917.57-.356.641-.143.356.708-.286.712-.071 1.705.636 2.346.785.853.856 1.276.286 1.631-.922.571 2.416 3.553 3.979 3.553.569 0 1.561.642 2.202 1.424.712.779 2.061 1.42 3.058 1.49l1.776.073-1.776.564c-1.709.571-1.709.571.495.641 1.21.071 2.488.356 2.702.785.212.356.993.708 1.705.708.641 0 2.843 1.209 4.829 2.629l3.698 2.701-.426 4.402c-.356 4.122-.286 4.407 1.561 5.614 1.136.712 1.563 1.424 1.063 1.705-.993.641-.141 2.843 1.068 2.843.57 0 1.492.5 2.063 1.136 1.134 1.068 1.134 2.346.071 4.833-.286.712-.286 1.491.141 1.776.352.214.851.993 1.137 1.634.497 1.419 1.916 1.704 1.916.426 0-1.775 2.702 1.776 3.197 4.195.427 2.202.642 2.412 2.203 2.06 1.211-.356 1.704-.143 1.704.635 0 .57.356 1.07.712 1.07a.714.714 0 00.712-.712c0-.429.352-.71.708-.71.428 0 .714.781.714 1.778 0 .993.356 1.775.712 1.775 1.348 0 1.063-3.624-.5-6.752-.783-1.49-.783-1.846-.142-1.278.498.5 1.491.922 2.273.922.993 0 1.207-.352.852-1.49-.427-1.207-.215-1.422 1.209-1.207 1.278.141 1.563-.071 1.422-1.139-.215-1.207-.144-1.278.849-.495.641.566 1.14.707 1.14.422 0-.279.498-.141 1.064.356.568.5 1.068 1.492 1.068 2.275 0 1.278.07 1.278 1.134.285.997-.997.926-1.278-.356-2.701-.849-.85-1.49-1.278-1.49-.993 0 1.063-2.275-1.282-2.912-2.914-.356-.993-1.209-1.634-2.061-1.634-.997 0-1.704-.708-2.202-2.134-.429-1.205-1.07-2.131-1.421-2.131-.783 0-2.914-4.117-2.629-5.114.141-.427 1.276.071 2.487 1.134 2.2 1.849 3.48 2.419 2.698 1.141-.286-.427.07-.5.782-.214.993.356 1.137.214.708-.927-.423-1.063-.352-1.205.356-.493 1.704 1.705 2.346.922.712-.782-1.632-1.705-1.632-1.705-.213-2.49 1.064-.564 1.634-.564 1.99.073.285.497.212.568-.285.283-.5-.283-.851-.141-.851.214 0 1.349 1.919.856 2.341-.57.285-1.276.571-1.276 2.702-.493 1.349.422 3.124 1.205 4.05 1.705 2.205 1.205 4.473.849 5.97-.997.92-1.135 1.99-1.491 3.836-1.42 1.349.071 2.839-.285 3.268-.856.853-.992.853-.992-1.634-2.056-2.204-.926-5.258-6.538-4.192-7.601.427-.427.712-1.424.712-2.275 0-.926.564-1.705 1.348-1.919 1.135-.283 1.42-1.068 1.632-3.765.215-2.985.5-3.622 2.205-4.407 1.348-.641 1.919-1.49 1.919-2.702 0-.992.919-2.768 2.131-4.05 1.134-1.276 2.131-2.697 2.131-3.195 0-.427.779-.851 1.776-.851 1.065 0 1.777.424 1.777 1.065 0 1.064 3.693 2.061 7.602 1.99 1.278-.073 2.131.213 1.919.569-.215.355-.712.636-1.064.636-.926 0-3.909 2.844-3.058 2.917.925.141 1.847.355 3.693.992 1.282.427 1.563.997 1.421 2.417-.21 1.561.071 1.846 1.847 2.06 1.353.142 2.275-.143 2.701-.855.356-.637 1.42-1.134 2.346-1.134.922 0 1.919-.356 2.131-.712.215-.423 1.564-.708 2.912-.708 1.705 0 2.417-.356 2.417-1.068 0-1.207.356-.992 3.624 1.917.712.712 1.775 1.283 2.272 1.283.5 0 1.564.495 2.346 1.063.708.57 1.776 1.068 2.342 1.068.57 0 1.567.495 2.275 1.136 1.068.92 1.704.993 3.48.427 1.78-.641 2.56-.57 4.477.493 1.207.785 3.409 1.568 4.762 1.853 1.349.281 3.98 1.419 5.755 2.554 2.912 1.848 3.695 2.06 7.104 1.633l3.838-.422 4.619 4.046c7.812 6.752 26.644 15.346 25.362 11.51-.144-.422-.778-.851-1.419-.851-.712 0-4.265-3.338-7.96-7.389-5.826-6.252-6.748-7.672-6.748-9.732 0-2.346-2.06-5.258-4.477-6.255-.57-.212-.641-.498-.141-.92.426-.285 1.067-1.497 1.419-2.631.712-2.204 4.336-4.692 5.897-4.121.429.141.855-.144.855-.712 0-1.422 1.776-2.912 6.396-5.258 2.128-1.134 4.047-2.131 4.259-2.275.214-.141-.564-.99-1.775-1.917-1.705-1.419-2.061-2.2-1.92-4.19.144-1.987-.356-3.057-2.202-5.189-3.053-3.409-3.765-4.758-4.331-8.523-.427-2.987-.427-2.987 2.204-3.694 1.49-.427 4.329-.783 6.319-.783 1.919 0 3.909-.356 4.336-.783 1.419-1.421 10.161-.992 14.778.639 3.199 1.208 5.045 1.493 7.601 1.137 2.346-.352 3.414-.21 3.414.356 0 .426.637.782 1.349.782.778 0 1.846.5 2.487 1.064 1.278 1.353 2.982 1.353 3.482.071.283-.708 1.205-.92 3.124-.635 5.043.635 6.182-3.487 1.42-5.118-3.624-1.208-5.114-2.485-3.909-3.339.926-.641.429-1.136-3.693-4.121-1.421-.993-1.492-1.278-.709-4.406.709-2.912.709-3.553-.427-5.473-1.775-2.98-3.98-2.909-6.752.286-2.981 3.338-5.327 3.338-7.743-.071-.993-1.349-2.556-3.48-3.482-4.617-1.634-2.06-1.634-2.202-.427-3.484.712-.778 2.202-1.419 3.343-1.419 4.758 0 6.463-5.685 2.768-9.094-2.627-2.417-3.624-4.973-3.624-9.235-.07-8.03-1.917-15.988-5.967-24.94-2.768-6.182-3.765-9.096-3.268-9.662.427-.499 2.275-1.423 4.121-2.131 7.248-2.702 14.92-8.172 15.064-10.661 0-.423-1.349-2.061-2.983-3.695-3.484-3.336-7.816-4.828-16.202-5.54-7.53-.708-7.886-.779-12.008-2.556-2.768-1.139-3.908-1.351-4.475-.783-.638.641-.426 1.207.71 2.275.854.849 1.846 1.349 2.202 1.134.712-.426 6.253 2.134 7.675 3.483 1.348 1.351 1.134 1.775-.852 1.775-1.282 0-1.638.285-1.353 1.068.356.778.144.922-.707.641-.571-.214-1.068-.641-1.068-.856.214-1.419-1.064-3.621-2.275-3.906-1.49-.427-1.917.641-.423 1.134.423.144-.426.57-1.989.856-1.566.283-3.129.782-3.556 1.063-.351.285-2.2.498-4.116.498-1.849.07-3.839.426-4.407.926-.499.422-1.705.707-2.631.566-1.99-.281-2.556-2.414-.78-2.912.709-.214 0-.356-1.566-.427-1.563 0-3.553.427-4.402.997-.782.564-2.56 1.135-3.836 1.205-1.353.071-3.694.927-5.257 1.778-1.566.924-3.485 1.632-4.263 1.632-2.204.073-4.336 1.634-4.265 3.201 0 .778-.497 1.634-1.068 1.917-1.919.851-5.47.566-6.392-.497-.497-.571-1.348-1.068-1.919-1.068-1.99 0-.426-1.705 2.275-2.412l2.698-.785-2.417-1.846c-1.919-1.491-3.48-1.92-7.603-2.205-5.256-.356-7.531.356-3.693 1.212 1.988.422 2.132.707 2.132 3.48 0 2.556.285 3.197 1.775 3.838 1.848.849 2.204 1.917 1.139 3.622-.427.707-.924.78-2.061.143-.783-.429-2.131-.785-2.914-.785-.851 0-1.492-.497-1.492-1.134 0-.712-.712-.426-2.273 1.064-1.278 1.211-2.841 2.204-3.409 2.204-.571 0-1.99.783-3.127 1.632l-2.06 1.634 1.634 1.567c2.63 2.412 1.063 3.268-3.766 1.986-2.131-.566-4.621-1.42-5.54-1.849-1.141-.637-1.919-.637-3.129 0-1.707.927-1.634 2.846.071 2.846.568 0 .997.285.997.712 0 .351.92.707 2.061.707 1.134 0 2.202.427 2.483 1.068.641 1.846-3.624 1.563-7.319-.427-1.419-.712-3.124-1.348-3.765-1.348-.707 0-1.276-.427-1.276-.927 0-.57-.641-1.563-1.421-2.275-1.068-.993-1.21-1.561-.639-2.624.853-1.638-.571-3.058-3.768-3.768-.995-.212-1.987-.853-2.202-1.351-.285-.636.997-.566 5.47.283 14.782 3.058 18.899 3.058 23.306-.07 2.273-1.634 2.487-3.195.712-5.399-1.212-1.491-6.467-4.051-7.109-3.481-.139.215-1.348-.141-2.555-.782-1.21-.637-2.346-1.137-2.559-1.137-.57.073-2.204-.568-5.684-2.06-1.775-.783-6.182-1.705-9.735-2.132-4.333-.497-6.604-1.063-6.604-1.633 0-.998-4.906-1.99-5.969-1.21-.427.283-2.203.356-3.978.142l-3.201-.352 2.346-.855c1.348-.498 2.204-1.135 1.989-1.491-.57-.926-8.808-3.128-9.664-2.631-.426.215-.707.073-.707-.285 0-.422-1.068-.778-2.417-.778-1.634 0-2.702.495-3.48 1.563-.783 1.134-1.138 1.278-1.211.568 0-.568-.849-1.494-1.917-1.988-2.346-1.07-2.841-1.07-3.41-.072zm3.195 1.348c0 .356-.351.712-.778.712-.356 0-.5-.356-.285-.712.214-.426.57-.712.782-.712.14 0 .281.286.281.712zm7.816-.426c0 .641-2.131.997-2.483.426-.285-.426.21-.712.993-.712.853 0 1.49.144 1.49.286zm-32.682 6.822c0 .352-.496.496-1.064.286-.57-.286-1.068-.571-1.068-.712 0-.142.498-.285 1.068-.285.568 0 1.064.285 1.064.711zm-7.104 1.42c0 .356-.571.712-1.207.712-1.068 0-1.139-.142-.213-.712 1.349-.853 1.42-.853 1.42 0zm-7.531 4.687c.213.571.142.856-.285.641-.427-.214-.712-.707-.712-1.134 0-.997.498-.785.997.493zm5.612-.637c-.498.144-1.349.144-1.776 0-.497-.212-.141-.356.852-.356.995 0 1.35.144.924.356zm31.691 15.561c1.491.285 2.198.851 2.198 1.705 0 .993-.351 1.207-1.49.922-1.136-.285-1.419-.142-1.207.57.427 1.134-3.98 5.612-5.541 5.612-.57 0-.997.285-.997.57 0 .993-4.121 2.983-5.185 2.554-.57-.208-1.278-.067-1.563.356-.214.428.071.997.637 1.211.997.352.997.566.071 1.42-.779.782-.849 1.419-.352 2.416.423.781.993 1.99 1.278 2.627.356.712.498 2.916.427 4.904-.142 3.053 0 3.623.993 3.553.641 0 1.138.285 1.067.712-.07.495.922 1.063 2.271 1.277 1.282.286 2.487.779 2.631 1.206.142.499 2.131.214 5.47-.637 2.914-.783 5.755-1.28 6.253-1.068.57.214 1.278.073 1.563-.356.212-.422 2.701-.92 5.399-1.134 4.121-.286 5.26-.142 6.752.992 1.988 1.495 1.775 2.061-.926 2.275-1.064.071-1.919.569-1.919 1.139 0 .922-3.551.849-10.655-.071-3.339-.429-11.654 3.339-9.379 4.259 1.207.499 1.064 1.709-.212 1.211-.57-.285-1.07-.855-1.07-1.419 0-.571-.422-.997-.849-.927-1.353.071-3.909 1.208-2.843 1.278 1.28.071 1.067 1.495-.286 1.495-.922 0-1.063.422-.636 1.919.563 2.341 1.134 2.983 1.561 1.775.214-.426.922-.855 1.704-.855.712 0 1.349-.283 1.349-.639 0-.851 2.775-1.493 3.272-.71.214.358.922.637 1.563.637 2.417 0 1.705 7.037-.641 7.108-.214 0-1.563-1.068-3.053-2.416-2.417-2.132-2.917-2.273-4.692-1.634-2.768 1.065-4.546 5.328-4.05 9.734.426 3.624-.779 5.685-3.268 5.685-.641 0-1.205.497-1.205 1.063 0 .641-.785 1.424-1.705 1.919-1.919.854-4.336.283-3.628-.851 1.282-2.06-8.808-1.138-10.655 1.064-.356.428-2.701 1.211-5.114 1.777-4.62.924-6.61.427-6.61-1.777 0-1.99-1.99-1.705-8.809 1.348-1.494.641-2.914.997-3.199.785-.566-.641 2.773-3.268 3.48-2.841.285.21.712-.141.997-.712.215-.57.922-1.068 1.491-1.068.641 0 .926-.351.711-.707-.283-.427-.853-.5-1.28-.215-.566.356-.566.144 0-.641.498-.564.712-1.276.427-1.49-.214-.285-.071-.5.356-.5.497 0 .853-.564.926-1.275.071-.785.281-.571.564.568.429 1.563.926 1.777 3.624 1.777 2.631 0 3.199-.285 3.484-1.421.352-2.061 2.2-3.129 5.258-3.199 1.99 0 2.627-.286 2.627-1.278 0-.997.141-1.068.711-.142.356.568.783.849.925.712.851-.926 2.556-5.97 2.2-6.326-.281-.212-.637 0-.779.427-.57 1.634-1.707.993-1.278-.712.352-1.276.779-3.836.993-6.252.071-.285.783-.708 1.705-.993l1.917-.641a46.262 46.262 0 001.99-.712c.855-.281 1.563-.993 1.563-1.634 0-.637.497-1.49 1.067-1.917.852-.637.852-1.066.142-2.485-.853-1.775-1.424-2.131-5.118-3.765-2.202-.997-2.981-2.631-2.061-4.692.285-.641.5-2.06.5-3.053 0-1.21.641-2.273 1.99-3.199 1.138-.708 2.06-1.705 2.06-2.061 0-.708 4.971-3.197 6.467-3.197.356 0 1.846-1.134 3.339-2.558 1.917-1.848 2.343-2.627 1.631-3.054-.778-.499-.638-1.067.642-2.772.922-1.207 1.919-2.061 2.275-1.848.281.214.566 0 .566-.352 0-.853 5.611-1.068 9.168-.356zm-55.351 6.819c0 .997-3.411 4.121-4.475 4.121-.356 0-.285-.498.215-1.064.493-.568.637-1.067.351-1.067-.351 0 .142-.642 1.068-1.42 1.849-1.634 2.841-1.775 2.841-.57zm-13.002 8.101c-.212.214-.849.285-1.349.07-.568-.212-.356-.426.427-.426.78-.071 1.207.143.922.356zm15.134 44.336c0 .285-.5.778-1.137.993-.568.212-.853.141-.639-.286.213-.422.071-.707-.285-.707-.424 0-.78-.285-.78-.641 0-.356.636-.498 1.421-.286.783.215 1.42.642 1.42.927zm42.773.141c-.5.5-.856.566-.856.144 0-.997.856-1.848 1.353-1.353.144.212-.071.783-.497 1.209zm-46.326 1.207c0-.355.429-.285.997.213 1.492 1.348-.641 2.418-2.843 1.348-2.346-1.063-2.275-2.341.07-1.49 1.135.427 1.776.427 1.776-.071zm-24.511 12.789c-.214.426-.783.782-1.138.782-.352 0-.281-.426.212-.992.997-1.139 1.704-.927.926.21zm158.087 34.106c-1.353.707-2.701 1.207-2.986.992-.356-.141-.569.142-.569.712 0 .571.712 1.278 1.636 1.491 1.349.428 1.422.57.425 1.136-.637.356-1.422 1.495-1.634 2.558-.5 1.778-.641 1.848-4.687 1.492-2.275-.143-4.477 0-4.833.356-.427.427-1.278-.07-2.134-1.207l-1.49-1.917 1.919-2.062c1.064-1.139 2.91-2.132 4.05-2.344 1.206-.144 2.698-.5 3.481-.781 1.846-.782 5.469-1.638 7.53-1.709 1.563-.07 1.492.071-.708 1.283zm-80.29 52.152c.356-.144.5.28.285.849-.285.57-.707 1.068-1.063 1.068s-.854.072-1.139.143c-.285.137-.566-.926-.708-2.275-.214-2.416-.214-2.416.92-1.068.571.783 1.353 1.353 1.705 1.283zm13.5-1.639c.926.571.926.712-.142.712-.636 0-1.419-.356-1.633-.712-.567-.922.355-.922 1.775 0zm-4.473 2.558c-.214.215-.855.286-1.353.073-.566-.214-.352-.429.427-.429.785-.07 1.207.144.926.356zm1.42 2.561c-.213.566-.427.356-.427-.427-.071-.785.141-1.207.356-.926.214.214.285.855.071 1.353zM7.179 135.706c-.641.569-1.775 1.135-2.558 1.205-.78.071-1.421.5-1.421.997 0 .5-.283.922-.568.922-.352 0-1.208.498-1.99 1.068-1.208 1.064-.993 1.064 3.128.849 5.614-.356 6.182 1.283.637 2.063-3.339.498-4.188.924-3.695 1.705.215.356.783.712 1.139.712.429 0 .566-.285.358-.571-.499-.851 4.829-.07 5.397.856 1.066 1.561.566 2.554-1.209 2.554-1.064 0-1.776.426-1.776.997 0 .712.854.922 3.414.782 1.917-.141 4.331.211 5.611.852 2.769 1.278 9.023 1.49 11.933.426 3.98-1.49 7.108-2.487 10.376-3.409 4.477-1.282 9.164-4.336 9.164-5.97 0-.782-.849-1.631-2.131-2.202-1.136-.499-1.919-1.134-1.705-1.49.213-.358-.07-.641-.566-.641-.57-.073-.356-.5.496-1.136 1.35-1.068 1.28-1.139-1.208-.712-1.49.285-2.772.143-3.057-.286-.708-1.134-3.195-.849-3.195.356 0 .642-.641 1.066-1.563 1.066h-6.041c-3.409 0-4.548.283-5.114 1.28-.641 1.137-.711 1.137-1.138-.071-.708-1.704-2.485-1.49-2.485.286 0 .992-.356 1.348-1.068 1.134-.564-.285-1.205-.142-1.42.214-.782 1.205-1.634.783-1.278-.641.215-.922-.426-1.704-2.272-2.839-3.058-1.777-2.846-1.777-4.195-.356zM68.354 157.8c-.78.712-.57 2.488.142 1.99.356-.21.926 0 1.207.427.212.427.071 1.068-.354 1.349-.639.356-.497.782.354 1.494 1.139.851 1.209.851.783-.212-.215-.712-.144-1.422.285-1.634.356-.285.497-.712.283-1.068-.212-.356-.071-.78.358-1.065.352-.213.707-.854.707-1.281 0-.566-.214-.566-.636.142-.429.641-.785.712-1.068.144-.571-.852-1.349-.993-2.061-.286z" />
            <path
                d="M83.557 175.278c-.427.429-.779 1.212-.779 1.705 0 1.068-2.986 1.919-5.332 1.496-1.276-.285-2.061.071-2.839 1.349-1.846 2.773-3.909 4.548-4.692 4.121-.351-.285-1.134-.07-1.775.356-.779.708-.851 1.135-.144 1.99.5.564.856 1.205.785 1.349-.144.071-.215.426-.215.712 0 .351.286.137.642-.427.356-.57.778-.641 1.063-.214.215.426-.641 1.134-2.06 1.563-1.349.426-2.483 1.134-2.483 1.49 0 .427.563.356 1.419-.071 1.134-.566 1.419-.566 1.419.285 0 .569.571 1.139 1.278 1.349.927.212.783.427-.707 1.068-1.141.427-1.99 1.134-1.99 1.49 0 1.139 1.419 1.634 2.417.856.992-.785 1.848-.356 1.848.92 0 .428-.358.285-.714-.286-.568-.92-.712-.849-.712.215 0 1.068.356 1.211 2.133.855 1.776-.356 2.061-.285 1.705.637-.214.639-.707 1.139-1.063 1.139-.429 0-.358.707.141 1.49.427.856.993 1.278 1.278.926.712-.997 5.755-.997 5.326 0-.141.423.286 1.491.997 2.198 1.278 1.497 1.278 3.909-.141 4.762-.427.286-1.99.359-3.409.144-1.634-.144-2.702 0-2.702.427 0 .422.356.566.712.351 1.278-.778.778.286-.856 1.78l-1.632 1.563 1.776-.285c3.124-.427 2.631 1.919-.712 3.268-3.975 1.561-3.695 3.48.641 3.694 3.409.142 5.967 1.705 2.843 1.705-1.704 0-4.904 2.273-4.904 3.484 0 .281-1.136 1.135-2.489 1.847-1.349.78-2.269 1.492-2.056 1.704.78.781 2.697.637 4.331-.426.997-.642 2.417-.925 3.624-.712 1.494.285 2.346 0 3.199-.922.922-1.139 1.919-1.28 6.111-1.068 2.768.144 5.043 0 5.043-.352 0-.285 1.349-.497 3.054-.426 3.128.214 9.027-1.847 9.027-3.058 0-.423-.5-.778-1.07-.778-1.349 0-1.42-1.849-.071-2.346 1.99-.785 3.409-3.838 2.631-5.399-.997-1.776-4.692-2.631-6.325-1.353-1.064.782-1.135.782-.283-.211.711-.924.711-1.565 0-3.199-.425-1.136-.852-2.412-.852-2.768-.07-.926-2.06-2.845-3.909-3.909-.782-.427-1.704-1.634-1.917-2.702-.711-2.697-2.56-5.043-3.979-5.114-1.705 0-1.634-2.275.141-3.55.781-.571 1.422-1.426 1.422-1.849 0-.497.497-1.424 1.134-1.99 1.709-1.775.5-2.558-3.975-2.558-2.273 0-4.407-.356-4.619-.712-.214-.424-.073-.707.356-.707.493 0 1.634-.641 2.627-1.426.995-.778 1.565-1.42 1.28-1.42-.356 0 .071-.707.851-1.633.783-.85 1.634-1.917 1.846-2.346.641-1.064-2.697-1.064-3.694-.071zm-13.571 9.735c0 .356-.356.712-.778.712-.356 0-.498-.356-.286-.712.215-.427.571-.708.781-.708.141 0 .283.281.283.708z" />
            <path
                d="M60.253 197.662c-1.704.566-5.043 4.402-3.765 4.402.427 0 .568.356.356.712-.214.428-1.848.57-3.624.428-2.487-.285-3.268-.072-3.836.993-.499.924-.429 1.424.213 1.632.641.285.641.5 0 1.282-1.349 1.349-1.135 1.849.851 2.346 2.487.637 2.202 1.846-1.064 4.261-2.631 1.987-3.838 4.689-2.06 4.689.356 0 .497.356.212.851-.356.571-.142.641.641.356.708-.214 1.207-.141 1.207.285 0 1.205 5.47 0 9.092-1.919 1.777-.922 4.194-1.704 5.472-1.704 1.988 0 2.343-.286 3.057-2.773.498-1.49.85-3.98.85-5.541 0-2.341.285-2.982 1.775-3.623 2.061-.922 2.275-2.698.5-4.829-1.42-1.634-7.033-2.702-9.877-1.848zM138.625 271.125c-.285.641-1.282 1.353-2.204 1.565-.927.21-1.776.993-1.92 1.705-.426 1.848.637 5.187 1.99 6.18 1.137.782 1.066.997-.712 2.131-1.49.997-2.06 1.138-2.487.427-.422-.642-.708-.498-.922.426-.212.785.071 1.99.57 2.702.567.708.85 1.986.637 2.77-1.063 5.612-1.063 6.039.498 6.894 1.278.637 1.704.566 2.416-.427.496-.712 1.422-1.07 1.99-.855 1.349.57 1.776-.779 1.99-6.819.21-4.05 0-5.047-1.068-5.826-1.134-.855-1.207-1.282-.499-3.694.926-2.987.714-9.24-.279-7.179zM211.164 315.532c-.283.212-.498.997-.498 1.632 0 .926.854 1.353 2.983 1.709 1.638.28 3.199.78 3.414 1.207.285.426 1.917.426 4.258.141 3.628-.568 4.977-1.49 2.916-2.202-.641-.214-.782 0-.426.641.426.708.141.637-.781-.143-.712-.639-2.914-1.21-4.904-1.28-1.919-.144-3.694-.496-3.765-.852-.144-.356-.57-.426-.993-.212-.426.283-.926.071-1.211-.358-.283-.427-.708-.568-.993-.283z" />
        </g>
    </g>
</svg>