<svg stroke-width=".501" stroke-linejoin="bevel" fill-rule="evenodd" xmlns="http://www.w3.org/2000/svg"
    overflow="visible" viewBox="0 0 384 384">
    <g fill="none" stroke="#000" font-family="Times New Roman" font-size="16">
        <g fill="#000" stroke-linejoin="miter" stroke="none" stroke-width=".065" stroke-miterlimit="79.84">
            <path
                d="M124.703.325c-1.114.389-1.836 1.113-1.836 1.835 0 .653-.393 1.179-.916 1.179-.458 0-1.637.592-2.557 1.31-.981.787-2.621 1.309-4 1.309-1.507 0-2.553.329-2.751.985-.263.657-.92.851-1.836.592-2.688-.657-6.29 4.717-5.703 8.389 0 .328-.263.526-.652.526-.855 0-2.558 1.638-2.558 2.421 0 .328-.854 1.117-1.966 1.705-1.377.852-1.77 1.507-1.507 2.294.263.592-.855-.263-2.493-1.966-2.488-2.621-6.618-5.113-8.519-5.113-.328 0-.588.851-.588 1.836 0 1.311.455 2.164 1.638 2.751.851.461 1.771 1.446 2.03 2.099.196.722.656.985 1.115.722.526-.263.461-.065-.065.587-.985 1.248-.461 4 .981 5.244.526.459 1.314 1.577 1.703 2.492.92 2.164 1.248 13.566.461 14.092-.461.263-.394.852.065 1.703.722 1.442-.328 5.835-1.44 5.835-.33 0-.591.394-.591.851 0 .459-1.048 1.248-2.297 1.768-1.637.657-2.29 1.314-2.29 2.362 0 .787-.459 1.573-.985 1.836-.718.261-.916.852-.653 1.901.39 1.374.065 1.703-2.558 2.684-2.884 1.117-3.014 1.313-3.014 3.671 0 1.573-.328 2.623-.985 2.886-.522.198-.981 1.114-.981 1.966 0 .983-.526 1.964-1.312 2.358-.722.394-1.181.985-.985 1.375.855 1.315.92 5.835.133 5.835-.461 0 .196.854 1.374 1.901 1.118 1.05 2.099 2.229 2.099 2.625 0 .389.329.718.657.718.394 0 .653-.329.653-.786 0-.393.13-.591.328-.393.526.526-.39 2.488-1.179 2.488-.394 0-1.836 1.248-3.276 2.756-2.294 2.557-2.492 3.079-2.098 5.439.198 1.442.789 3.08 1.309 3.671 1.118 1.179 1.316 2.554.329 2.554-1.704 0-.329 2.034 2.231 3.343 2.162 1.05 3.341 2.294 4.717 4.787.985 1.835 2.426 4.191 3.211 5.309.787 1.046 2.36 4.191 3.604 6.882 1.183 2.686 2.69 5.702 3.408 6.683.657.92 1.183 2.164 1.183 2.625 0 .52.587 1.507 1.309 2.16.722.657 1.31 1.703 1.31 2.36 0 .657.263 1.309.591 1.507 1.377.855 5.375 7.736 5.046 8.652-.589 1.573.789 4.13 4 7.341 3.08 3.145 11.995 8.782 15.796 10.03 1.112.39 2.097.916 2.097 1.179s1.049 1.047 2.293 1.771c1.248.656 2.294 1.44 2.294 1.768 0 .657 1.703 2.427 2.295 2.427 1.179 0 3.343 3.015 4.065 5.764 1.897 7.08 3.343 22.419 2.029 22.419-.259 0-.522.718-.522 1.638 0 .916.198 1.638.522 1.638.92 0 1.703 26.808.787 29.101-.393 1.05-.261 2.097.461 3.406.653 1.381.851 2.888.52 5.244-.324 2.557-.065 3.999.988 6.426.718 1.704 1.309 3.67 1.309 4.39 0 .656.328 1.248.657 1.248.389 0 .718 1.244.652 2.749 0 1.573 0 3.409.066 4.133.065 1.374-.455 8.978-1.047 14.419-.132 1.769-.328 3.996-.328 4.849 0 1.113-.263 1.442-1.048 1.113-.853-.328-.985-.065-.59 1.375.196 1.052.853 2.297 1.375 2.886.526.526.92 1.442.92 1.901 0 .461.783 2.164 1.703 3.804 1.179 2.027 1.572 3.406 1.311 4.717-.591 3.013.329 8.322 1.703 9.829.657.722.92 1.314.459 1.314-.459 0-.589.652-.328 1.968.198 1.046.591 2.947.789 4.061.718 3.867 2.817 5.046 4.192 2.425.591-.985.526-1.573-.066-2.295-.393-.526-.526-.916-.263-.916s.133-.459-.324-.985c-.459-.522-.592-.981-.263-.981.263 0 .198-.328-.261-.789-1.118-1.112-.987-2.031.261-1.573.785.329.983.133.653-.591-.196-.587-.131-.849.263-.653.395.198.656.851.656 1.377 0 .524.329.92.72.92.329 0 .524.257.329.52-.198.328-.066 1.573.263 2.821.328 1.244.722 3.671.981 5.441.196 1.834.722 3.474 1.115 3.733.592.393.461.657-.458.985-.718.263-1.508.591-1.706.657-.195.126-.328-.592-.195-1.577.195-1.77-.588-2.751-2.23-2.751-.522 0-.652.328-.324.787.849 1.442.783 2.488-.198 2.488-.459 0-1.183.592-1.572 1.244-.79 1.577-.855 2.756-.066 1.446.849-1.378 3.341.26 3.341 2.226 0 .92-.328 1.638-.722 1.638-.459 0-.587.723-.393 1.968.263 1.248.065 2.229-.523 2.886-.524.522-.787 1.44-.591 1.966.461 1.244 2.033 1.377 2.362.324.196-.587.653-.587 1.703 0 .785.461 1.77.592 2.099.394.389-.196.455.067.259.591-.194.592-.133 1.049.263 1.049 1.181 0-.198 3.538-1.705 4.328-.784.393-1.244.913-.916 1.177.263.263.457.724.457.919.13 1.31 1.183 3.408 1.707 3.408.324 0 .522.198.457.457-.133.92 1.248 3.802 2.294 4.722.592.459 1.245 1.703 1.442 2.749.261 1.053.722 1.969 1.051 1.969.324.065.981.13 1.442.195.393 0 .981 1.245 1.177 2.691.197 1.442.46 2.29.526 1.962.065-.39.718.328 1.507 1.511 1.046 1.703 1.703 2.095 2.817 1.836.92-.263 1.966.126 3.016 1.111.851.786 1.771 1.377 2.03 1.245.328-.066.526.197.526.591 0 .72-.851.591-3.606-.394-.851-.328-.588.198.92 1.573 1.572 1.507 2.358 1.901 2.686 1.309.722-1.046 2.031-.126 1.505 1.118-.196.526-.13.916.198.85 1.118-.263 2.886.853 2.886 1.769 0 .591.72.92 1.964.92 1.509 0 1.834-.263 1.509-1.051-.195-.587-.852-.916-1.572-.718-.722.196-1.248.066-1.248-.263 0-1.244 2.625-.526 3.343.849.461.854.722 1.644.656 1.835-.065.198.329.592.981.985.657.329 1.577 1.049 2.099 1.508 1.118 1.048 2.099 1.048 2.099-.066 0-.526.196-.458.657.198.328.524.85.981 1.111 1.047.263 0 1.377.393 2.362.789 1.046.459 2.099.657 2.423.459.328-.198.722-.065.985.324.263.394.718.526 1.047.329.328-.264.591-.131.591.263 0 .393 1.309.656 2.947.591 1.64 0 3.408.328 3.935.783.591.461 1.244.657 1.507.396.263-.263-.133-.916-.785-1.377-1.051-.854-.788-.92 2.553-.656 3.08.197 3.671.132 3.343-.653-.196-.592.065-.985.657-.985.526 0 1.113-.461 1.309-.981.263-.527.724-.985 1.053-.985.389 0 .324.393-.133.985-.657.783-.657.981.259.981.592 0 1.053-.522 1.053-1.31 0-1.048-.461-1.311-2.297-1.311-3.408 0-10.486-3.735-14.355-7.538-1.901-1.901-3.275-3.737-3.145-4.131.133-.389-.591-1.179-1.507-1.835-2.162-1.44-5.57-6.29-5.57-8.059 0-.92.524-1.507 1.638-1.77 1.966-.461 2.557-2.099 1.637-4.526-.783-2.027-.458-2.619 3.08-5.764 1.248-1.118 1.966-2.229 1.707-2.69-.261-.394-.589-1.31-.656-1.966-.329-2.032-1.506-3.013-3.539-3.013-2.099 0-6.229-2.231-7.079-3.869-1.506-2.684 1.048-6.618 4.324-6.618 1.641 0 2.557-.985 1.445-1.703-.526-.329-.46-.592.131-.92.653-.457.587-1.114-.263-3.278l-1.05-2.817 1.966-1.835c1.117-1.051 2.427-1.901 2.953-1.901 1.046 0 1.179-1.507.259-3.276-.587-1.052-1.179-1.244-3.541-.92l-2.882.394-1.572-3.473c-.92-1.967-1.375-3.672-1.05-3.737.328-.13 1.768.198 3.214.789 3.08 1.245 5.178 1.31 7.469.261 1.703-.722 2.229-2.688.92-3.538-.461-.263-.526-1.314-.263-2.688.328-1.706.13-2.621-.722-3.541-1.114-1.244-1.114-1.31.065-.851.854.327 1.05.259.722-.261-.328-.591.394-.789 2.558-.789 7.014 0 16.059-3.276 16.059-5.768 0-.653.257-1.442.588-1.77 2.294-2.554 1.966-8.191-.526-8.191-1.31 0-2.03-1.179-2.03-3.539 0-1.705-1.572-3.278-4.721-4.85-1.177-.657-2.291-1.703-2.422-2.427-.197-1.245-.197-1.245 1.047-.196.722.657 2.229 1.181 3.343 1.181 1.181 0 2.096.259 2.096.587 0 .855 3.08 1.573 7.539 1.705 5.441.263 7.862-1.179 8.586-4.85.263-1.112.592-2.031.851-2.031.787 0 2.49-3.541 2.951-5.962.263-1.511 1.244-3.019 2.686-4.328 1.638-1.442 2.162-2.362 1.834-3.211-.394-.985-.459-.985-.916.329-.524 1.309-2.294 2.488-2.886 1.901-.196-.133.394-1.314 1.314-2.493.915-1.244 1.639-2.882 1.639-3.606 0-.852.39-1.44 1.047-1.44.722 0 .92.459.722 1.508-.131.848.132 1.638.587 1.833.592.198 1.118-.591 1.638-2.425 1.705-6.159 2.099-7.079 3.934-9.045 2.558-2.687 3.409-7.014 2.23-10.488-.855-2.356-1.112-9.764-.394-9.566.526.131 5.966-5.441 5.966-6.098 0-.328.916-.718 1.966-.981 1.114-.263 1.966-.722 1.966-1.118 0-.389.851-.52 2.293-.261 1.44.261 2.294.196 2.294-.259 0-.328-.328-.657-.722-.657-.324 0-.522-.263-.324-.591.718-1.114 8.913-3.408 12.386-3.408 3.343-.066 3.606-.198 3.931-1.836.263-.981 1.248-2.16 2.492-2.882 1.638-.92 1.966-1.442 1.638-2.625-.328-1.309.854-4.389 4.587-11.664.591-1.112.722-2.817.524-4.981-.328-2.558-.196-3.473.789-4.393 1.114-1.112 1.901-6.486 1.703-11.863 0-1.111-.13-4.913-.261-8.519-.263-6.229.196-8.195 1.834-8.195.72 0 2.164-2.029 3.606-5.244 2.295-5.176 2.817-6.027 4.389-7.469 2.032-1.901 7.21-9.111 7.999-11.142 1.506-3.935 1.441-8.652-.197-14.42-.92-3.145-1.836-5.901-2.034-6.098-.261-.26-2.162-.653-4.26-.916-4.194-.459-4.259-.524-9.568-5.638-1.966-1.835-5.177-4.324-7.21-5.439-3.276-1.901-3.867-2.034-6.488-1.442-2.097.461-3.28.328-4.589-.329-.981-.522-2.034-.718-2.423-.522-.329.259-1.379 0-2.23-.589-1.966-1.312-5.835-2.034-5.243-.987.328.526 0 .591-1.051.263-1.901-.653-3.08-1.769-2.751-2.684.13-.461-.198-1.249-.787-1.771-.523-.591-.984-1.309-.984-1.703 0-.396-.261-.724-.656-.724a.657.657 0 00-.653.657c0 .72-4.656-1.248-5.374-2.295-.263-.393-.526-.393-.526-.065s-.394.198-.916-.198c-.92-.718-2.558-1.244-5.44-1.703-1.77-.263-4.065 1.31-4.852 3.408-1.048 2.754-1.244 1.375-.263-1.442 1.313-3.802 1.248-4.065-1.442-4.454-1.507-.263-2.817-.985-3.343-1.771-.459-.722-1.177-1.313-1.703-1.313-.916 0-.916-.916 0-4.718.263-1.309 0-2.294-1.114-3.736-.852-1.047-1.901-1.966-2.229-1.966-.787-.066-2.295-5.114-2.295-7.798 0-1.511-2.553-5.966-2.618-4.591 0 .263-1.64-1.112-3.737-3.08-2.033-1.966-4-3.604-4.461-3.604-.454 0-1.703-.461-2.882-1.048-2.359-1.181-9.961-1.834-10.552-.92-.722 1.179-5.571-.718-8.387-3.341-1.573-1.376-3.145-2.557-3.474-2.557-.328 0-.591-.653-.591-1.508-.067-.785-.592-2.098-1.244-2.882-1.836-2.231-7.21-5.309-8.522-4.98-1.444.389-2.425-.855-1.576-1.968.987-1.31.591-2.689-.914-3.407-.855-.33-1.507-.854-1.507-1.117 0-.325-.527-.522-1.183-.522-.653 0-1.573-.394-1.962-.788-.657-.656-.986-.656-1.446.131-.39.591-.653.657-.653.198 0-.394-.198-1.179-.394-1.771-.263-.656-.067-1.046.524-1.046.523 0 1.508-.461 2.228-.985 1.115-.981.722-.981-4.981-.724-3.408.198-6.423.395-6.686.395-.328 0-.524.394-.524.853 0 .522-.72 1.244-1.573 1.705-1.968 1.046-6.292-.132-6.292-1.705 0-.853-.787-.92-5.57-.524l-5.572.459V8.977c0-1.901-3.145-4.328-5.703-4.328-1.113 0-1.507-.394-1.507-1.508 0-1.9-.461-2.427-1.705-1.966-.524.196-.916 1.244-.916 2.558 0 1.835-.261 2.29-1.768 2.619-1.053.263-2.69 1.052-3.737 1.77-1.638 1.183-1.901 1.183-1.507.263.194-.591.127-1.113-.198-1.113-.393 0-.657-.592-.657-1.314 0-.783.461-1.309 1.049-1.309 1.181 0 2.82-1.771 2.886-3.08 0-1.31-2.164-2.032-4.065-1.244zm2.755 15.466c0 1.573-1.052 3.278-1.968 3.278-.261 0-.852-1.114-1.313-2.554-.718-2.229-.653-2.69.393-3.934l1.183-1.375.851 1.507c.459.783.787 2.16.854 3.078zm12.256 143.738c.916 1.047 1.244 1.836.851 2.422-.461.789-.655.724-1.049-.192-.195-.592-.787-1.118-1.248-1.118-.455 0-.981-.587-1.179-1.309-.459-1.771.855-1.638 2.625.197zm126.694 42.406c0 .328-.133.652-.263.652-.198 0-.522-.324-.72-.652-.196-.394-.065-.657.263-.657.392 0 .72.263.72.657zm-24.449 42.735c-.196.521-.393.329-.393-.393-.066-.724.132-1.114.328-.855.198.196.263.787.065 1.248zm-47.32 68.031c.197.328-.196.657-.92.657-.784 0-1.375-.329-1.375-.657 0-.39.394-.653.916-.653.526 0 1.183.263 1.379.653zm-35.459 10.816c-.263.524-.657.787-.985.592-.718-.396-.132-1.573.722-1.573.328 0 .461.459.263.981zm-1.248 2.36c.657 1.968 0 2.164-.851.263-.393-.92-.458-1.638-.13-1.638s.783.588.981 1.375zm2.951 2.164c0 .132-.459.39-.985.653-.52.197-.981.065-.981-.263 0-.39.461-.653.981-.653.526 0 .985.132.985.263zm29.495 41.683c0 1.573 1.112 2.229 3.604 2.099 1.901-.131 1.901-.065.461.722-.79.457-1.248 1.113-.985 1.507.328.328-.068 0-.72-.722-.92-.981-1.314-1.114-1.573-.461-.13.592-.591.263-1.183-.848-1.046-2.099-1.244-4.526-.261-3.935.394.198.657.985.657 1.638zm-4.263-.065c-.194.394-.916.722-1.507.722-.849 0-.849-.131.263-.918 1.377-.983 1.966-.916 1.244.196zM230.684 359.83c-.718.328-1.768.394-2.29.196-.787-.263-.855-.131-.131.587 1.112 1.183.981 2.625-.198 2.164-1.835-.722-.985.985.916 2.034 1.901.981 1.967.916 4.065-1.508 1.114-1.376 1.836-1.835 1.573-1.117-1.179 3.149-1.179 3.606.065 3.606.724 0 2.69-.851 4.393-1.901 2.817-1.64 3.015-1.897 2.03-2.752-.588-.526-2.489-.981-4.126-1.046-1.64 0-3.476-.263-4-.396-.526-.195-1.573-.13-2.297.133z" />
        </g>
    </g>
</svg>