<svg stroke-width=".501" stroke-linejoin="bevel" fill-rule="evenodd" xmlns="http://www.w3.org/2000/svg"
    overflow="visible" viewBox="0 0 384 384">
    <g fill="none" stroke="#000" font-family="Times New Roman" font-size="16">
        <g fill="#000" stroke-linejoin="miter" stroke="none" stroke-width=".061" stroke-miterlimit="79.84">
            <path
                d="M155.019 1.166c-2.09 1.167-5.163 1.289-6.698.308-.369-.247-.924-.061-1.17.308-.304.551-.859.551-2.148-.061-1.355-.616-1.782-.616-2.029 0-.124.365-.678.734-1.29.734-.555 0-1.415.369-1.782.74-.616.612-1.046.612-1.966 0-1.66-.987-3.381-.924-11.676.43-6.945 1.167-11.06 2.58-11.06 3.869 0 .307-.43.493-.924.307-.493-.244-1.044-.122-1.227.186-.247.369-.801.616-1.291.616-.491 0-1.597.673-2.459 1.535-.859.859-1.843 1.537-2.275 1.599-1.536.122-3.808-.186-4.299-.616-.247-.247-2.029-.247-3.996 0-3.869.554-6.144-.369-6.695-2.58-.369-1.231-1.232-1.478-2.398-.677-.369.247-1.352 1.966-2.151 3.811-2.088 4.978-3.503 6.636-7.311 8.418-3.688 1.782-7.375 5.038-7.375 6.576 0 .551-.615 1.904-1.352 2.887-1.105 1.475-1.413 2.702-1.413 5.773 0 2.337-.308 4.243-.738 4.674-.432.428-.797 1.105-.797 1.474 0 .308-.985 1.474-2.215 2.457-1.227 1.046-2.763 2.337-3.44 2.949-1.413 1.292-4.916 2.889-6.329 2.889-1.352 0-2.212.983-3.811 4.425-.797 1.658-1.66 2.948-1.904 2.948-1.66 0-5.041 5.039-5.041 7.559 0 1.474-1.597 3.932-4.052 6.268-.74.677-1.968 2.888-2.769 4.915-.734 2.028-1.839 4.057-2.455 4.424-.554.431-1.228 1.783-1.474 3.075-.186 1.289-.555 3.01-.74 3.807-.247 1.048-.123 1.352.493 1.171.43-.123 1.474.426 2.212 1.227 1.414 1.536 1.846 3.195.859 3.195-1.042 0-1.35 3.073-.369 4.485 1.294 1.845 1.17 7.13-.304 10.878-.677 1.721-1.231 3.807-1.231 4.733 0 1.843-3.01 6.943-4.116 6.943-.432 0-.801.243-.801.612 0 .308.432.615.924.615.551 0 1.227.737 1.598 1.66.369.981.92 2.214 1.228 2.765.308.616.308 1.165-.061 1.411-.371.186-.616 1.66-.616 3.257.061 2.4.369 3.195 1.844 4.673 2.028 1.964 2.397 3.012.862 2.396-.801-.31-.924-.124-.555 1.104.677 2.153 1.106 2.397 2.459 1.355.859-.677.983-1.048.49-1.231-.92-.304-1.105-2.025-.247-2.025.308 0 .863.797 1.232 1.839.308.985.921 1.844 1.229 1.844.369 0 .677.432.677.923 0 .494.427.922.92.922.493 0 .92.184.92.491 0 .247 1.417 1.907 3.076 3.75 1.962 2.148 3.071 3.869 3.133 4.916.061 2.58.428 3.93 1.227 4.362.371.247.493.799.31 1.167-.247.369-.186.676.183.676.366 0 .49.369.366.739-.18.489.74 1.229 2.275 1.902 2.584 1.048 4.731 2.767 12.106 9.404 7.435 6.699 9.278 7.249 14.871 4.547 5.898-2.826 15.179-3.072 20.34-.554.675.308 1.721.184 2.765-.367 5.655-2.828 9.894-4.61 11.122-4.61.738 0 1.535-.429 1.721-.859.43-1.167 5.407-2.214 11.123-2.337 3.623-.124 4.608.061 5.713 1.046 1.536 1.413 3.689 5.345 3.689 6.699 0 .489.616 1.535 1.411 2.21 1.044 1.046 1.845 1.231 3.503.924 1.167-.186 3.257-.494 4.609-.616 1.352-.185 3.317-.369 4.423-.493 1.602-.243 2.028 0 2.275 1.17.184.736.924 1.597 1.597 1.782.678.185 1.227.736 1.227 1.166 0 .494.371 1.167.863 1.536 1.166.983.615 6.945-.924 10.016-.795 1.537-.92 2.337-.426 2.457.426.186.55.677.183 1.478-.245.612-.615 2.394-.738 3.93-.308 2.644-1.105 3.935-2.151 3.319-.797-.489-.551 1.228.369 3.196.493.984 1.35 2.889 1.968 4.241.615 1.352 2.151 3.442 3.317 4.608 4.362 4.238 9.831 12.353 9.831 14.623 0 .74.308 1.476.616 1.659.367.247.489.616.305.924-.181.304.308 2.025 1.169 3.807.797 1.782 1.967 4.731 2.641 6.513 1.105 3.195 1.105 3.32-.062 4.119-1.103.859-1.103 1.044.863 5.96 1.352 3.442 1.964 6.024 1.906 7.869-.124 3.193-1.109 6.144-2.153 6.144-1.166.061-3.994 5.161-4.427 8.048-.487 3.689-2.086 9.158-2.579 9.158-.796 0-.43 11.306.432 13.335.43 1.103 1.044 2.025 1.228 2.025.615 0 3.256 5.469 5.897 11.982.554 1.352 1.721 3.688 2.644 5.224 1.291 2.214 1.66 3.627 1.721 7.067.061 2.333.369 5.653.737 7.372.369 1.66 1.107 5.532 1.657 8.544 1.171 6.327 2.029 8.295 5.224 11.798 1.475 1.596 2.767 3.994 3.689 6.759 1.474 4.546 3.503 8.972 4.362 9.523.308.185.738 1.599.923 3.195.369 2.398.245 2.891-.554 2.891-.49 0-1.044.366-1.228.735-.246.862.738 2.95 1.658 3.627.308.247.432 1.105.247 1.968-.431 2.086.493 3.564 1.352 2.27.369-.612.615-.674.615-.184 0 .43.366.799.798.799.491 0 1.35.555 1.965 1.23 1.352 1.535 2.58 1.535 4.116.183.739-.673 2.09-1.042 3.688-.981 1.413.062 3.134-.307 3.995-.862 1.782-1.166 6.207-1.474 9.585-.673 1.599.365 2.641.365 3.196-.124.493-.369 1.474-.616 2.275-.494.796.125 1.35-.122 1.289-.491-.061-.428 1.044-.859 2.518-.983 3.261-.369 9.466-4.423 12.969-8.356.673-.801 2.271-2.459 3.625-3.689 2.272-2.212 6.513-8.234 6.513-9.276 0-.801 4.115-4.977 4.916-4.977.675 0 1.783-2.276 3.318-7.068 1.105-3.442 1.352-7.987.367-7.375-1.105.677-.612-.797.8-2.457.736-.862 3.319-2.337 5.656-3.318 3.132-1.227 4.669-2.275 5.711-3.75.863-1.288 1.167-2.271.802-2.64-.369-.369-.369-1.171.061-2.213.797-1.967.673-6.884-.123-7.681-.37-.369-.615-.923-.615-1.231 0-.366.308-.243.615.246.488.74.612.677.612-.489 0-.738-.307-1.293-.736-1.232-.43.125-.738-.673-.799-1.962-.063-1.17-.432-2.214-.859-2.336-.371-.125-.678-.863-.678-1.599 0-1.597 5.531-7.74 7.006-7.74.554 0 .983-.247.983-.494 0-.246.491-1.166 1.107-1.967 2.21-3.01 4.486-4.792 7.926-6.205 1.967-.739 3.688-1.597 3.874-1.783.18-.246.734-.676 1.289-.984 1.596-.859 5.711-6.452 6.574-8.97.612-1.783.612-2.888.124-4.917-.432-1.474-.677-6.084-.616-10.631.184-10.263.247-9.831-1.413-10.567-1.166-.555-1.721-1.597-2.459-4.916-1.352-5.347-1.291-6.146.184-6.517.677-.18 1.231-.673 1.231-1.042 0-.432-.43-.616-.923-.371-1.228.432-1.966-1.289-1.106-2.641.494-.799.247-1.535-1.107-3.193-.983-1.109-1.778-2.522-1.778-3.012 0-1.293 2.025-7.006 2.641-7.436.615-.433 3.44-6.945 3.933-9.032.182-.738.92-1.66 1.597-2.029 1.902-1.045 5.101-4.487 6.329-6.759 2.641-5.224 10.936-14.135 15.974-17.33 3.32-2.086 13.089-12.779 13.15-14.378 0-.247.987-2.029 2.154-3.872 1.166-1.843 2.151-3.807 2.151-4.423 0-1.228 3.746-9.282 4.484-9.586.246-.122.432-.491.432-.862 0-.308.673-1.966 1.535-3.687.859-1.66 1.536-3.993 1.536-5.22 0-1.599.308-2.214 1.228-2.459 1.29-.371 1.659-1.167.615-1.538-.552-.183-.86-3.44-.491-5.654.308-1.721-2.276-2.455-3.628-1.044-1.35 1.352-6.635 3.195-7.926 2.704-.491-.186-1.596 0-2.397.43-.798.432-2.087.616-2.825.432-.797-.246-1.967.123-3.011.92-1.228.862-2.337 1.17-3.748.985a5.953 5.953 0 00-3.932.797c-3.195 1.968-5.532 1.17-7.991-2.702-.612-.925-1.721-1.845-2.579-2.029l-1.475-.371 1.413-.734c2.337-1.17 2.09-2.949-.858-6.025-1.478-1.536-3.075-3.379-3.564-4.115-.494-.677-1.171-1.289-1.536-1.289-.308 0-1.109-.862-1.66-1.843-.615-1.048-1.535-2.029-2.151-2.276-.616-.246-1.474-.797-1.906-1.227-.431-.37-1.167-.616-1.597-.433-.554.186-.92-.246-1.105-1.227-.247-1.106-.061-1.597.551-1.597.738 0 .738-.124-.062-.923-1.166-1.23-1.413-1.167-1.845.43-.365 1.413-.426 1.413-1.289.185-.551-.679-1.227-2.336-1.535-3.688-1.721-7.068-2.58-8.846-5.59-11.183-3.442-2.702-4.304-4.669-4.489-10.632-.123-2.332-.551-4.669-.92-5.162-.43-.551-.863-1.66-.924-2.517 0-.862-.185-1.537-.365-1.537-.185 0-1.478-1.043-2.952-2.337-2.888-2.578-4.609-6.882-2.702-6.882.677 0 .491-.428-.679-1.474-.859-.798-2.333-3.073-3.379-5.039a118.609 118.609 0 00-3.134-5.96c-.673-1.289-1.289-2.641-1.289-3.071 0-.432-.493-1.474-1.044-2.276-.616-.858-1.17-2.028-1.231-2.64-.121-.677-1.167-2.276-2.333-3.687-1.167-1.352-2.151-3.134-2.151-3.874 0-.796-.247-1.536-.555-1.782-.367-.184-.797-2.27-1.044-4.607-.184-2.333-.734-4.732-1.166-5.348-1.597-2.148-8.911-1.411-11.613 1.17-.74.675-1.782 1.044-2.522.859-.673-.123-2.456-.612-3.993-.92-1.535-.369-3.318-.924-3.995-1.231-2.214-.981-6.329-1.779-7.864-1.475-1.167.247-1.66 0-1.968-.981-.308-.983-.92-1.29-2.337-1.29-3.317 0-6.388-1.171-6.755-2.46-.184-.736-.863-1.227-1.54-1.227-.734 0-1.474-.308-1.659-.616-.92-1.474-6.756-.124-9.523 2.213-1.907 1.659-2.455 4.422-1.289 6.329.981 1.597-1.476 4.914-3.689 4.977-.493 0-2.028-.797-3.38-1.721-2.517-1.845-6.389-3.195-8.907-3.195-2.152 0-4.058-1.535-4.549-3.75-.308-1.227-.983-2.086-2.025-2.518-.924-.369-2.461-1.042-3.442-1.597-1.109-.554-3.196-.923-5.039-.862-2.029.061-4.058-.365-5.717-1.105-2.456-1.228-4.115-3.133-3.318-3.934.185-.181-.061-.365-.616-.365-.55 0-1.044.243-1.044.612 0 1.046-1.782.677-2.455-.551-.493-.985-.247-1.478 1.228-2.769 1.044-.856 2.271-1.411 2.765-1.227.491.246.923.061.923-.369 0-.369-.308-.49-.616-.308-.432.247-.493-.427-.246-2.025.308-2.09.183-2.584-.92-3.134-1.537-.863-1.66-2.213-.308-3.565.492-.554.796-1.353.612-1.843-.182-.493-.059-.677.247-.493.369.185.615.124.615-.184 0-1.166-.862-1.291-1.967-.308-1.105.985-1.167.985-1.474-.243C160.609.981 159.134.061 157.599 0c-.186 0-1.352.55-2.58 1.166zm117.242 198.42c.493.673.555 1.289.124 1.778-.307.432-.432.985-.246 1.295.369.673-.92 3.807-1.599 3.807-.308 0-.491.308-.491.677 0 .43-.49 1.105-1.044 1.535-1.042.801-1.042.924 0 1.721 1.535 1.228.615 1.597-2.641.981-1.658-.304-3.075-.243-3.503.061-1.17.987-1.474-.365-1.107-4.791.615-6.575.677-6.76 3.193-7.557 1.295-.431 2.583-.985 2.891-1.228.675-.677 3.442.365 4.423 1.721zm-21.26 23.592c0 .926.308 1.846.674 2.029.369.247.493.863.307 1.352-.183.493-.061 1.474.308 2.214.555.981.555 1.35 0 1.536-1.227.43-.738 2.583.801 3.132 1.475.618 2.211 1.845 2.211 3.811 0 .675.677 2.58 1.536 4.239 1.904 3.75 1.904 3.811 0 2.953-.983-.432-1.475-1.048-1.228-1.599.183-.43-.124-1.415-.616-2.151-.489-.738-.922-1.721-.922-2.151 0-.493-.799-1.844-1.843-3.01-.981-1.105-1.904-2.522-1.967-3.134 0-.555-.123-1.906-.245-2.887-.125-1.048-.306-4.058-.429-6.76-.185-4.427-.122-4.735.551-3.075.43.985.801 2.582.862 3.501zm22.119 28.144c.371.679.74 2.522.862 3.996.061 1.536.493 3.134.859 3.504.923.919.985 3.378.124 3.872-.859.55-.367 9.092.553 9.4.371.124.678.493.678.797 0 .369-.246.431-.615.247-.308-.185-.616-.061-.616.247a.682.682 0 01-.675.677c-.369 0-.491-.555-.247-1.232.247-.736.125-1.598-.183-2.025-.616-.801-1.536-5.532-1.413-7.499.43-7.311.307-9.401-.369-10.751-.432-.862-.798-1.721-.798-2.029 0-.923 1.228-.37 1.84.796zM341.329 263.738c-.489.795-.919 2.336-1.044 3.503-.183 2.578-.554 2.948-2.029 2.029-.981-.618-1.227-.618-1.227.122 0 .49.369 1.044.801 1.228.365.185.119.185-.616 0-1.413-.308-1.66.061-1.474 2.333.061.554-.186 1.17-.555 1.416-.307.182-.615.92-.615 1.536 0 .797-.304 1.044-.92.859-.555-.247-.922 0-.922.554 0 1.228-4.363 4.301-7.683 5.408-1.35.428-2.702 1.044-3.01 1.29-.369.247-1.227.488-2.028.488-1.106 0-1.414.31-1.414 1.66 0 .985-.554 2.522-1.166 3.503-1.228 1.843-1.228 3.318 0 10.385.736 4.119.736 4.243-1.046 7.681-.983 1.905-2.025 3.687-2.272 3.872-2.151 1.536-2.948 7.129-1.413 10.017.49.981.736 2.701.551 4.3-.185 1.6-.061 2.828.369 3.075.371.243.679.92.679 1.535 0 1.352 1.843 3.134 3.256 3.134.551 0 1.042.247 1.042.612 0 .924 3.196.677 4.548-.304.677-.493 1.965-.923 2.891-.923 1.843 0 4.237-2.456 4.237-4.24 0-.552.369-1.535.863-2.212.426-.677 1.166-2.765 1.596-4.608.49-1.844 1.352-4.366 1.903-5.594.616-1.227 1.478-3.564 1.843-5.224.432-1.658 1.782-5.65 3.073-8.968 1.293-3.256 2.52-7.006 2.706-8.295.734-4.428.92-5.102 1.721-4.916.734.122.795-.432.061-5.102l-.432-2.767 1.229 1.478 1.232 1.536 1.042-1.966c.736-1.476.859-2.275.371-3.134-.308-.677-.616-2.461-.616-3.935 0-1.474-.308-3.626-.678-4.792-.859-2.702-3.257-7.865-3.622-7.926-.186 0-.74.612-1.232 1.352z" />
        </g>
    </g>
</svg>