<svg stroke-width=".501" stroke-linejoin="bevel" fill-rule="evenodd" xmlns="http://www.w3.org/2000/svg"
    overflow="visible" viewBox="0 0 384 384">
    <g fill="none" stroke="#000" font-family="Times New Roman" font-size="16">
        <g stroke-linejoin="miter" stroke="none" stroke-width=".054" fill="#000" stroke-miterlimit="79.84">
            <path
                d="M305.008 33.646c-1.345.16-2.418.591-2.418.965 0 .376-.482 1.02-1.073 1.447-.591.432-.965.916-.807 1.076.163.162 2.095.375 4.244.534 2.144.109 4.184.485 4.503.808.324.324 1.504.589 2.579.589 1.716 0 2.146-.265 2.792-1.61.802-1.554.802-1.609-.861-2.361-.966-.429-2.307-.857-3.059-1.019-.751-.161-1.822-.376-2.415-.537-.589-.107-2.145-.107-3.485.108zM282.627 36.058c-4.185.647-5.688 1.397-2.789 1.397 1.019 0 2.091.213 2.413.428.376.217-1.019.378-3.06.378-2.737 0-3.862.215-4.238.804-.75 1.238.86 1.772 4.401 1.394 3.273-.319 5.956-1.557 4.615-2.091-.378-.16.107-.16 1.125 0 1.288.215 1.719.162 1.451-.268-.269-.432.053-.645.859-.645.697 0 1.61-.266 2.038-.535.699-.484.699-.593 0-1.074-.965-.59-1.719-.59-6.815.212zM259.928 40.086c-3.544.319-6.118.911-12.128 2.791-.912.27-2.254.481-3.007.481-.749 0-2.094.269-3.059.591-2.037.751-2.306 2.042-.269 1.664.861-.161 1.556.054 1.825.484.376.589.7.535 1.556-.269.751-.698 1.126-.806 1.126-.322 0 .485.484.591 1.718.322 1.61-.322 1.666-.269.7.428-1.022.806-1.022.806.373.86.806 0 2.04-.216 2.79-.538.754-.27 1.396-.377 1.396-.27 0 .163-.642.539-1.449.862-1.288.481-1.395.642-.588 1.073.481.268 1.929.592 3.22.698 1.396.109 2.252.374 2.145.805-.323 1.501 2.682 1.716 9.232.644 3.595-.591 8.694-1.182 11.323-1.34 3.915-.215 5.419-.539 7.675-1.719 3.325-1.718 3.004-2.631-.753-2.416l-2.522.107.858-1.288c.806-1.288.699-1.984-.267-1.984-.269 0-.322.265-.107.643.213.376.158.43-.269.215-.322-.215-1.502-.108-2.627.215-3.867 1.18-3.654 1.073-2.792 1.61.642.428.535.535-.377.535-1.448 0-1.663.913-.268 1.233.483.161-.485.27-2.201.324-1.716 0-3.004-.163-2.844-.428.644-1.023-1.77-2.201-5.097-2.578-3.384-.32-3.437-.372-1.828-1.019.916-.376 1.396-.75 1.074-.804-.265-.053.161-.215 1.022-.43.91-.161 1.61-.591 1.61-.861.054-.696-2.04-.749-7.191-.319zm-1.13 4.936l2.471.43-2.525-.161c-1.341-.108-2.79 0-3.216.268-.539.377-.432.484.372.538.591 0 .806.159.484.265-.322.163-1.179 0-1.878-.265-.911-.376-1.018-.538-.32-.538.48-.053.91-.322.91-.644 0-.375-.644-.428-1.718-.215-1.771.322-1.771.322-.429-.428.913-.484 1.664-.591 2.364-.216.534.269 2.09.696 3.485.966zm1.933-1.126c-.162.269-.803.537-1.394.537-.593 0-.912-.268-.75-.537.157-.322.804-.538 1.395-.538.587 0 .912.216.749.538zm-.537 4.832c.215.322-.374.534-1.45.48-1.66-.054-1.713-.054-.426-.48.751-.217 1.395-.432 1.449-.485.053-.054.268.16.427.485z" />
            <path
                d="M227.567 50.71c-.912.162-1.718.752-2.096 1.556-.319.699-.91 1.288-1.232 1.288-.378 0-1.771.592-3.167 1.342-1.395.753-2.792 1.345-3.111 1.345-.322 0-1.021.319-1.449.749-.483.376-1.986 1.126-3.381 1.663-1.395.539-2.414 1.127-2.257 1.396.108.215.54.322.915.215 1.019-.377 2.683 1.18 2.307 2.145-.482 1.234.806 1.503 3.49.647 1.287-.432 3.329-.808 4.454-.862 1.18-.053 2.738-.535 3.487-1.072 1.825-1.288 7.998-3.328 8.374-2.737.158.215-.539.593-1.504.752-.913.213-2.201.697-2.738 1.127-1.019.804-1.019.804-.051 1.502.91.697.857.805-.7 1.342-1.986.696-2.04.804-.858 1.93.697.753 1.662.806 5.742.538 5.527-.43 5.42-.43 7.565-.323.862.054 1.449.269 1.237.431-.16.16-3.06.375-6.388.485-8.047.159-10.626.641-10.626 1.928 0 1.772 1.503 2.631 4.723 2.631 2.307 0 2.844.16 2.36.644-.372.375-.642 1.019-.642 1.504 0 .806.642.856 4.724.752 2.574-.108 5.903-.43 7.352-.752 1.5-.324 3.756-.697 5.096-.804l2.414-.215-2.144.427c-4.4.914-5.419 1.61-5.1 3.757.053.538-.373.643-1.985.322-2.201-.376-2.681-.644-2.201-1.128.215-.16.806-.054 1.395.268 1.288.699 1.933.162.915-.802-.593-.592-1.076-.647-2.256-.163-3.006 1.181-9.766 1.664-11.645.804-.749-.373-.912-.319-.642.108.265.485-.323.644-2.095.537-2.844-.107-2.253-.752 1.234-1.286 2.791-.432 3.328-1.181 1.772-2.417-.859-.697-2.041-.966-4.24-.912-1.664.053-4.239-.322-5.635-.803-1.394-.485-2.897-.915-3.274-.915-.429 0-1.019-.373-1.395-.804-.912-1.072-5.259-1.072-7.406.053-.965.432-2.199.697-2.79.482-1.126-.372-1.503-1.341-.539-1.341.322 0 .539.215.539.537 0 .269.268.539.591.539.265 0 .428-.217.265-.485-.157-.269.056-.591.485-.803.43-.161.806-.537.806-.861 0-.643-2.579-.161-3.757.754-.75.641-3.541 1.929-4.078 1.929-.11 0-.054-.965.107-2.144.268-1.719.161-2.203-.592-2.472-.481-.213-1.072-.104-1.34.269-.536.915-3.113 2.203-4.347 2.203-.697 0-.912-.27-.644-.915.269-.695.162-.804-.697-.482-.537.27-1.503.536-2.093.59-3.651.537-10.142 1.932-10.896 2.417-.695.427-.534.48.7.265 1.395-.265 1.449-.265.588.269-.749.537-1.288.484-2.415-.054-1.5-.75-6.494-1.019-6.494-.372 0 .265-.48.426-1.019.426-.587 0-1.449.43-1.932.915-1.556 1.556-7.564.641-6.922-1.076.16-.48-.535-.697-2.574-.804-3.703-.161-5.798-.592-5.798-1.288 0-.269-1.609-.483-3.863-.43-2.148 0-5.475-.215-7.406-.534-1.933-.324-5.527-.753-8.05-.968-3.38-.269-4.51-.535-4.403-1.073.108-.592-.534-.699-2.844-.537-2.09.107-3.003-.055-3.216-.59-.162-.376-.646-.591-1.075-.376-.428.163-.965-.052-1.234-.537-.378-.643-.859-.59-3.594.376-1.772.593-4.778 1.18-6.712 1.287-1.929.108-4.934.538-6.707 1.019-1.716.484-3.915.862-4.884.862-1.879 0-5.957 1.34-10.465 3.435-1.822.856-4.882 1.661-7.51 1.983-2.472.322-5.208.914-6.01 1.341-.862.432-1.988.754-2.576.754-1.345 0-1.291.912.05 1.34 1.449.482 2.47 2.307 1.664 3.114-.911.912-.696 1.449.484 1.449.75 0 .965.266.7.912-.485 1.34-2.31 2.844-3.329 2.789-1.503-.106-4.132-.91-3.221-.964.484 0 1.181-.431 1.556-.862.859-1.072.269-1.072-4.561.055-4.615 1.021-7.19 1.61-11 2.364-3.274.694-4.402 1.394-3.059 1.928.804.325.804.484-.162 1.825-1.449 1.988-.859 2.307 3.917 2.257 2.096-.054 4.077.158 4.401.427.429.377 1.288.27 2.576-.269 2.254-.912 3.81-1.071 2.522-.265-.644.426-.644.534-.053.534 1.127 0-1.879 2.629-3.435 3.007-.75.159-2.2.159-3.222 0-1.071-.217-1.875-.163-1.875.159 0 .86-3.328 1.719-5.262 1.341-1.825-.375-3.22.108-6.116 2.042-.751.536-1.77.965-2.254.965-.858 0-4.669 1.61-5.15 2.202-.162.157-.968.48-1.772.696-1.503.376-2.844 2.576-2.203 3.596.163.268-.322.697-1.019.966-1.125.43-1.34.858-1.286 2.414.052 1.716.215 1.932 1.395 1.932.803 0 2.306-.216 3.382-.483 1.823-.426 1.984-.374 1.503.483-.324.538-1.023 1.128-1.557 1.342-.593.161-1.395.912-1.879 1.611-.485.75-1.288 1.341-1.773 1.341-.641 0-.749.161-.322.591.431.428.915.428 1.771-.054.808-.43 1.073-.43.861-.053-.537.803 0 .75 1.822-.216 1.881-.968 4.508-.537 4.078.588-.372 1.022 1.291.969 2.04-.107.485-.588.966-.696 1.934-.319 1.288.482 1.288.482-1.074 2.252-1.344.966-3.488 2.202-4.829 2.791-1.341.592-2.897 1.234-3.49 1.503-.588.268-2.898 1.071-5.098 1.771-4.884 1.61-6.974 2.522-6.974 3.166 0 .271-.484.215-1.022-.053-1.018-.591-2.737-.107-8.909 2.253-3.595 1.396-4.239 1.556-6.276 1.771-2.579.269-6.603 2.307-5.903 3.006.322.322.91.322 1.61-.052.587-.325 1.768-.593 2.627-.593.805 0 2.2-.373 3.115-.858.857-.43 2.091-.7 2.683-.537.587.16 1.556-.108 2.09-.482.537-.43 1.184-.645 1.449-.537.216.16.538.053.754-.269.588-1.019 3.005-.59 3.328.538.319 1.234.749 1.341 1.66.429.43-.429.806-.429 1.396.054.644.536.914.427 1.398-.43.48-.913.427-1.125-.269-1.125-.431 0-.807-.378-.807-.862 0-.642.322-.803 1.341-.535.862.213 1.825 0 2.684-.537.698-.43 1.556-.699 1.826-.484.644.377 4.184-1.126 5.313-2.253.427-.376.966-.591 1.234-.429.269.215.481.053.481-.269 0-.321.646-.428 1.664-.269.968.161 1.504.106 1.343-.213-.163-.268.644-.645 1.825-.86 1.179-.214 2.683-.748 3.328-1.288 1.019-.75 2.468-1.341 6.331-2.467.159-.054.966-.377 1.771-.699.86-.374 1.932-.641 2.413-.641.485 0 1.88-.593 3.059-1.344 1.184-.698 2.686-1.341 3.276-1.341 1.61 0 2.844-1.503 1.771-2.201-.593-.376-.537-.483.322-.539.589-.05 1.342-.05 1.664 0 .374.056.75-.266.965-.749.162-.431.912-.804 1.665-.804.75 0 1.341-.269 1.341-.538 0-.322.431-.538.965-.538.538 0 1.395-.319 1.986-.696 1.503-1.022 2.952-1.501 2.952-.966 0 .215-.645.698-1.395 1.021-.752.372-1.179.911-1.021 1.179.214.323-.374.803-1.287 1.128-.912.322-1.665.806-1.665 1.072 0 .86 2.844.484 6.602-.804 1.988-.7 3.595-1.18 3.595-1.019 0 .161.322.054.7-.268.802-.699 4.076-.916 5.31-.377.593.215 1.881-.107 3.381-.804 2.2-1.076 3.169-2.147 1.881-2.147a.537.537 0 00-.537.537c0 .269-.217.534-.485.534-.266 0-.427-.427-.319-.964.053-.592.534-.858 1.287-.804.588.107 1.125-.107 1.125-.377 0-.322.589-.538 1.342-.538 1.556 0 1.612 1.18.053 1.612-.591.16-1.125.591-1.232.913-.163.48.269.48 1.61.05 1.288-.372 2.306-.372 3.378 0 1.503.54 1.503.593.378.915-.697.215-1.234.644-1.234.912 0 .322.376.376.964.107.483-.216 2.629-.485 4.724-.643 2.896-.161 4.238 0 5.581.697 1.071.537 2.255.752 3.165.591.912-.269 1.182-.214.647.161-.592.375-.484.697.642 1.663.752.644 1.503 1.771 1.664 2.469.213.697.591 1.288.857 1.288.86 0-.106 3.971-1.288 5.312-.749.86-.856 1.181-.322 1.019.592-.213.807.052.807.914 0 .696-.163 1.126-.378.965-.269-.107-.429.161-.429.593 0 1.232.86 1.071 1.826-.325.484-.644.968-1.019 1.125-.857.161.159-.427.912-1.341 1.662-1.93 1.664-1.984 1.986-.374 2.039h1.181l-1.181.484c-1.02.428-1.183.859-1.02 2.253.159 1.503.376 1.772 1.769 1.879 1.074.108 1.988-.214 2.576-.913.915-1.019 1.022-1.019 1.664-.106.646.858.7.805 1.288-.429l.538-1.342-.268 1.449c-.163.803-.054 1.612.268 1.771.269.16.538.643.538.966 0 .431-.161.375-.484-.106-.376-.593-.592-.54-1.019.267-.322.535-.754.858-.913.642-.535-.535-2.038 1.023-1.612 1.665.161.269.054.644-.266.861-.807.534-.644 1.18.644 2.412.644.593.856 1.074.483 1.074-.376 0-.59.483-.483 1.179.107.699.483 1.184.91 1.075.483-.106.376.428-.373 1.716-.754 1.237-.915 2.04-.537 2.255.375.216.322.485-.107.751-.537.322-.271.807.859 1.932 1.126 1.072 1.288 1.342.482 1.019-1.397-.536-2.36-.536-3.863-.054-.754.215-1.234.162-1.234-.163 0-.265.534-.641 1.234-.749 1.019-.16 1.019-.214-.162-.16-1.126.053-1.341.322-1.234 1.502.052.861-.161 1.503-.539 1.503-.375 0-.053.322.701.699.75.374 1.394.966 1.394 1.343.054.372.108.856.162 1.126 0 .268.534.695 1.126.856.59.215.964.593.803.862-.213.268.054.641.485.802.483.161.699.539.537.807-.161.266.055.481.427.481.378 0 1.13.376 1.719.807.913.696.913.749-.485.641-1.606-.107-1.822.162-3.163 4.347-.915 2.791-3.974 8.481-5.314 9.874-.375.376-1.289 1.557-1.985 2.579-.7 1.019-2.256 2.898-3.436 4.185-2.952 3.168-3.916 4.774-4.884 7.887-.427 1.45-1.715 3.866-2.899 5.262-1.821 2.145-2.038 2.736-1.556 3.594.484.753.377 1.395-.319 2.951-.807 1.611-.861 2.256-.377 3.328.377.751.483 1.772.324 2.307-.163.537-.054 1.13.215 1.288.265.215.372 1.184.21 2.255-.21 1.341-.103 2.09.431 2.414.646.43.646.538 0 .967-.697.429-.697.966-.054 3.648.432 1.718.754 3.971.754 4.994.053 1.768.159 1.875 2.09 2.037 1.288.107 1.988.431 1.988.968 0 .641 1.018 1.019 2.359.803.269-.052.322.27.163.75-.216.484-.056.806.376.806 1.34 0 2.413 1.88 2.413 4.295 0 2.359.431 8.854.592 8.854.054 0 .161 1.288.269 2.898.158 2.091.482 3.059 1.288 3.594.587.429 1.556 1.61 2.197 2.632 1.127 1.77 1.127 1.985.324 3.217-.858 1.343-1.343 1.556-3.112 1.397-.539-.054-.966.052-.966.322 0 .914 4.401 5.527 4.935 5.206.646-.429 4.188 3.271 4.188 4.294 0 .428-.375 1.449-.807 2.253-.429.856-.803 1.932-.803 2.359 0 1.076 1.019 2.149 2.037 2.149 1.236 0 4.939 4.292 4.939 5.742 0 .856.215 1.234.696 1.019a10.823 10.823 0 011.665-.644c.806-.322.914-.752.645-2.308-.162-1.073-.322-2.361-.322-2.898 0-.482-.269-.911-.591-.911-.268 0-.375.322-.213.641.213.376-.108.107-.699-.587-1.019-1.234-1.073-1.234-1.341-.269-.162.754-.269.644-.325-.43 0-.804.215-1.61.485-1.77.805-.483.642-1.341-.214-1.341-.805 0-1.503-3.112-.752-3.543.213-.163.429-.537.429-.804 0-.322-.216-.376-.535-.215-.323.162-.538-.269-.538-.969 0-1.341-2.041-5.849-2.79-6.168-.646-.322-.485-3.059.215-3.757.319-.325.427-.805.215-1.019-.215-.215-.591-.055-.859.375-.432.644-.537.536-.537-.375 0-.647-.214-1.344-.537-1.503-.27-.163-.538-.593-.538-.966 0-.322.377-.108.861.481.804.969.804.969.48-.589-.426-1.985-.748-2.309-1.288-1.394-.322.48-.695.211-1.502-1.023-.964-1.503-.964-1.929-.377-4.881.754-3.759.916-3.973 2.203-3.436.538.27 1.179.377 1.395.324.753-.163 2.684 2.037 2.415 2.737-.163.375-.109 2.039.106 3.646.27 2.095.216 3.383-.319 4.347-.647 1.341-.537 2.095.372 2.095.217 0 .269-.537.11-1.234-.163-.7.159-.431.697.697.535 1.021 1.288 2.199 1.665 2.577.372.373.697.91.697 1.18 0 .27.429.59 1.019.805.698.214.913.644.698 1.663-.161 1.072 0 1.396.912 1.665.59.16 1.125.694 1.125 1.233 0 .538.538 1.073 1.184 1.234 1.072.323 1.072.377.265 1.664-.534.753-.911 1.664-.911 1.986 0 .697 2.04 2.63 2.789 2.63.27 0 .754.641 1.129 1.448.322.857 1.235 2.093 2.04 2.845.75.748 1.825 2.199 2.36 3.22.484 1.019 1.503 2.629 2.147 3.541 1.181 1.503 1.396 2.681 1.396 7.191 0 3.328-.108 3.759-.912 3.759-1.128 0-.914 2.359.482 4.454.644 1.018 2.04 2.305 3.059 2.844 1.019.534 2.094 1.555 2.359 2.198.485 1.073 3.598 2.468 5.476 2.468.482 0 1.612.752 2.576 1.718 1.612 1.664 7.137 4.562 8.64 4.562.378 0 1.072.322 1.449.644 1.126 1.075 3.97 2.575 4.885 2.575.427 0 1.45.325 2.254.751 1.556.806 3.166.537 6.277-.965.912-.483 2.092-.857 2.576-.857 2.199 0 4.885 1.715 6.922 4.455 3.329 4.454 4.94 5.742 7.891 6.222 1.449.215 3.113.646 3.702.969 3.057 1.61 5.153 2.197 7.46 2.038 1.986-.109 2.359 0 1.717.483-.754.483-.591.912 1.181 2.845 4.884 5.58 5.849 7.405 4.777 9.176-.699 1.074.107 2.684 1.77 3.541 1.449.699 1.661.699 2.146-.107.484-.858.484-.858.538 0 0 .484.803 1.288 1.821 1.772 1.88.909 2.794 2.147 1.935 2.682-.644.377-.055 1.88.698 1.88.321 0 1.127.535 1.821 1.179 1.132 1.018 1.238 1.073 1.238.215 0-.646.266-.859.858-.646.483.161 1.288.324 1.825.324 1.126 0 1.877 1.556 1.073 2.359-.753.754-.647 1.398.268 1.398.482 0 .643-.322.482-.806-.482-1.288 1.182-.429 2.147 1.127.859 1.232.912 1.232 2.737.376 2.04-.966 2.253-1.556 1.073-3.166-1.073-1.396-1.019-1.451.806-2.253.912-.431 1.612-1.073 1.612-1.45 0-.375.372-.807.803-1.022.753-.265 1.179-3.54.483-3.54-.161 0-1.879.859-3.758 1.88-3.863 2.145-4.293 2.197-5.688.965-.697-.593-.965-.646-.965-.161 0 .537-.162.537-.753 0-.428-.324-.697-.912-.535-1.288.163-.378-.377-.965-1.127-1.288-.752-.322-1.341-.965-1.341-1.449 0-.429-.269-.807-.538-.807-.322 0-.807-.641-1.072-1.503-.322-.803-.806-1.983-1.128-2.575-.427-.857-.427-1.447 0-2.252.322-.591.59-1.717.59-2.471 0-.749.269-1.396.538-1.396.32 0 .535-1.287.535-2.844 0-1.768.377-3.539 1.021-4.719.589-1.076.912-2.472.804-3.059-.161-.591-.053-1.234.322-1.451.378-.215.056-.806-.913-1.662-.804-.7-1.875-1.665-2.36-2.095-1.074-1.019-7.46-1.93-8.372-1.234-.752.592-5.206.698-6.064.161-.324-.213-.911-.054-1.342.268-.644.539-.965.539-1.61 0-.431-.322-1.072-.429-1.449-.214-.377.214 0-.323.803-1.233.862-.912 1.612-2.468 1.825-3.706.163-1.126.54-2.413.862-2.79.265-.319.372-.641.213-.641-.16 0 .268-.592.966-1.341.751-.7 1.343-1.666 1.343-2.096 0-.429.268-1.448.642-2.307.322-.806.645-1.932.645-2.416.054-.481.214-1.072.484-1.287.211-.217.374-.804.374-1.288 0-.534.374-1.234.806-1.61.695-.59.75-.534.48.215-.48 1.233.485 1.073 1.291-.215.428-.697.428-1.072.107-1.072-.376 0-.376-.377 0-1.128.375-.591.482-1.663.321-2.362-.321-1.182-.535-1.234-3.649-1.073-1.878.054-4.991.538-6.922 1.023-2.788.749-3.705 1.178-4.188 2.251-.319.749-.588 1.611-.588 1.879 0 .32-.591 1.823-1.288 3.326-1.287 2.898-3.651 4.616-6.765 4.991-2.897.325-6.975 1.234-8.048 1.825-.964.537-1.34.428-2.467-.698-.699-.749-1.987-1.449-2.792-1.611-1.447-.322-2.309-1.609-3.057-4.935-.161-.913-.753-2.04-1.234-2.578-.485-.535-.915-1.984-.969-3.216-.053-1.234-.322-2.846-.587-3.599-.325-.748-.484-1.826-.378-2.414.858-5.315 2.897-11.43 4.509-13.685.75-1.073 1.179-2.631 1.342-4.882.322-4.884 1.501-6.333 8.532-10.518 7.836-4.725 10.627-5.743 11.968-4.403.268.27 1.771.59 3.324.59 1.879.053 2.741.322 2.741.807 0 .376.32.749.694.803 2.257.268 3.919.161 4.241-.319.376-.593 2.147-.969 1.825-.43-.107.215-.053.802.162 1.341.322.857.426.857 1.395.108 1.072-.807 1.072-.807-.161-1.773-1.181-.911-1.181-.964-.162-1.825.538-.427 1.073-1.127 1.235-1.503.322-1.019 11.591-1.18 13.201-.211.645.428 1.18 1.126 1.18 1.502 0 1.342 1.772 1.5 3.328.319 1.825-1.341 3.113-1.234 3.97.432.325.644.969 1.61 1.45 2.147 1.126 1.234 1.126 2.415.107 4.347-.376.804-.695 2.09-.588 2.79.374 3.271 1.018 5.85 1.449 5.85.266 0 .481.372.481.804 0 .43.483 1.234 1.076 1.718.587.535 1.071 1.61 1.071 2.412 0 1.126.216 1.397.857 1.126.484-.157 1.074 0 1.343.432.429.645.592.645.966-.054.267-.431.536-1.072.59-1.341 0-.324.376-1.019.754-1.612 1.448-2.359 1.929-5.31 1.341-8.747-.27-1.875-.378-3.593-.215-3.862.161-.215-.107-1.988-.592-3.813-1.718-6.759 1.234-12.664 8.105-16.042.857-.43 2.574-1.825 3.808-3.112 1.451-1.503 2.629-2.257 3.598-2.257.749 0 1.556-.269 1.715-.534.7-1.076 4.563-3.222 5.849-3.222 1.61 0 3.005-1.503 1.986-2.094-.483-.319 0-.802 1.504-1.502 2.04-1.019 2.148-1.019 1.611-.107-.269.59-.912 1.022-1.45 1.075-.483 0-.646.161-.268.266.374.161 1.125 0 1.718-.319.963-.485 1.126-1.077 1.126-4.188 0-2.04-.27-3.918-.539-4.187-.427-.428-.373-1.073.054-2.145.322-.857.7-2.04.807-2.574.323-1.828 1.127-2.042 1.018-.325-.054.912-.376 1.935-.695 2.252-.377.378-.645 1.13-.645 1.719 0 1.023.161.915 1.286-.48.701-.861 1.181-1.826 1.023-2.095-.215-.269-.054-.323.265-.108.378.215 1.234-.269 2.041-1.126 1.073-1.181 1.342-1.879 1.125-3.221-.159-.963-.052-1.878.217-2.041.268-.21.483.056.483.485 0 1.234.319 1.071 2.898-1.019 1.234-1.019 2.576-2.683 2.952-3.704.697-1.662 1.073-1.875 3.756-2.415 3.754-.803 6.761-2.094 5.151-2.198-.59-.054.052-.43 1.503-.806 1.393-.378 3.003-.59 3.542-.432.539.163 1.18 0 1.342-.317.214-.324.807-.593 1.395-.593 1.127 0 1.878-1.558 1.072-2.361-.372-.375-.535-.268-.535.375 0 1.29-1.021 1.128-1.556-.321-.376-.806-.269-1.341.268-1.771.428-.323.751-.965.751-1.395 0-1.61 3.489-3.969 8.05-5.527 2.522-.86 5.097-1.879 5.744-2.255.641-.432 1.875-.804 2.79-.804 1.557-.055 2.413-.915 1.018-1.021-.964-.056 1.234-.86 3.114-1.182.856-.162 2.199-.534 3.006-.856.856-.323 1.609-.378 1.771-.056.157.27-1.345 1.288-3.274 2.253-3.114 1.503-3.651 1.988-3.759 3.328-.108.86.161 1.881.59 2.253.859.861 2.415 1.023 2.415.217 0-.319.484-.536 1.076-.536.588 0 1.071-.215 1.071-.483 0-.751 4.188-3.383 4.779-3.006.319.162.856.162 1.234-.055 1.178-.749 9.228-3.381 9.496-3.166.107.161.539-.215.966-.805.429-.591 1.129-1.071 1.61-1.071 1.183 0 3.92-1.717 3.92-2.525 0-.373-.376-.695-.808-.695-.964 0-1.019-.215-.161-1.612.537-.803.537-1.179 0-1.716-.481-.485-1.341.106-3.862 2.681-1.773 1.825-3.221 3.113-3.221 2.791 0-.319-.481-.319-1.181-.054-1.449.485-5.955-.318-5.525-1.019.376-.587 2.951-.483 2.951.107 0 .217.481.432 1.073.432s1.071-.215 1.071-.539c0-.268.647-.856 1.503-1.286 1.449-.804 1.396-.804-1.503-.859-3.432 0-4.454-.482-3.97-1.878.27-.7.163-.861-.377-.7-.426.161-.694.539-.641.861.107.323-.215.481-.647.323-1.018-.432-1.018.534 0 1.606 1.074 1.077 1.023 1.346-.268 1.023-1.126-.324-1.714-1.827-1.448-3.598.107-.588 1.022-1.875 2.041-2.844l1.825-1.825-1.449.322c-2.202.537-1.827-.159.642-1.126 4.292-1.718 3.114-4.831-1.768-4.669-3.275.107-10.36 2.31-13.578 4.185-3.007 1.773-3.329 1.718-1.181-.215 2.09-1.768 6.065-3.809 7.564-3.809.591 0 1.717-.695 2.525-1.557.749-.91 2.037-1.878 2.898-2.197.91-.325 5.957-.539 12.772-.484 6.759.052 11.43-.163 11.645-.485.161-.265.856-.643 1.556-.856.642-.217 1.825-.966 2.684-1.612 1.771-1.449 4.507-2.467 6.759-2.467h1.666l-2.415 2.36c-3.866 3.704-6.442 6.603-6.442 7.244 0 .322-.371.592-.803.592-.483 0-.968.373-1.127.805-.214.428-.537.644-.807.483-.484-.27-2.09.964-2.09 1.664 0 .162.534.215 1.234 0 .641-.163.162.319-1.126 1.125-3.758 2.307-2.952 2.9 4.452 3.168 13.685.588 12.612.426 11.751 1.395-.91.966-.964 2.091-.161 2.091.268 0 .431-.213.216-.481-.163-.27-.055-.698.269-.861.322-.215.537-.161.484.11-.269 1.608.107 2.147 1.394 1.878 2.037-.378 5.259-5.474 3.488-5.474a.538.538 0 00-.536.535c0 .27-.215.539-.43.539-.27 0-.485-.378-.485-.807 0-.427.215-.644.432-.537.161.163.645-.107 1.019-.537.537-.641.483-.803-.213-.803-.484 0-1.29.481-1.772 1.072-.537.593-1.178 1.073-1.448 1.073-.269 0 .053-.588.696-1.286.914-.966 1.021-1.344.483-1.559-.375-.16 0-.214.912-.214 1.075.107 1.61-.158 1.772-.805.107-.644-.108-.803-.912-.591-1.341.323-1.61-1.126-.322-1.66 1.179-.43.965-1.345-.377-1.934-.696-.269-.911-.484-.535-.484.374-.053.535-.322.321-.694-.268-.377-.59-.269-1.127.372-.376.591-.697.7-.697.376 0-.376-.376-.641-.806-.641-.426 0-.804.158-.804.427 0 .214-.7.429-1.556.429-1.125.054-1.503-.107-1.288-.645.163-.428.589-.75 1.019-.75 1.449 0 .754-.964-.965-1.288l-1.772-.376 1.825-1.557c1.234-1.019 1.983-1.394 2.253-1.019.484.859 1.127-.268.699-1.341-.161-.484-.107-.859.213-.859.269 0 .645-.374.86-.803.215-.593-.107-.808-1.18-.808-1.021 0-1.234.161-.752.483.484.269.16.432-.912.377-.913-.052-1.664-.108-1.664-.161 0-.107 1.073-.645 2.414-1.288 2.255-1.073 2.631-1.503 3.274-4.347.858-3.435.698-4.132-.965-4.454-1.825-.43-2.898-2.415-1.718-3.113 1.234-.695-.698-2.253-2.575-2.038-.967.052-1.503-.108-1.395-.537.16-.752-2.472-1.611-3.758-1.181-.536.163-.697.054-.376-.215 1.021-.806.859-1.878-.482-3.112-1.287-1.181-1.287-1.288-.378-1.61 1.019-.322 1.397-2.684.539-3.276-.269-.161-.107-.856.373-1.555.754-1.182.754-1.288-.212-1.823-.752-.377-1.074-1.13-1.074-2.362 0-1.019-.375-2.522-.804-3.381-.43-.914-.7-2.522-.537-3.866.107-1.234.053-2.252-.163-2.252-.641 0-1.875 1.611-1.555 2.145.161.27 0 .377-.429.216s-2.093 1.023-3.866 2.735c-1.715 1.612-3.431 2.952-3.754 2.952-.324 0-1.612.485-2.898 1.13-1.932.912-2.414.965-3.168.374-1.93-1.556-2.844-2.683-2.952-3.594-.053-1.073 1.557-4.669 2.31-5.153.32-.216.427-.59.212-.858-.157-.269-.104-.43.162-.376.216.107.431-.054.431-.322 0-.321-.697-.59-1.612-.697a20.1 20.1 0 01-2.844-.43c-1.071-.27-1.178-.431-.588-1.126.536-.701.536-.912-.108-1.288-1.556-.966-3.382-2.468-4.185-3.382-.485-.483-1.129-.911-1.503-.911-.914 0-.914 1.072 0 1.072.319 0 .212.269-.322.591-.969.59-1.826.48-8.213-.698-3.11-.537-3.326-.537-4.453.591-.644.643-1.289 1.771-1.343 2.468-.158 1.717-1.288 2.951-3.378 3.862-2.149.861-2.31 1.395-.377.914 1.287-.322 1.395-.268 1.019.912-.269.699-.427 1.61-.427 1.932 0 .377-.163.696-.378.696-.214 0-1.447.861-2.735 1.88-1.289 1.019-2.575 1.879-2.792 1.879-.537 0-1.986 1.395-1.986 1.822 0 .163.215.322.537.322.966 0 3.219 2.31 3.219 3.329 0 1.341-1.985 5.474-3.11 6.493-2.041 1.825-8.321 4.776-11.38 5.314l-3.218.535.267 2.363c.159 1.395.052 2.36-.267 2.36-.268 0-.537.591-.537 1.288 0 .754-.215 1.448-.43 1.61-.217.108-.482 1.019-.536 2.04-.108 1.234-.645 2.145-1.718 3.007-.909.695-1.502 1.503-1.341 1.768.215.269.107.484-.215.484-.269 0-.591-.323-.752-.696-.16-.431-.643-.268-1.608.641-1.449 1.343-2.524 1.128-2.524-.483 0-.536-.428-1.342-.912-1.714-.537-.378-1.019-1.076-1.019-1.503a7.636 7.636 0 00-.483-1.719c-.324-.806-.161-.86 1.18-.484 3.059.914 3.111.914 3.111-.48 0-1.183-.215-1.345-1.662-1.291-1.397.054-1.664-.054-1.449-.911.161-.591.484-1.181.752-1.341.266-.162.482-.859.482-1.611 0-.695.215-1.288.43-1.288.698 0 2.307-3.113 1.772-3.435-.269-.163-2.365-.428-4.67-.589-2.468-.161-4.508-.592-4.993-1.021-.48-.428-1.875-1.073-3.109-1.499-1.288-.378-2.309-1.023-2.309-1.345 0-.965-1.826-2.683-3.329-3.111-.642-.213-2.037-.698-3.002-1.13-1.345-.642-2.148-.695-3.76-.265-1.071.32-2.144.589-2.305.589-.431 0 .161-2.791 1.073-4.988.803-1.988.376-2.527-1.88-2.527-1.019 0-1.822-.161-1.822-.319 0-.483 4.881-6.655 5.259-6.655.214 0 1.825-1.074 3.538-2.415 1.772-1.288 3.868-2.522 4.672-2.682.806-.216 1.608-.647 1.771-1.075.161-.428 1.125-.912 2.147-1.127 1.073-.161 1.931-.535 1.931-.804s.322-.432.698-.376c.322.107.59-.163.481-.593-.159-.695.322-.695 2.844.215.753.27.862.215.322-.159-.534-.375-.269-.643 1.127-1.127.969-.324 2.148-1.073 2.579-1.665.428-.589 1.18-1.072 1.61-1.072.48 0 1.127-.27 1.449-.592.372-.373 1.769-.696 3.216-.803 2.9-.27 8.535-2.844 10.575-4.885 1.178-1.181 4.669-3.378 5.366-3.378.16 0-1.181 1.394-2.952 3.059-1.716 1.713-3.163 3.324-3.163 3.648 0 .322-1.076.909-2.42 1.286-2.896.861-2.95 1.988-.052 1.773 1.825-.163 1.987-.108 1.665.91-.431 1.502.914 1.502 3.651.054 1.071-.589 2.359-1.072 2.789-1.072.426 0 1.18-.483 1.717-1.073 1.127-1.126 3.487-.969 3.057.269-.426 1.071 3.651 1.553 5.903.749 1.557-.537 1.772-.856 1.342-1.61-.265-.534-.804-.856-1.234-.696-.428.162-.858-.216-1.019-.968-.322-1.125-2.305-2.683-4.83-3.754-.697-.322-.858-.754-.588-1.881.213-.856.481-1.61.588-1.77.322-.374 1.18 1.236.915 1.717-.271.378.052.485 2.09.646.322.054.645-.431.698-1.022.163-3.219.163-3.164 1.234-1.822.966 1.18 1.073 1.18 1.396.322.216-.483.804-.915 1.288-.915.485 0 1.556-.376 2.414-.804.806-.428 1.825-.806 2.149-.806.376 0 1.232-.587 1.932-1.341.964-1.018 1.071-1.449.642-2.037-.749-.915.483-2.203 2.898-3.059.86-.322 1.826-1.181 2.202-1.88.535-1.179.48-1.342-.376-1.342-1.88 0-1.665-1.019.322-1.556 1.503-.429 2.306-.376 3.486.215.861.485 2.149.643 3.061.485 1.986-.376 2.844.697.964 1.18-1.608.373-3.002 1.822-1.876 1.822.48.054.268.429-.539 1.128-.697.589-1.071 1.236-.856 1.451.215.215.534.053.641-.322.162-.325.593-.647 1.022-.647.696 0 .966-.641.803-1.768 0-.215.215-.376.485-.376.857 0 4.827-2.737 4.827-3.329 0-.323-.427-.377-.909-.161-1.988.807-2.844.915-2.844.322 0-.322.59-.591 1.341-.591.91 0 1.556-.373 1.878-1.234.269-.641.481-.858.481-.534.053.373.431.695.859.695.482 0 .644.324.432.913-.215.59-.162.751.265.482.378-.215.647-.16.647.054 0 .269.641.861 1.5 1.342l1.451.914-1.503.052c-.861 0-1.395-.213-1.18-.481.48-.862-.808-1.288-1.664-.593-.537.537-.592.861-.163 1.396.325.375.378.966.163 1.341-.27.485.108.537 1.503.268 1.449-.268 1.878-.161 1.878.484 0 .589-.592.804-2.254.804-3.595 0-7.515 2.579-6.439 4.293.805 1.288 7.779-.373 7.779-1.877 0-.376.322-.967.754-1.288.587-.481.75-.428.641.321-.054.754.431 1.023 1.988 1.13 1.449.105 1.983-.054 1.983-.646 0-.43-.534-.857-1.181-.964-.641-.108-1.286-.539-1.393-.969-.215-.697-.163-.697.537-.107.695.537.91.537 1.125 0 .216-.534.322-.534.322-.055.056.377.535.699 1.128.699.807 0 1.018.269.857 1.181-.159.698-.266 1.663-.266 2.148-.053.534-.483.966-.968.966-.481 0-1.288.322-1.714.699-.484.426-2.04 1.178-3.543 1.713-3.329 1.184-3.918 1.665-3.059 2.526.91.912.806 1.449-.27 1.449-.534 0-1.876.212-2.952.482-1.234.322-3.005.322-4.773 0-2.31-.429-3.115-.325-4.725.483-2.844 1.449-4.023 2.735-3.328 3.594.916 1.075 3.113 1.344 5.581.644 1.235-.376 3.113-.591 4.132-.537 1.022.053 2.418.107 3.113.161.7 0 1.076.27.915.592-.163.269.054.534.534.534.539 0 .807.378.7.916-.108.534.376 1.556 1.019 2.305.698.754 1.232 1.717 1.232 2.256 0 1.287.808 1.611 2.365.91 1.126-.537 1.556-.43 2.79.539.804.587 1.983 1.126 2.683 1.126.695 0 2.468.484 3.971 1.072 1.448.592 2.681.968 2.681.808 0-.162.485.215 1.126.857 1.291 1.288 2.687.591 2.257-1.126-.323-1.127-1.773-1.503-1.773-.484 0 .322-.322.484-.641.322-.377-.107-.647-.7-.537-1.234.053-.592-.432-1.556-1.235-2.254-.752-.643-1.341-1.397-1.341-1.666 0-.265-.484-.587-1.077-.749-.587-.163-1.072-.7-1.072-1.234 0-.861.053-.861 1.072.052.593.538 1.238.805 1.45.644.161-.212.7.107 1.129.753.642.91.858.966 1.611.376.482-.376.696-.429.482-.107-.217.372.159.749.913.965.696.161 1.395.803 1.556 1.395.321 1.181 1.661 1.449 2.307.484.161-.322 0-.806-.376-1.076-.535-.319-.589-.48-.054-.48.323 0 .645-.484.645-1.073 0-.647.269-.915.749-.754.378.161 1.129-.108 1.611-.645.806-.749.806-1.019.108-2.037-.537-.861-.59-1.448-.215-2.148.591-1.073-.163-1.93-1.773-1.93-.912 0-1.553-.968-1.875-2.844-.108-.539.107-.914.589-.914.967 0 1.021-.588.161-1.557-.589-.588-.535-.642 0-.373.376.212 1.023.161 1.342-.161.859-.7 3.218 1.288 3.488 2.898.215 1.234 1.181 2.575 1.611 2.198.107-.161.696-.054 1.234.214 1.233.7 2.629.11 3.166-1.287.376-.964.751-1.125 2.361-.964 1.234.161 1.933 0 1.933-.43 0-.807 1.341-2.148 2.252-2.148.377 0 1.289-.481 1.986-1.018l1.235-.966-1.503-1.072c-.858-.593-1.879-.969-2.307-.808-.43.161-.591 0-.376-.376.217-.319.054-.588-.376-.588-.376 0-1.288-.593-1.985-1.395-.913-.915-1.663-1.236-2.523-1.023-.643.162-1.342 0-1.556-.319-.16-.322-1.181-.915-2.146-1.341-1.019-.43-1.825-.969-1.825-1.184 0-.697 2.52-1.875 3.166-1.503 1.019.646 1.771-.213 1.019-1.179-.535-.642-.535-.859 0-1.018 1.771-.647-.482-3.598-3.379-4.4-1.13-.325-2.257-.432-2.524-.27-.214.16-.426-.108-.426-.589 0-.485-.216-.753-.485-.592-.269.163-.591-.161-.754-.752-.212-.858-.749-1.073-2.628-1.073-1.287 0-2.683.322-3.114.645-.642.589-.642.535-.054-.269.537-.645.537-.91.109-.91-.374 0-.481-.27-.321-.537.159-.325-.053-.539-.483-.539-.483 0-.858-.373-.858-.805 0-.429-.537-.909-1.182-1.019a71.153 71.153 0 00-2.306-.484c-.754-.16-.647-.268.429-.322.804-.053 1.449-.375 1.449-.75 0-1.556-1.878-2.362-6.172-2.681-3.49-.269-4.456-.163-5.206.534-.912.807-.967.807-.967 0 0-1.125-2.63-1.181-7.514-.107-4.076.914-5.095.966-3.216.16l1.341-.537-1.341-.535c-3.652-1.396-13.956 1.771-18.357 5.688-.535.485-1.126.858-1.341.858-.484.054-2.522 2.683-2.198 2.898.054.107 1.501.429 3.11.7l2.951.587-3.163-.104c-3.597-.054-4.241.588-2.418 2.305.806.751 1.611 1.019 2.257.805.695-.212.91-.108.695.269-.428.644.054.753 3.167.699 1.18-.055 1.771.054 1.341.267-1.288.536-2.144 1.609-2.307 2.95-.107.699-.537 1.238-.967 1.238-.428 0-1.607.694-2.683 1.503-1.983 1.5-2.951 1.875-2.36.909.161-.322 0-.537-.431-.537-.909 0-2.844 2.04-2.306 2.525.161.212-.429.697-1.395 1.073-1.34.587-1.771.587-2.148.052-.696-1.125-.214-2.255 1.286-3.003 3.115-1.503 2.042-5.047-1.232-3.918-1.502.481-1.612.481-1.287-.485.268-.856.107-1.071-.751-1.071-1.236 0-1.611-1.88-.537-2.257.483-.16.483-.535 0-1.448-.484-.912-.537-1.396-.055-1.93.805-.969.162-2.951-.963-3.007-.485 0 .106-.429 1.394-.966 1.287-.481 2.522-1.181 2.683-1.503.214-.319 1.717-.697 3.327-.804 3.649-.377 11.859-4.025 10.678-4.777-.428-.269-1.717-.482-2.897-.482-1.181 0-3.113-.159-4.294-.322-2.575-.322-6.492.428-6.331 1.288.106.322-.213.485-.698.268-.43-.161-1.342.163-1.987.751-.643.591-1.609 1.234-2.199 1.449-.645.214-.91.698-.698 1.341.322 1.234-1.234 2.791-3.756 3.813-.966.372-1.772.803-1.772 1.018 0 .214-.481.377-1.126.429-1.503.109-3.702 1.609-3.702 2.522 0 .378-.591 1.019-1.345 1.397-.912.483-1.34 1.125-1.234 1.825.109.856-.159 1.178-1.34 1.288-.912.107-1.931-.163-2.522-.7-.804-.696-1.18-.751-2.468-.162-.861.377-1.77.969-1.986 1.342-.215.376-1.395.861-2.521 1.022-2.309.373-2.953 1.61-.969 1.929.646.108 1.237.484 1.397.915.159.481-.106.588-.912.323-.804-.217-1.451.05-2.307.912-1.128 1.178-1.718 1.286-7.299 1.393-4.939.054-6.117-.052-6.386-.752-.163-.482-.643-.641-1.288-.482-1.449.482-2.577-.322-1.234-.859.966-.374.966-.374 0-.751-.593-.267-1.127-.161-1.397.27-.322.481-.484.372-.644-.537-.054-.697-.481-1.343-.912-1.504-.428-.162-.591 0-.428.268.159.27-.378.432-1.288.27l-1.612-.216 1.449-.753c1.019-.535 1.664-.587 2.042-.213.695.697 1.556.697 1.125 0-.161-.268 0-.374.485-.213.427.161.91.588 1.019.964.161.431 1.501.7 3.593.753 1.878.052 3.706.374 4.135.696.59.485 1.019.378 1.931-.537.699-.588 1.555-1.126 1.877-1.126.754 0 .804-.324.163-1.557-.378-.695-.269-.912.537-.964.534-.055 1.019.269 1.019.695 0 .43.161.752.322.752.697 0 3.434-2.254 3.434-2.844 0-.591-2.253-1.825-4.936-2.681-1.288-.432-1.238-1.288.108-1.988.587-.322 1.072-.912 1.072-1.341 0-1.825 2.359-4.347 5.15-5.581 1.611-.699 2.899-1.45 2.899-1.664 0-.593-1.449-1.073-3.218-1.073-1.88 0-4.831 1.127-3.865 1.449.322.163.644.482.644.75 0 .323-.43.323-1.022-.053-2.091-1.073-4.347-.643-6.062 1.178-.914.969-1.826 2.31-2.093 2.954-.27.7-.696 1.237-.965 1.237-.593 0-.484-1.022.161-2.041.265-.431.053-1.127-.539-1.772-1.125-1.234-3.435-1.396-3.435-.215 0 1.021-.749 1.021-3.593-.053-1.825-.697-2.575-.751-4.025-.266-1.395.481-1.609.481-1.075-.055.914-.914.807-1.501-.32-1.501-.539 0-1.345-.593-1.717-1.344-.862-1.609-2.041-2.04-5.903-2.2-1.612-.054-5.264-.269-8.053-.377-2.792-.161-5.795-.161-6.599 0zm103.467 4.724c-.86.483-2.041 1.609-2.632 2.575l-.965 1.718-.538-1.342c-.265-.695-.265-1.395-.053-1.449.269-.108 1.291-.643 2.31-1.234 1.018-.537 2.252-1.019 2.681-1.019.432 0 .108.32-.803.751zm14.917.859c.27 1.019.592 1.128 2.629.857 1.988-.268 2.095-.268.969.271-.754.269-2.418.588-3.759.641-2.359.107-2.413.054-1.45-.912.538-.537.806-1.179.647-1.448-.215-.322-.109-.537.159-.537.27 0 .644.537.805 1.128zm-19.854 3.004c-.485.161-.539.537-.163 1.291.593 1.071-.161 1.502-.804.48-.484-.804.109-2.146.912-2.09.538 0 .538.107.055.319zm31.769.7c-.163.267-.75.537-1.234.481-.754 0-.698-.107.161-.481 1.45-.593 1.45-.593 1.073 0zm7.782 4.291c-.43.269-1.288.485-1.879.485-.857-.055-.857-.107.269-.485 1.878-.591 2.575-.591 1.61 0zm5.581 2.253c-.269.43-.107.484.589.215.591-.215 1.182-.107 1.397.322.319.539-.483.859-3.112 1.342-4.187.752-5.1.593-1.503-.323 1.341-.319 2.36-.802 2.36-1.019-.107-.641.054-1.178.377-1.178.16 0 .107.269-.108.641zm-53.505.215c-.159.162-.644.215-1.021.054-.426-.161-.267-.323.323-.323.591-.05.913.108.698.269zm51.146.432c0 .107-.485.322-1.076.483-.59.161-.966.054-.75-.215.268-.485 1.826-.7 1.826-.268zm-181.017.644c-.161.158-.642.212-1.018.052-.431-.159-.268-.322.323-.322.587-.052.909.109.695.27zm139.693.212c0 .269-.538.537-1.182.537-1.018 0-1.071-.107-.43-.537 1.019-.697 1.612-.697 1.612 0zm7.943-.16c-.537.106-1.399.106-1.879 0-.539-.159-.107-.267.911-.267 1.019 0 1.45.108.968.267zm-151.769.697c-.429.269-1.178.485-1.609.485-.534 0-.427-.163.268-.485 1.451-.644 2.307-.644 1.341 0zm116.99 0a.537.537 0 01-.534.539c-.269 0-.537-.27-.537-.539 0-.322.268-.537.537-.537.322 0 .534.215.534.537zm-9.121 1.181c0 .215-.592.807-1.341 1.288-1.663 1.075-1.771 2.041-.215 1.663.642-.161.964-.107.697.108-.589.485-4.667 1.932-6.815 2.414-.911.215-1.664.859-1.986 1.664-.375.914-.75 1.233-1.397.968-.856-.322-.856-.376.054-1.022.539-.426.753-.965.485-1.395-.214-.375-.214-.534.054-.319.538.482 2.52-.537 2.147-1.13-.107-.269.858-.751 2.2-1.073 1.341-.322 2.251-.856 2.095-1.125-.216-.324-.593-.378-.915-.216-.324.216-.432-.054-.324-.646.107-.694.592-.964 1.343-.857.645.107 1.289-.052 1.449-.376.376-.588 2.469-.588 2.469.054zm-119.675.698c-2.466.965-3.863.965-2.144.055.749-.431 1.93-.753 2.681-.753 1.181 0 1.074.053-.537.698zm201.249-.376c0 .215-.862.322-1.881.215-1.019-.108-1.878-.322-1.878-.43 0-.107.859-.215 1.878-.215s1.881.215 1.881.43zm-70.627 1.826c-.322 1.125-1.341 2.199-1.663 1.822-.267-.267 1.183-3.004 1.61-3.004.268 0 .268.537.053 1.182zm41.914-.107c-.163.269-.59.534-.86.534-.322 0-.376-.265-.213-.534.161-.324.591-.538.856-.538.323 0 .376.214.217.538zm-16.367.534c0 .269-.268.539-.592.539-.269 0-.376-.27-.215-.539.161-.321.429-.534.592-.534.106 0 .215.213.215.534zm19.694-.212c-.161.159-.646.212-1.019.054-.43-.163-.268-.322.323-.322.587-.054.912.107.696.268zm-37.136 3.378c-.161.323-.592.591-.914.591-.322 0-.322-.322.108-.806.754-.911 1.395-.694.806.215zm-33.54.269c0 .108-.377.322-.808.539-.427.161-.802.052-.802-.217 0-.322.375-.537.802-.537.431 0 .808.108.808.215zm71.801.163c-.534.106-1.393.106-1.875 0-.537-.163-.108-.27.911-.27 1.018 0 1.449.107.964.27zm-106.149 2.628c0 .107-.482.216-1.127.216-.588 0-.965-.216-.751-.539.271-.427 1.878-.161 1.878.323zm37.407.538c-.162.162-.647.215-1.023.054-.427-.161-.265-.324.324-.324.591-.052.914.109.699.27zm-74.704.749c-.589.215-1.88.754-2.899 1.126-1.771.646-1.771.699-.534 1.184.697.266 2.522.319 3.97.107l2.684-.322-1.718 1.072c-.966.593-2.576 1.073-3.81 1.019-2.575 0-4.507.537-4.131 1.237.265.427-.86.749-2.042.534-.215-.053-1.286.324-2.359.754-1.076.427-2.04.695-2.203.534-.429-.426 3.706-1.983 4.51-1.664.374.161.856 0 1.071-.319.647-1.022-4.078 0-5.795 1.288-1.286.856-1.823.963-2.737.534-.964-.48-1.018-.59-.215-.59.485-.052.915-.322.915-.59 0-.323.482-.535 1.019-.535.591 0 1.395-.375 1.879-.807.428-.43 1.234-.749 1.768-.695h1.988c1.985-.217-.215-1.718-2.307-1.61l-1.933.053 1.771.215c.912.104 1.718.427 1.718.751 0 .268-.054.484-.108.484-.107-.054-1.503-.377-3.112-.754l-2.951-.642 4.292-.698a275.857 275.857 0 007.783-1.397c4.078-.856 4.989-.91 3.486-.269zm149.459-.053c0 .268.644.644 1.395.807 1.878.48 1.071 1.181-1.773 1.556-1.929.215-2.2.162-1.875-.644.641-1.666 2.253-2.9 2.253-1.719zm27.583.537c.215.27-.161.377-.749.216-1.239-.322-1.395-.7-.324-.7.432 0 .912.215 1.073.484zm-303.585.912c-.158.161-.643.214-1.019.054-.43-.162-.27-.324.322-.324.589-.05.911.108.697.27zm229.688 1.932c0 .966-.108 1.451-.215 1.073-.162-.323-.749-.641-1.341-.641-.644 0-.966-.162-.803-.377.213-.161.106-.646-.216-1.073-.484-.538-.269-.7.965-.7 1.448 0 1.61.162 1.61 1.718zm-12.987 1.826c1.071.803 1.071.859-.215.644-.75-.11-1.395-.482-1.558-.86-.267-.86.485-.806 1.773.216zM67.536 88.437c-.163.27-.641.538-.966.538-.375 0-.322-.216.162-.538 1.019-.642 1.234-.642.804 0zm269.133.592c0 .269-.376.484-.807.484-.481 0-.641-.322-.481-.806.32-.805 1.288-.59 1.288.322zm6.708 4.239c-.163.267-.539.538-.858.538-.269 0-.484-.271-.484-.538 0-.324.377-.539.857-.539.429 0 .646.215.485.539zm-139.101 6.387c.91.804 3.647.48 7.083-.698.592-.215-.107.269-1.61 1.071-1.449.807-3.863 1.665-5.366 1.88-1.449.269-2.951.806-3.219 1.234-.697.913-8.75 1.662-9.928.86-.7-.484-.7-.538 0-.591.429-.054 1.234 0 1.771.053.534.054 1.61-.322 2.414-.857.806-.537 2.306-1.075 3.328-1.291 1.664-.265 1.875-.481 2.037-1.983.161-1.61.268-1.72 1.341-1.073.646.372 1.612.966 2.149 1.395zm155.845 1.983c-.161.163-.645.216-1.021.055-.428-.161-.27-.324.322-.324.591-.053.912.107.699.269zm-276.754 2.148c0 .109-.375.216-.804.216-.43 0-.806-.216-.806-.538 0-.268.376-.375.806-.216.429.216.804.431.804.538zm-4.454.537c-.158.159-.643.213-1.019.052-.43-.161-.27-.32.322-.32.589-.053.911.108.697.268zm-2.253.751c-.484.749-2.415 1.718-2.415 1.234 0-.375 1.288-1.179 2.575-1.717.11 0 0 .161-.16.483zm-17.281 5.204c-.375.107-1.126.107-1.609 0-.538-.161-.216-.267.644-.267.912 0 1.288.106.965.267zm3.06-.161c0 .109-.484.322-1.075.485-.589.161-.966.053-.75-.217.268-.48 1.825-.695 1.825-.268zm54.629 4.348c-.159.161-.483-.107-.641-.643-.322-.752-.269-.806.267-.323.374.377.537.806.374.966zm.912 1.34c.163.268.107.538-.212.538-.268 0-.7-.27-.859-.538-.163-.319-.109-.534.215-.534.269 0 .698.215.856.534zm-2.683 1.078c-.213.322-.107.909.215 1.286.431.483.378.695-.215.695-.426 0-.641-.212-.48-.426.107-.215-.054-.592-.377-.806-.431-.215-.375-.482.109-.805.963-.591 1.126-.591.748.056zm-68.958.534c0 .268-.107.537-.214.537-.162 0-.432-.269-.593-.537-.158-.321-.054-.534.216-.534.322 0 .591.213.591.534zm73.521 2.416c-.751.912-2.467 1.072-2.899.319-.215-.266.107-.373.7-.212.534.161 1.18 0 1.341-.322.216-.323.642-.591.966-.591.376 0 .322.322-.108.806zm-.751 1.984c.216.322.162.431-.216.215-.322-.161-.806.054-1.071.538-.322.587-.591.697-.861.268-.215-.322-.106-.59.216-.59.323 0 .43-.27.269-.54-.163-.319.054-.534.484-.534.426 0 .963.269 1.179.643zm-3.541 1.718c0 .107-.432.539-.912.913-.861.697-.916.644-.216-.215.696-.859 1.128-1.128 1.128-.698zm2.147 2.201c0 .428-.108.804-.215.804s-.323-.376-.539-.804c-.161-.43-.052-.806.216-.806.323 0 .538.376.538.806zm3.594-.484c-.163.162-.643.215-1.019.054-.43-.161-.269-.323.322-.323.59-.053.912.109.697.269zm-6.385 4.132c-.322.645-.646 1.234-.7 1.287-.052.109-.107-.535-.107-1.394 0-1.073.216-1.503.7-1.288.589.215.589.537.107 1.395zm112.588 6.333c.432.751-.857 8.532-1.448 8.532-.268 0-.484-.16-.484-.429 0-.215-.215-.697-.48-1.127-.378-.591-.7-.644-1.288-.159-.538.483-.753.483-.753-.056 0-.322-.162-1.18-.376-1.879-.321-.909-.162-1.287.859-1.66l1.236-.537h-1.182c-1.61-.056-1.556-.378.265-1.934 1.558-1.395 3.061-1.718 3.651-.751zm134.379-.375c0 .107-.804.482-1.719.803-1.607.538-1.661.484-.75-.211.966-.754 2.469-1.076 2.469-.592zm-245.786 1.933c0 .265-.108.534-.215.534-.162 0-.432-.269-.593-.534-.161-.322-.054-.539.215-.539.324 0 .593.217.593.539zm110.013 9.389c0 .107-.699.969-1.61 1.879-1.018 1.019-1.611 1.341-1.611.857 0-.426.645-1.288 1.396-1.875 1.448-1.129 1.825-1.341 1.825-.861zm-104.325 6.494c0 .589.588 1.127 1.717 1.504 1.396.481 1.611.749 1.073 1.288-.483.48-.483.642 0 .642.376 0 .642.539.642 1.183 0 .912-.158 1.019-.481.481-.269-.428-.754-.535-1.126-.323-.43.269-.591.161-.43-.319.161-.43-.376-1.395-1.126-2.149-1.503-1.449-1.987-3.166-.86-3.166.376 0 .644.375.591.859zm132.929 4.829c.483.161.644.752.537 1.556-.324 1.451 1.34 2.632 2.898 2.04.802-.322.856-.215.322.485-.376.427-.537.966-.376 1.125.215.163.161.751-.053 1.288-.54 1.234-.647 1.556-.754 2.575 0 .432-.32.807-.642.807s-.485-.375-.27-.807c.215-.641-.162-.694-2.252-.429-1.395.161-2.951.537-3.436.807-1.181.588-3.489 0-3.862-.965-.163-.432-.7-.754-1.237-.754-.644 0-.375-.376.859-1.125 1.988-1.181 1.881-1.881-.215-1.342-.856.215-1.232.589-1.019.964.215.378.163.432-.213.215-.324-.215-1.397.054-2.361.539-.968.534-2.471 1.127-3.383 1.341-.859.215-2.2.59-2.951.805-1.342.322-1.342.322-.268-.537 1.019-.912.964-.912-1.181-.697-1.288.159-2.309.215-2.309.107 0-.485 5.957-3.436 8.212-4.025 1.397-.377 2.685-.914 2.844-1.129.163-.266.535-.481.912-.481.322 0 .107.377-.48.803-.539.43-.754.807-.378.807 1.127 0 3.38-1.021 3.38-1.556 0-.322-.321-.429-.749-.27-.432.163-.912 0-1.182-.376-.215-.376-.162-.534.107-.322.27.161 1.824-.158 3.434-.697 3.059-1.071 4.722-1.286 6.066-.752zm-131.373 1.878c-.215.269-1.127.432-2.04.432-1.126-.054-1.341-.163-.643-.322.59-.163 1.287-.485 1.556-.751.59-.537 1.503-.053 1.127.641zm206.076 1.557c.427.7-.269.7-1.342 0-.7-.428-.7-.538.107-.538.481 0 1.072.216 1.235.538zm5.634 7.3c0 .107-.485.215-1.126.215-.593 0-.969-.215-.754-.537.27-.428 1.88-.163 1.88.322zm-70.572 1.018c.322.107-.59.216-1.983.216-1.451.052-2.576-.163-2.576-.378 0-.372 3.325-.265 4.559.162zm-9.928.592c0 .484-3.378 3.646-4.078 3.862-1.772.485-2.359.915-4.132 3.005-2.202 2.629-3.059 4.51-3.059 6.604 0 .909-.803 2.145-2.359 3.701-2.579 2.629-4.028 3.006-4.132 1.127-.161-3.115 2.198-7.569 6.761-12.611 2.252-2.522 2.737-3.863.803-2.149-.429.376-.216 0 .537-.802.804-.912 1.664-1.396 2.253-1.288.484.161 1.341-.054 1.879-.43 1.395-.966 5.527-1.719 5.527-1.019zm9.125 1.61c1.771.749 1.932.749 2.789-.269 1.343-1.665 2.899-1.448 3.597.537 1.288 3.703-1.076 5.796-3.004 2.63-1.184-2.04-2.257-2.149-1.881-.215.216 1.125-.106 1.772-1.394 2.898-.912.749-1.826 2.04-1.987 2.844-.319 1.18-2.254 3.059-3.167 3.059-.158 0-.212-1.019-.158-2.31.108-1.985 0-2.252-.969-2.091-.587.106-1.448.538-1.929.966-.431.43-1.022.752-1.291.752-.211 0 .699-1.074 2.094-2.418 1.395-1.341 2.36-2.681 2.203-2.951-.162-.265-.055-.587.265-.802.915-.594.591-1.344-.802-1.988-.754-.319-1.344-.966-1.344-1.394 0-.59.482-.697 2.576-.374 1.397.211 3.383.696 4.402 1.126zm1.288-.752c-.163.213-.485.428-.805.428-.27 0-.483-.215-.483-.428 0-.271.376-.481.803-.481.429 0 .644.21.485.481zm17.494 8.319c-.053 1.77-3.275 3.004-6.707 2.576-1.502-.216-3.652-.107-4.723.161-2.576.695-2.576-.108.052-1.342 1.289-.644 3.222-.967 5.636-.967 1.986 0 3.596-.162 3.596-.428 0-.215.481-.378 1.074-.378.589 0 1.072.163 1.072.378zm-12.341 5.258c0 .377-4.243 2.467-8.053 3.864-5.203 1.986-7.406 2.416-8.584 1.771-1.397-.75-1.397-1.61 0-1.61.591 0 1.071.322 1.071.645 0 .535.107.535.43.054.216-.377 1.827-1.396 3.598-2.257 2.575-1.34 3.594-1.555 5.635-1.34 1.713.215 2.197.162 1.66-.215-.588-.428-.373-.589 1.075-.804 1.018-.108 2.147-.269 2.521-.269.322-.053.647 0 .647.161zm-13.687 2.952c-.161.269-.803.538-1.394.538-.538 0-1.019-.269-1.019-.538 0-.322.641-.537 1.395-.537.749 0 1.234.215 1.018.537zm15.028 19.375c.589.91-.054 1.125-.806.21-.428-.478-.428-.803-.109-.803.324 0 .753.269.915.593zm0 9.067c.161.322-.054.375-.484.215-.965-.377-1.126-.751-.377-.751.324 0 .699.217.861.536zm-63.327 26.834c.161.269-.053.534-.535.534-.484 0-.699-.265-.537-.534.16-.324.429-.537.537-.537.107 0 .374.213.535.537zm6.064 87.153c.54 1.234.484 1.287-1.288 1.234-1.556-.108-1.716-.215-.964-.754.857-.642.857-.695.054-1.018-.538-.161-.916-.803-.916-1.343 0-.963.11-.963 1.236-.213.699.429 1.556 1.395 1.878 2.094z" />
            <path
                d="M297.761 52.052c-1.448.269-3.65.538-4.829.591-1.181.107-3.113.485-4.24.856-1.664.593-1.932.807-1.234 1.239 1.287.696.48 2.037-1.288 2.037-.86 0-1.556-.269-1.556-.534 0-.7-1.932-.7-3.275 0-1.341.749-.753 1.875 1.718 3.109 1.341.647 1.822 1.238 1.77 2.147-.055 1.45.052 1.45 6.655.055 2.737-.537 3.756-1.074 5.742-3.006 1.342-1.234 2.415-2.79 2.415-3.381 0-.59.375-1.073.806-1.073.857 0 .912-.323.372-1.611-.319-.694-.856-.75-3.056-.429zm.805 3.704c.695.485.695.537-.108.322-.485-.161-.965-.054-1.126.321-.108.322-.322.214-.537-.321-.377-1.021.537-1.234 1.771-.322zM59.913 114.948c-1.499.646-2.946 1.342-3.162 1.557-.216.215-.916.378-1.557.378-.7 0-1.503.371-1.878.802-.377.43-.859.698-1.074.538-.698-.431-3.757.857-4.292 1.825-.753 1.45.16 2.414 1.929 1.93.861-.27 1.934-.48 2.363-.589a10.403 10.403 0 001.876-.699c.592-.322 1.987-.911 3.114-1.341 1.718-.697 2.256-1.395 2.094-3.006 0-.16.804-.214 1.825-.107 1.662.215 1.823.107 1.823-1.182 0-.749-.055-1.393-.107-1.34-.106 0-1.397.591-2.954 1.234zM230.948 275.784c-.752.214-2.47.697-3.865 1.072-1.396.322-2.952 1.075-3.434 1.61-.483.591-1.287 1.021-1.771 1.021-.754 0-.754.109-.054.535.697.431.588.592-.375.862-1.611.426-1.557 1.071.053 1.394.754.161 1.825-.162 2.522-.699.698-.534 1.663-1.019 2.147-1.019.484 0 1.396-.484 2.092-1.073.86-.752 1.933-1.075 3.436-1.021 1.234.052 1.771.162 1.287.322-.534.108-.965.43-.965.699 0 .482 3.329 1.61 4.832 1.61.426 0 2.037.59 3.485 1.342 1.611.751 3.167 1.18 3.917.965.967-.214 1.182-.054 1.182 1.073 0 .698.375 1.61.804 1.986.43.378.805.965.805 1.342 0 .376.376.965.807 1.341.484.376.749 1.019.591 1.395-.376.912 10.947.647 13.36-.269l1.556-.641-1.556-1.287c-.91-.7-2.254-1.291-3.006-1.347-.965 0-1.395-.265-1.341-.856.053-.591-.697-1.125-2.252-1.557-2.256-.695-5.473-3.381-5.473-4.669 0-.319-.163-.48-.324-.265-.215.156-.699 0-1.127-.432-.913-.967-2.523-1.072-1.984-.161.267.43.106.484-.539.269-.536-.215-1.287-.376-1.714-.376-.432 0-.7-.269-.591-.645.322-1.608-9.232-3.54-12.505-2.521zm19.586 12.291c.217.319-.375.534-1.287.534-.91 0-1.664-.265-1.664-.534 0-.324.592-.538 1.288-.538.754 0 1.503.214 1.663.538zM266.473 290.756c-1.771.858-1.825 1.61 0 1.61.7 0 .965.428.965 1.503 0 .804.269 1.769.647 2.146 1.019 1.022-.966 1.395-4.24.807-2.576-.485-2.951-.431-3.383.426-.427.753-.215 1.131 1.181 1.772 1.826.915 2.789 1.127 2.363.43-.109-.215 1.179-.43 2.951-.376 2.953 0 3.381.161 4.347 1.502l1.073 1.503 1.342-1.879c1.288-1.931 2.04-2.36 2.413-1.394.109.322.753.214 1.665-.27 1.557-.804 4.83-.642 5.099.27.108.268.588.538 1.073.538.429 0 .645-.163.484-.378-.215-.16.054-.641.589-1.019.859-.644.752-.859-1.073-2.629-1.073-1.021-2.468-1.877-3.059-1.877-.643 0-1.127-.325-1.127-.751 0-1.076-4.4-2.149-7.298-1.665-1.773.265-2.685.163-3.329-.43-.803-.645-1.181-.591-2.683.161z" />
        </g>
    </g>
</svg>